<?xml version="1.0" encoding="UTF-8" standalone="no"?>
<!DOCTYPE svg PUBLIC "-//W3C//DTD SVG 1.1//EN"
 "http://www.w3.org/Graphics/SVG/1.1/DTD/svg11.dtd">
<!-- Generated by graphviz version 14.1.2 (20260124.0452)
 -->
<!-- Pages: 1 -->
<svg width="1231pt" height="508pt"
 viewBox="280.00 0.00 1231.00 508.00" xmlns="http://www.w3.org/2000/svg" xmlns:xlink="http://www.w3.org/1999/xlink">
<g id="graph0" class="graph" transform="scale(1 1) rotate(0) translate(4 503.82)">
<polygon fill="white" stroke="none" points="-4,4 -4,-503.82 1226.5,-503.82 1226.5,4 -4,4"/>
<!-- stg_campaigns__onboarding_complete -->
<g id="node1" class="node">
<title>stg_campaigns__onboarding_complete</title>
<polygon fill="#fff2ae" stroke="black" stroke-width="2" points="956.75,-499.82 727.75,-499.82 727.75,-463.82 956.75,-463.82 956.75,-499.82"/>
<text xml:space="preserve" text-anchor="middle" x="842.25" y="-476.77" font-family="Times,serif" font-size="14.00">stg_campaigns__onboarding_complete</text>
</g>
<!-- fct_email_campaign_user_engagement -->
<g id="node2" class="node">
<title>fct_email_campaign_user_engagement</title>
<polygon fill="#b3e2cd" stroke="black" stroke-width="2" points="1222.5,-347.82 992.75,-347.82 992.75,-311.82 1222.5,-311.82 1222.5,-347.82"/>
<text xml:space="preserve" text-anchor="middle" x="1107.62" y="-324.77" font-family="Times,serif" font-size="14.00">fct_email_campaign_user_engagement</text>
</g>
<!-- stg_campaigns__onboarding_complete&#45;&gt;fct_email_campaign_user_engagement -->
<g id="edge1" class="edge">
<title>stg_campaigns__onboarding_complete&#45;&gt;fct_email_campaign_user_engagement</title>
<path fill="none" stroke="black" d="M944.1,-463.33C948.57,-460.83 952.82,-458.01 956.75,-454.82 985.79,-431.29 965.85,-404.77 992.75,-378.82 1003.78,-368.18 1017.49,-359.67 1031.53,-352.92"/>
<polygon fill="none" stroke="black" points="1032.71,-356.23 1040.39,-348.94 1029.84,-349.84 1032.71,-356.23"/>
</g>
<!-- rpt_user_email_campaign_results -->
<g id="node3" class="node">
<title>rpt_user_email_campaign_results</title>
<polygon fill="seashell" stroke="black" stroke-width="2" points="1207.5,-423.82 1007.75,-423.82 1007.75,-387.82 1207.5,-387.82 1207.5,-423.82"/>
<text xml:space="preserve" text-anchor="middle" x="1107.62" y="-400.77" font-family="Times,serif" font-size="14.00">rpt_user_email_campaign_results</text>
</g>
<!-- stg_campaigns__onboarding_complete&#45;&gt;rpt_user_email_campaign_results -->
<g id="edge2" class="edge">
<title>stg_campaigns__onboarding_complete&#45;&gt;rpt_user_email_campaign_results</title>
<path fill="none" stroke="black" d="M924.37,-463.38C935.29,-460.65 946.32,-457.76 956.75,-454.82 985.35,-446.76 1016.64,-436.72 1043.2,-427.84"/>
<polygon fill="none" stroke="black" points="1044.09,-431.23 1052.45,-424.72 1041.86,-424.6 1044.09,-431.23"/>
</g>
<!-- email_campaign_onboarding_complete -->
<g id="node4" class="node">
<title>email_campaign_onboarding_complete</title>
<polygon fill="none" stroke="black" points="691.75,-499.82 459.75,-499.82 459.75,-463.82 691.75,-463.82 691.75,-499.82"/>
<text xml:space="preserve" text-anchor="middle" x="575.75" y="-476.77" font-family="Times,serif" font-size="14.00">email_campaign_onboarding_complete</text>
</g>
<!-- email_campaign_onboarding_complete&#45;&gt;stg_campaigns__onboarding_complete -->
<g id="edge3" class="edge">
<title>email_campaign_onboarding_complete&#45;&gt;stg_campaigns__onboarding_complete</title>
<path fill="none" stroke="black" d="M691.99,-481.82C700.04,-481.82 708.17,-481.82 716.26,-481.82"/>
<polygon fill="none" stroke="black" points="716.15,-485.32 726.15,-481.82 716.15,-478.32 716.15,-485.32"/>
</g>
<!-- stg_app__plans -->
<g id="node5" class="node">
<title>stg_app__plans</title>
<polygon fill="#fff2ae" stroke="black" stroke-width="2" points="100,-272.82 0,-272.82 0,-236.82 100,-236.82 100,-272.82"/>
<text xml:space="preserve" text-anchor="middle" x="50" y="-249.77" font-family="Times,serif" font-size="14.00">stg_app__plans</text>
</g>
<!-- stg_app__accounts -->
<g id="node6" class="node">
<title>stg_app__accounts</title>
<polygon fill="#fff2ae" stroke="black" stroke-width="2" points="256.62,-361.82 137.88,-361.82 137.88,-325.82 256.62,-325.82 256.62,-361.82"/>
<text xml:space="preserve" text-anchor="middle" x="197.25" y="-338.77" font-family="Times,serif" font-size="14.00">stg_app__accounts</text>
</g>
<!-- stg_app__plans&#45;&gt;stg_app__accounts -->
<g id="edge4" class="edge">
<title>stg_app__plans&#45;&gt;stg_app__accounts</title>
<path fill="none" stroke="black" d="M73.56,-273.29C90.2,-286.4 113.72,-303.89 136,-316.82 138.01,-317.99 140.09,-319.14 142.2,-320.27"/>
<polygon fill="none" stroke="black" points="140.42,-323.3 150.92,-324.72 143.6,-317.06 140.42,-323.3"/>
</g>
<!-- fct_app_plans -->
<g id="node7" class="node">
<title>fct_app_plans</title>
<polygon fill="#b3e2cd" stroke="black" stroke-width="2" stroke-dasharray="5,2" points="621.62,-161.82 529.88,-161.82 529.88,-125.82 621.62,-125.82 621.62,-161.82"/>
<text xml:space="preserve" text-anchor="middle" x="575.75" y="-138.77" font-family="Times,serif" font-size="14.00">fct_app_plans</text>
</g>
<!-- stg_app__plans&#45;&gt;fct_app_plans -->
<g id="edge5" class="edge">
<title>stg_app__plans&#45;&gt;fct_app_plans</title>
<path fill="none" stroke="black" d="M78.98,-236.45C95.04,-226.75 115.94,-215.5 136,-208.82 268.4,-164.72 433.22,-150.48 518.21,-145.93"/>
<polygon fill="none" stroke="black" points="518.34,-149.43 528.15,-145.42 517.98,-142.44 518.34,-149.43"/>
</g>
<!-- dim_app_users -->
<g id="node13" class="node">
<title>dim_app_users</title>
<polygon fill="#cbd5e8" stroke="black" stroke-width="2" points="408.38,-307.82 309.88,-307.82 309.88,-271.82 408.38,-271.82 408.38,-307.82"/>
<text xml:space="preserve" text-anchor="middle" x="359.12" y="-284.77" font-family="Times,serif" font-size="14.00">dim_app_users</text>
</g>
<!-- stg_app__accounts&#45;&gt;dim_app_users -->
<g id="edge27" class="edge">
<title>stg_app__accounts&#45;&gt;dim_app_users</title>
<path fill="none" stroke="black" d="M252.82,-325.39C267.6,-320.4 283.67,-314.97 298.69,-309.89"/>
<polygon fill="none" stroke="black" points="299.63,-313.27 307.99,-306.75 297.39,-306.64 299.63,-313.27"/>
</g>
<!-- fct_app_engagement -->
<g id="node16" class="node">
<title>fct_app_engagement</title>
<polygon fill="#b3e2cd" stroke="black" stroke-width="2" stroke-dasharray="5,2" points="423.75,-445.82 294.5,-445.82 294.5,-409.82 423.75,-409.82 423.75,-445.82"/>
<text xml:space="preserve" text-anchor="middle" x="359.12" y="-422.77" font-family="Times,serif" font-size="14.00">fct_app_engagement</text>
</g>
<!-- stg_app__accounts&#45;&gt;fct_app_engagement -->
<g id="edge28" class="edge">
<title>stg_app__accounts&#45;&gt;fct_app_engagement</title>
<path fill="none" stroke="black" d="M227.17,-362.32C245.99,-374.01 271.27,-389.08 294.5,-400.82 297.03,-402.1 299.63,-403.37 302.28,-404.63"/>
<polygon fill="none" stroke="black" points="300.68,-407.74 311.23,-408.74 303.6,-401.38 300.68,-407.74"/>
</g>
<!-- fct_app_plans&#45;&gt;fct_email_campaign_user_engagement -->
<g id="edge31" class="edge">
<title>fct_app_plans&#45;&gt;fct_email_campaign_user_engagement</title>
<path fill="none" stroke="black" d="M621.94,-150.4C644.15,-155.08 670.62,-162.91 691.75,-175.82 711.88,-188.12 706.99,-203.62 727.75,-214.82 818.54,-263.82 869.1,-198.4 956.75,-252.82 980.01,-267.26 969.99,-287.59 992.75,-302.82 994.55,-304.03 996.41,-305.18 998.3,-306.28"/>
<polygon fill="none" stroke="black" points="996.24,-309.16 1006.73,-310.68 999.48,-302.95 996.24,-309.16"/>
</g>
<!-- dim_user_360_user_accounts -->
<g id="node14" class="node">
<title>dim_user_360_user_accounts</title>
<polygon fill="#cbd5e8" stroke="black" stroke-width="2" points="930.88,-297.82 753.62,-297.82 753.62,-261.82 930.88,-261.82 930.88,-297.82"/>
<text xml:space="preserve" text-anchor="middle" x="842.25" y="-274.77" font-family="Times,serif" font-size="14.00">dim_user_360_user_accounts</text>
</g>
<!-- fct_app_plans&#45;&gt;dim_user_360_user_accounts -->
<g id="edge32" class="edge">
<title>fct_app_plans&#45;&gt;dim_user_360_user_accounts</title>
<path fill="none" stroke="black" d="M621.97,-147.68C644.98,-151.65 672.16,-159.67 691.75,-175.82 719.36,-198.57 700.18,-225.02 727.75,-247.82 732.48,-251.73 737.67,-255.17 743.13,-258.19"/>
<polygon fill="none" stroke="black" points="741.35,-261.21 751.87,-262.51 744.45,-254.94 741.35,-261.21"/>
</g>
<!-- rpt_email_campaign_impact -->
<g id="node15" class="node">
<title>rpt_email_campaign_impact</title>
<polygon fill="seashell" stroke="black" stroke-width="2" points="1194,-293.82 1021.25,-293.82 1021.25,-257.82 1194,-257.82 1194,-293.82"/>
<text xml:space="preserve" text-anchor="middle" x="1107.62" y="-270.77" font-family="Times,serif" font-size="14.00">rpt_email_campaign_impact</text>
</g>
<!-- fct_app_plans&#45;&gt;rpt_email_campaign_impact -->
<g id="edge33" class="edge">
<title>fct_app_plans&#45;&gt;rpt_email_campaign_impact</title>
<path fill="none" stroke="black" d="M621.93,-135.65C643.41,-131.15 669.25,-124.84 691.75,-116.82 761.4,-91.99 769.92,-24.35 841.25,-43.82"/>
</g>
<!-- fct_app_actions -->
<g id="node8" class="node">
<title>fct_app_actions</title>
<polygon fill="#b3e2cd" stroke="black" stroke-width="2" points="409.88,-391.82 308.38,-391.82 308.38,-355.82 409.88,-355.82 409.88,-391.82"/>
<text xml:space="preserve" text-anchor="middle" x="359.12" y="-368.77" font-family="Times,serif" font-size="14.00">fct_app_actions</text>
</g>
<!-- dim_user_360_engagement -->
<g id="node9" class="node">
<title>dim_user_360_engagement</title>
<polygon fill="#cbd5e8" stroke="black" stroke-width="2" points="925.62,-445.82 758.88,-445.82 758.88,-409.82 925.62,-409.82 925.62,-445.82"/>
<text xml:space="preserve" text-anchor="middle" x="842.25" y="-422.77" font-family="Times,serif" font-size="14.00">dim_user_360_engagement</text>
</g>
<!-- fct_app_actions&#45;&gt;dim_user_360_engagement -->
<g id="edge6" class="edge">
<title>fct_app_actions&#45;&gt;dim_user_360_engagement</title>
<path fill="none" stroke="black" d="M407.24,-392.26C423.67,-398.19 442.35,-404.36 459.75,-408.82 509.93,-421.68 523.48,-420.4 574.75,-427.82"/>
</g>
<!-- dim_user_360_event_users_latest -->
<g id="node10" class="node">
<title>dim_user_360_event_users_latest</title>
<polygon fill="#cbd5e8" stroke="black" stroke-width="2" points="675.62,-307.82 475.88,-307.82 475.88,-271.82 675.62,-271.82 675.62,-307.82"/>
<text xml:space="preserve" text-anchor="middle" x="575.75" y="-284.77" font-family="Times,serif" font-size="14.00">dim_user_360_event_users_latest</text>
</g>
<!-- fct_app_actions&#45;&gt;dim_user_360_event_users_latest -->
<g id="edge7" class="edge">
<title>fct_app_actions&#45;&gt;dim_user_360_event_users_latest</title>
<path fill="none" stroke="black" d="M407.23,-355.39C439.66,-342.69 482.93,-325.76 517.38,-312.28"/>
<polygon fill="none" stroke="black" points="518.31,-315.67 526.35,-308.76 515.76,-309.15 518.31,-315.67"/>
</g>
<!-- dim_user_360_engagement&#45;&gt;fct_email_campaign_user_engagement -->
<g id="edge14" class="edge">
<title>dim_user_360_engagement&#45;&gt;fct_email_campaign_user_engagement</title>
<path fill="none" stroke="black" d="M926.05,-411.36C936.55,-408.33 947.01,-404.83 956.75,-400.82 974.09,-393.67 976.1,-387.44 992.75,-378.82 1010.73,-369.52 1030.86,-360.44 1049.15,-352.67"/>
<polygon fill="none" stroke="black" points="1050.4,-355.94 1058.27,-348.85 1047.7,-349.49 1050.4,-355.94"/>
</g>
<!-- dim_user_360_engagement&#45;&gt;rpt_user_email_campaign_results -->
<g id="edge15" class="edge">
<title>dim_user_360_engagement&#45;&gt;rpt_user_email_campaign_results</title>
<path fill="none" stroke="black" d="M925.86,-420.92C948.26,-419.05 972.87,-416.99 996.53,-415.02"/>
<polygon fill="none" stroke="black" points="996.5,-418.53 1006.17,-414.21 995.92,-411.56 996.5,-418.53"/>
</g>
<!-- dim_user_360_engagement&#45;&gt;rpt_email_campaign_impact -->
<g id="edge16" class="edge">
<title>dim_user_360_engagement&#45;&gt;rpt_email_campaign_impact</title>
<path fill="none" stroke="black" d="M925.86,-418.45C937.15,-414.37 947.89,-408.69 956.75,-400.82 991.45,-370.01 958.04,-333.62 992.75,-302.82 998.09,-298.09 1004.1,-294.14 1010.51,-290.86"/>
<polygon fill="none" stroke="black" points="1011.77,-294.13 1019.47,-286.85 1008.91,-287.74 1011.77,-294.13"/>
</g>
<!-- dim_user_360_event_users_latest&#45;&gt;dim_user_360_user_accounts -->
<g id="edge35" class="edge">
<title>dim_user_360_event_users_latest&#45;&gt;dim_user_360_user_accounts</title>
<path fill="none" stroke="black" d="M675.99,-286.07C697.49,-285.26 720.23,-284.4 741.73,-283.58"/>
<polygon fill="none" stroke="black" points="741.82,-287.08 751.68,-283.21 741.56,-280.09 741.82,-287.08"/>
</g>
<!-- email_campaign_onboarding_skipped -->
<g id="node11" class="node">
<title>email_campaign_onboarding_skipped</title>
<polygon fill="none" stroke="black" points="687.62,-399.82 463.88,-399.82 463.88,-363.82 687.62,-363.82 687.62,-399.82"/>
<text xml:space="preserve" text-anchor="middle" x="575.75" y="-376.77" font-family="Times,serif" font-size="14.00">email_campaign_onboarding_skipped</text>
</g>
<!-- stg_campaigns__onboarding_skipped -->
<g id="node12" class="node">
<title>stg_campaigns__onboarding_skipped</title>
<polygon fill="#fff2ae" stroke="black" stroke-width="2" points="952.62,-391.82 731.88,-391.82 731.88,-355.82 952.62,-355.82 952.62,-391.82"/>
<text xml:space="preserve" text-anchor="middle" x="842.25" y="-368.77" font-family="Times,serif" font-size="14.00">stg_campaigns__onboarding_skipped</text>
</g>
<!-- email_campaign_onboarding_skipped&#45;&gt;stg_campaigns__onboarding_skipped -->
<g id="edge8" class="edge">
<title>email_campaign_onboarding_skipped&#45;&gt;stg_campaigns__onboarding_skipped</title>
<path fill="none" stroke="black" d="M687.77,-378.46C698.58,-378.14 709.58,-377.8 720.48,-377.47"/>
<polygon fill="none" stroke="black" points="720.38,-380.98 730.27,-377.18 720.17,-373.98 720.38,-380.98"/>
</g>
<!-- stg_campaigns__onboarding_skipped&#45;&gt;fct_email_campaign_user_engagement -->
<g id="edge24" class="edge">
<title>stg_campaigns__onboarding_skipped&#45;&gt;fct_email_campaign_user_engagement</title>
<path fill="none" stroke="black" d="M953.04,-355.48C963.62,-353.71 974.39,-351.91 985.08,-350.13"/>
<polygon fill="none" stroke="black" points="985.39,-353.62 994.68,-348.52 984.24,-346.72 985.39,-353.62"/>
</g>
<!-- stg_campaigns__onboarding_skipped&#45;&gt;rpt_user_email_campaign_results -->
<g id="edge25" class="edge">
<title>stg_campaigns__onboarding_skipped&#45;&gt;rpt_user_email_campaign_results</title>
<path fill="none" stroke="black" d="M953.04,-387.16C967.29,-388.89 981.9,-390.67 996.17,-392.4"/>
<polygon fill="none" stroke="black" points="995.67,-395.86 1006.02,-393.6 996.52,-388.92 995.67,-395.86"/>
</g>
<!-- stg_campaigns__onboarding_skipped&#45;&gt;rpt_email_campaign_impact -->
<g id="edge26" class="edge">
<title>stg_campaigns__onboarding_skipped&#45;&gt;rpt_email_campaign_impact</title>
<path fill="none" stroke="black" d="M876.82,-355.36C906.57,-339.62 951.55,-317.31 992.75,-302.82 998.38,-300.84 1004.22,-298.96 1010.14,-297.18"/>
<polygon fill="none" stroke="black" points="1010.77,-300.64 1019.42,-294.51 1008.84,-293.91 1010.77,-300.64"/>
</g>
<!-- dim_app_users&#45;&gt;fct_email_campaign_user_engagement -->
<g id="edge9" class="edge">
<title>dim_app_users&#45;&gt;fct_email_campaign_user_engagement</title>
<path fill="none" stroke="black" d="M408.78,-305.56C424.83,-310.06 442.9,-314.4 459.75,-316.82 639.5,-342.59 850.2,-340.99 981.07,-336.32"/>
<polygon fill="none" stroke="black" points="980.93,-339.83 990.79,-335.96 980.67,-332.83 980.93,-339.83"/>
</g>
<!-- dim_app_users&#45;&gt;dim_user_360_engagement -->
<g id="edge10" class="edge">
<title>dim_app_users&#45;&gt;dim_user_360_engagement</title>
<path fill="none" stroke="black" d="M384.17,-308.28C396.85,-318.74 412.14,-332.56 423.75,-346.82 443.86,-371.53 433.53,-390.72 459.75,-408.82 502.38,-438.25 523.48,-420.4 574.75,-427.82"/>
<path fill="none" stroke="black" d="M576.75,-427.82C632.94,-435.95 696.56,-436.22 747.32,-434.34"/>
<polygon fill="none" stroke="black" points="747.25,-437.84 757.09,-433.94 746.96,-430.85 747.25,-437.84"/>
</g>
<!-- dim_app_users&#45;&gt;dim_user_360_event_users_latest -->
<g id="edge13" class="edge">
<title>dim_app_users&#45;&gt;dim_user_360_event_users_latest</title>
<path fill="none" stroke="black" d="M408.83,-289.82C425.47,-289.82 444.83,-289.82 464.33,-289.82"/>
<polygon fill="none" stroke="black" points="464.29,-293.32 474.29,-289.82 464.29,-286.32 464.29,-293.32"/>
</g>
<!-- dim_app_users&#45;&gt;dim_user_360_user_accounts -->
<g id="edge11" class="edge">
<title>dim_app_users&#45;&gt;dim_user_360_user_accounts</title>
<path fill="none" stroke="black" d="M375.48,-271.42C393.34,-251.59 424.88,-221.21 459.75,-208.82 556.91,-174.31 597.3,-167.46 691.75,-208.82 713.36,-218.28 707.64,-235.49 727.75,-247.82 733.34,-251.25 739.31,-254.32 745.47,-257.07"/>
<polygon fill="none" stroke="black" points="744.02,-260.26 754.6,-260.82 746.68,-253.78 744.02,-260.26"/>
</g>
<!-- dim_app_users&#45;&gt;rpt_email_campaign_impact -->
<g id="edge12" class="edge">
<title>dim_app_users&#45;&gt;rpt_email_campaign_impact</title>
<path fill="none" stroke="black" d="M361.88,-271.37C367.22,-226.65 387.64,-112.53 459.75,-62.82 599.53,33.53 677.48,0.88 841.25,-43.82"/>
<path fill="none" stroke="black" d="M843.25,-43.82C957.45,-76.36 1050.4,-193.79 1088.28,-248.02"/>
<polygon fill="none" stroke="black" points="1085.3,-249.87 1093.85,-256.13 1091.07,-245.9 1085.3,-249.87"/>
</g>
<!-- dim_user_360_user_accounts&#45;&gt;fct_email_campaign_user_engagement -->
<g id="edge17" class="edge">
<title>dim_user_360_user_accounts&#45;&gt;fct_email_campaign_user_engagement</title>
<path fill="none" stroke="black" d="M931.32,-296.54C952.81,-300.62 976.05,-305.03 998.36,-309.27"/>
<polygon fill="none" stroke="black" points="997.61,-312.69 1008.09,-311.11 998.92,-305.81 997.61,-312.69"/>
</g>
<!-- dim_user_360_user_accounts&#45;&gt;rpt_user_email_campaign_results -->
<g id="edge18" class="edge">
<title>dim_user_360_user_accounts&#45;&gt;rpt_user_email_campaign_results</title>
<path fill="none" stroke="black" d="M877.35,-298.24C907.44,-314.28 952.62,-337.88 992.75,-356.82 1011.63,-365.73 1032.55,-374.92 1051.26,-382.91"/>
<polygon fill="none" stroke="black" points="1049.72,-386.06 1060.29,-386.74 1052.45,-379.61 1049.72,-386.06"/>
</g>
<!-- dim_user_360_user_accounts&#45;&gt;rpt_email_campaign_impact -->
<g id="edge19" class="edge">
<title>dim_user_360_user_accounts&#45;&gt;rpt_email_campaign_impact</title>
<path fill="none" stroke="black" d="M931.32,-278.48C956.46,-278.1 983.99,-277.68 1009.63,-277.29"/>
<polygon fill="none" stroke="black" points="1009.42,-280.8 1019.36,-277.15 1009.31,-273.8 1009.42,-280.8"/>
</g>
<!-- fct_app_engagement&#45;&gt;dim_user_360_engagement -->
<g id="edge20" class="edge">
<title>fct_app_engagement&#45;&gt;dim_user_360_engagement</title>
<path fill="none" stroke="black" d="M423.86,-423.06C466.74,-421.02 524.41,-420.54 574.75,-427.82"/>
</g>
<!-- stg_app__members -->
<g id="node17" class="node">
<title>stg_app__members</title>
<polygon fill="#fff2ae" stroke="black" stroke-width="2" points="258.5,-307.82 136,-307.82 136,-271.82 258.5,-271.82 258.5,-307.82"/>
<text xml:space="preserve" text-anchor="middle" x="197.25" y="-284.77" font-family="Times,serif" font-size="14.00">stg_app__members</text>
</g>
<!-- stg_app__members&#45;&gt;dim_app_users -->
<g id="edge21" class="edge">
<title>stg_app__members&#45;&gt;dim_app_users</title>
<path fill="none" stroke="black" d="M258.69,-289.82C271.69,-289.82 285.41,-289.82 298.38,-289.82"/>
<polygon fill="none" stroke="black" points="298.03,-293.32 308.03,-289.82 298.03,-286.32 298.03,-293.32"/>
</g>
<!-- stg_campaigns__onboarding_pending -->
<g id="node18" class="node">
<title>stg_campaigns__onboarding_pending</title>
<polygon fill="#fff2ae" stroke="black" stroke-width="2" points="953.38,-205.82 731.12,-205.82 731.12,-169.82 953.38,-169.82 953.38,-205.82"/>
<text xml:space="preserve" text-anchor="middle" x="842.25" y="-182.77" font-family="Times,serif" font-size="14.00">stg_campaigns__onboarding_pending</text>
</g>
<!-- stg_campaigns__onboarding_pending&#45;&gt;fct_email_campaign_user_engagement -->
<g id="edge22" class="edge">
<title>stg_campaigns__onboarding_pending&#45;&gt;fct_email_campaign_user_engagement</title>
<path fill="none" stroke="black" d="M936.13,-206.21C943.57,-209.95 950.58,-214.43 956.75,-219.82 987.03,-246.28 961.92,-277 992.75,-302.82 993.7,-303.62 994.68,-304.4 995.67,-305.15"/>
<polygon fill="none" stroke="black" points="993.51,-307.92 1003.78,-310.52 997.37,-302.08 993.51,-307.92"/>
</g>
<!-- stg_campaigns__onboarding_pending&#45;&gt;rpt_email_campaign_impact -->
<g id="edge23" class="edge">
<title>stg_campaigns__onboarding_pending&#45;&gt;rpt_email_campaign_impact</title>
<path fill="none" stroke="black" d="M912.25,-206.29C927,-210.51 942.45,-215.14 956.75,-219.82 987.75,-229.96 1021.84,-242.58 1049.66,-253.27"/>
<polygon fill="none" stroke="black" points="1048.39,-256.53 1058.98,-256.87 1050.91,-250 1048.39,-256.53"/>
</g>
<!-- fct_app_activity_walk -->
<g id="node19" class="node">
<title>fct_app_activity_walk</title>
<polygon fill="#b3e2cd" stroke="black" stroke-width="2" stroke-dasharray="5,2" points="644.12,-253.82 507.38,-253.82 507.38,-217.82 644.12,-217.82 644.12,-253.82"/>
<text xml:space="preserve" text-anchor="middle" x="575.75" y="-230.77" font-family="Times,serif" font-size="14.00">fct_app_activity_walk</text>
</g>
<!-- fct_app_activity_walk&#45;&gt;dim_user_360_user_accounts -->
<g id="edge29" class="edge">
<title>fct_app_activity_walk&#45;&gt;dim_user_360_user_accounts</title>
<path fill="none" stroke="black" d="M644.52,-247.09C674.1,-252.01 709.37,-257.88 741.82,-263.28"/>
<polygon fill="none" stroke="black" points="741.24,-266.73 751.68,-264.92 742.39,-259.83 741.24,-266.73"/>
</g>
<!-- email_campaign_onboarding_pending -->
<g id="node20" class="node">
<title>email_campaign_onboarding_pending</title>
<polygon fill="none" stroke="black" points="688.38,-107.82 463.12,-107.82 463.12,-71.82 688.38,-71.82 688.38,-107.82"/>
<text xml:space="preserve" text-anchor="middle" x="575.75" y="-84.77" font-family="Times,serif" font-size="14.00">email_campaign_onboarding_pending</text>
</g>
<!-- email_campaign_onboarding_pending&#45;&gt;stg_campaigns__onboarding_pending -->
<g id="edge30" class="edge">
<title>email_campaign_onboarding_pending&#45;&gt;stg_campaigns__onboarding_pending</title>
<path fill="none" stroke="black" d="M664.28,-108.31C673.63,-110.89 682.94,-113.73 691.75,-116.82 728.62,-129.74 768.5,-148.96 797.79,-164.15"/>
<polygon fill="none" stroke="black" points="795.86,-167.09 806.34,-168.63 799.11,-160.89 795.86,-167.09"/>
</g>
<!-- stg_app__users -->
<g id="node21" class="node">
<title>stg_app__users</title>
<polygon fill="#fff2ae" stroke="black" stroke-width="2" points="246.88,-253.82 147.62,-253.82 147.62,-217.82 246.88,-217.82 246.88,-253.82"/>
<text xml:space="preserve" text-anchor="middle" x="197.25" y="-230.77" font-family="Times,serif" font-size="14.00">stg_app__users</text>
</g>
<!-- stg_app__users&#45;&gt;dim_app_users -->
<g id="edge34" class="edge">
<title>stg_app__users&#45;&gt;dim_app_users</title>
<path fill="none" stroke="black" d="M247.09,-252.32C263.51,-257.86 282.01,-264.11 299.14,-269.9"/>
<polygon fill="none" stroke="black" points="297.56,-273.06 308.15,-272.94 299.8,-266.43 297.56,-273.06"/>
</g>
</g>
</svg>
