<?xml version="1.0" encoding="UTF-8" standalone="no"?>
<!DOCTYPE svg PUBLIC "-//W3C//DTD SVG 1.1//EN"
 "http://www.w3.org/Graphics/SVG/1.1/DTD/svg11.dtd">
<!-- Generated by graphviz version 14.1.2 (20260124.0452)
 -->
<!-- Pages: 1 -->
<svg width="1231pt" height="500pt"
 viewBox="0.00 0.00 1231.00 500.00" xmlns="http://www.w3.org/2000/svg" xmlns:xlink="http://www.w3.org/1999/xlink">
<g id="graph0" class="graph" transform="scale(1 1) rotate(0) translate(4 495.67)">
<polygon fill="white" stroke="none" points="-4,4 -4,-495.67 1226.5,-495.67 1226.5,4 -4,4"/>
<!-- dim_user_360_event_users_latest -->
<g id="node1" class="node">
<title>dim_user_360_event_users_latest</title>
<polygon fill="#cbd5e8" stroke="black" stroke-width="2" points="675.62,-383.67 475.88,-383.67 475.88,-347.67 675.62,-347.67 675.62,-383.67"/>
<text xml:space="preserve" text-anchor="middle" x="575.75" y="-360.62" font-family="Times,serif" font-size="14.00">dim_user_360_event_users_latest</text>
</g>
<!-- dim_user_360_user_accounts -->
<g id="node2" class="node">
<title>dim_user_360_user_accounts</title>
<polygon fill="#cbd5e8" stroke="black" stroke-width="2" points="930.88,-345.67 753.62,-345.67 753.62,-309.67 930.88,-309.67 930.88,-345.67"/>
<text xml:space="preserve" text-anchor="middle" x="842.25" y="-322.62" font-family="Times,serif" font-size="14.00">dim_user_360_user_accounts</text>
</g>
<!-- dim_user_360_event_users_latest&#45;&gt;dim_user_360_user_accounts -->
<g id="edge1" class="edge">
<title>dim_user_360_event_users_latest&#45;&gt;dim_user_360_user_accounts</title>
<path fill="none" stroke="black" d="M675.99,-351.41C697.59,-348.31 720.44,-345.03 742.03,-341.93"/>
<polygon fill="none" stroke="black" points="742.3,-345.42 751.7,-340.54 741.3,-338.49 742.3,-345.42"/>
</g>
<!-- fct_email_campaign_user_engagement -->
<g id="node4" class="node">
<title>fct_email_campaign_user_engagement</title>
<polygon fill="#b3e2cd" stroke="black" stroke-width="2" points="1222.5,-253.67 992.75,-253.67 992.75,-217.67 1222.5,-217.67 1222.5,-253.67"/>
<text xml:space="preserve" text-anchor="middle" x="1107.62" y="-230.62" font-family="Times,serif" font-size="14.00">fct_email_campaign_user_engagement</text>
</g>
<!-- dim_user_360_user_accounts&#45;&gt;fct_email_campaign_user_engagement -->
<g id="edge5" class="edge">
<title>dim_user_360_user_accounts&#45;&gt;fct_email_campaign_user_engagement</title>
<path fill="none" stroke="black" d="M913.24,-309.2C927.71,-305.02 942.79,-300.42 956.75,-295.67 961.61,-294.02 1009.93,-274.63 1050.42,-258.33"/>
<polygon fill="none" stroke="black" points="1051.67,-261.6 1059.64,-254.62 1049.06,-255.11 1051.67,-261.6"/>
</g>
<!-- rpt_user_email_campaign_results -->
<g id="node5" class="node">
<title>rpt_user_email_campaign_results</title>
<polygon fill="seashell" stroke="black" stroke-width="2" points="1207.5,-326.67 1007.75,-326.67 1007.75,-290.67 1207.5,-290.67 1207.5,-326.67"/>
<text xml:space="preserve" text-anchor="middle" x="1107.62" y="-303.62" font-family="Times,serif" font-size="14.00">rpt_user_email_campaign_results</text>
</g>
<!-- dim_user_360_user_accounts&#45;&gt;rpt_user_email_campaign_results -->
<g id="edge6" class="edge">
<title>dim_user_360_user_accounts&#45;&gt;rpt_user_email_campaign_results</title>
<path fill="none" stroke="black" d="M931.32,-321.32C952.07,-319.82 974.46,-318.21 996.07,-316.65"/>
<polygon fill="none" stroke="black" points="996.05,-320.16 1005.77,-315.95 995.55,-313.18 996.05,-320.16"/>
</g>
<!-- rpt_email_campaign_impact -->
<g id="node6" class="node">
<title>rpt_email_campaign_impact</title>
<polygon fill="seashell" stroke="black" stroke-width="2" points="1194,-199.67 1021.25,-199.67 1021.25,-163.67 1194,-163.67 1194,-199.67"/>
<text xml:space="preserve" text-anchor="middle" x="1107.62" y="-176.62" font-family="Times,serif" font-size="14.00">rpt_email_campaign_impact</text>
</g>
<!-- dim_user_360_user_accounts&#45;&gt;rpt_email_campaign_impact -->
<g id="edge7" class="edge">
<title>dim_user_360_user_accounts&#45;&gt;rpt_email_campaign_impact</title>
<path fill="none" stroke="black" d="M885.7,-309.25C908.46,-298 936.01,-282.05 956.75,-262.67 977.83,-242.98 969.07,-225.14 992.75,-208.67 998.2,-204.88 1004.11,-201.62 1010.28,-198.81"/>
<polygon fill="none" stroke="black" points="1011.53,-202.08 1019.47,-195.07 1008.89,-195.6 1011.53,-202.08"/>
</g>
<!-- dim_user_360_engagement -->
<g id="node3" class="node">
<title>dim_user_360_engagement</title>
<polygon fill="#cbd5e8" stroke="black" stroke-width="2" points="925.62,-253.67 758.88,-253.67 758.88,-217.67 925.62,-217.67 925.62,-253.67"/>
<text xml:space="preserve" text-anchor="middle" x="842.25" y="-230.62" font-family="Times,serif" font-size="14.00">dim_user_360_engagement</text>
</g>
<!-- dim_user_360_engagement&#45;&gt;fct_email_campaign_user_engagement -->
<g id="edge2" class="edge">
<title>dim_user_360_engagement&#45;&gt;fct_email_campaign_user_engagement</title>
<path fill="none" stroke="black" d="M925.86,-235.67C943.43,-235.67 962.37,-235.67 981.13,-235.67"/>
<polygon fill="none" stroke="black" points="980.95,-239.17 990.95,-235.67 980.95,-232.17 980.95,-239.17"/>
</g>
<!-- dim_user_360_engagement&#45;&gt;rpt_user_email_campaign_results -->
<g id="edge3" class="edge">
<title>dim_user_360_engagement&#45;&gt;rpt_user_email_campaign_results</title>
<path fill="none" stroke="black" d="M909.71,-254.09C946.05,-264.16 991.25,-276.69 1029.18,-287.21"/>
<polygon fill="none" stroke="black" points="1028.16,-290.55 1038.73,-289.85 1030.03,-283.81 1028.16,-290.55"/>
</g>
<!-- dim_user_360_engagement&#45;&gt;rpt_email_campaign_impact -->
<g id="edge4" class="edge">
<title>dim_user_360_engagement&#45;&gt;rpt_email_campaign_impact</title>
<path fill="none" stroke="black" d="M925.86,-218.73C952.51,-213.27 982.29,-207.16 1009.87,-201.51"/>
<polygon fill="none" stroke="black" points="1010.55,-204.94 1019.64,-199.5 1009.15,-198.08 1010.55,-204.94"/>
</g>
<!-- email_campaign_onboarding_complete -->
<g id="node7" class="node">
<title>email_campaign_onboarding_complete</title>
<polygon fill="none" stroke="black" points="691.75,-491.67 459.75,-491.67 459.75,-455.67 691.75,-455.67 691.75,-491.67"/>
<text xml:space="preserve" text-anchor="middle" x="575.75" y="-468.62" font-family="Times,serif" font-size="14.00">email_campaign_onboarding_complete</text>
</g>
<!-- stg_campaigns__onboarding_complete -->
<g id="node8" class="node">
<title>stg_campaigns__onboarding_complete</title>
<polygon fill="#fff2ae" stroke="black" stroke-width="2" points="956.75,-399.67 727.75,-399.67 727.75,-363.67 956.75,-363.67 956.75,-399.67"/>
<text xml:space="preserve" text-anchor="middle" x="842.25" y="-376.62" font-family="Times,serif" font-size="14.00">stg_campaigns__onboarding_complete</text>
</g>
<!-- email_campaign_onboarding_complete&#45;&gt;stg_campaigns__onboarding_complete -->
<g id="edge8" class="edge">
<title>email_campaign_onboarding_complete&#45;&gt;stg_campaigns__onboarding_complete</title>
<path fill="none" stroke="black" d="M662.94,-455.22C672.73,-452.6 682.5,-449.74 691.75,-446.67 726.68,-435.08 764.7,-418.5 793.65,-404.98"/>
<polygon fill="none" stroke="black" points="794.97,-408.23 802.52,-400.8 791.98,-401.9 794.97,-408.23"/>
</g>
<!-- stg_campaigns__onboarding_complete&#45;&gt;fct_email_campaign_user_engagement -->
<g id="edge26" class="edge">
<title>stg_campaigns__onboarding_complete&#45;&gt;fct_email_campaign_user_engagement</title>
<path fill="none" stroke="black" d="M943.77,-363.25C948.35,-360.74 952.71,-357.89 956.75,-354.67 985.04,-332.12 966.24,-306.28 992.75,-281.67 1002.86,-272.28 1015.13,-264.7 1027.83,-258.62"/>
<polygon fill="none" stroke="black" points="1028.99,-261.94 1036.69,-254.67 1026.13,-255.54 1028.99,-261.94"/>
</g>
<!-- stg_campaigns__onboarding_complete&#45;&gt;rpt_user_email_campaign_results -->
<g id="edge27" class="edge">
<title>stg_campaigns__onboarding_complete&#45;&gt;rpt_user_email_campaign_results</title>
<path fill="none" stroke="black" d="M923.71,-363.21C934.84,-360.46 946.1,-357.57 956.75,-354.67 983.75,-347.32 1013.24,-338.46 1038.86,-330.48"/>
<polygon fill="none" stroke="black" points="1039.64,-333.9 1048.14,-327.57 1037.55,-327.22 1039.64,-333.9"/>
</g>
<!-- stg_app__users -->
<g id="node9" class="node">
<title>stg_app__users</title>
<polygon fill="#fff2ae" stroke="black" stroke-width="2" points="246.88,-299.67 147.62,-299.67 147.62,-263.67 246.88,-263.67 246.88,-299.67"/>
<text xml:space="preserve" text-anchor="middle" x="197.25" y="-276.62" font-family="Times,serif" font-size="14.00">stg_app__users</text>
</g>
<!-- dim_app_users -->
<g id="node10" class="node">
<title>dim_app_users</title>
<polygon fill="#cbd5e8" stroke="black" stroke-width="2" points="408.38,-299.67 309.88,-299.67 309.88,-263.67 408.38,-263.67 408.38,-299.67"/>
<text xml:space="preserve" text-anchor="middle" x="359.12" y="-276.62" font-family="Times,serif" font-size="14.00">dim_app_users</text>
</g>
<!-- stg_app__users&#45;&gt;dim_app_users -->
<g id="edge9" class="edge">
<title>stg_app__users&#45;&gt;dim_app_users</title>
<path fill="none" stroke="black" d="M247.09,-281.67C263.2,-281.67 281.32,-281.67 298.17,-281.67"/>
<polygon fill="none" stroke="black" points="298.07,-285.17 308.07,-281.67 298.07,-278.17 298.07,-285.17"/>
</g>
<!-- dim_app_users&#45;&gt;dim_user_360_event_users_latest -->
<g id="edge31" class="edge">
<title>dim_app_users&#45;&gt;dim_user_360_event_users_latest</title>
<path fill="none" stroke="black" d="M407.23,-300.11C439.66,-312.8 482.93,-329.74 517.38,-343.22"/>
<polygon fill="none" stroke="black" points="515.76,-346.34 526.35,-346.73 518.31,-339.82 515.76,-346.34"/>
</g>
<!-- dim_app_users&#45;&gt;dim_user_360_user_accounts -->
<g id="edge33" class="edge">
<title>dim_app_users&#45;&gt;dim_user_360_user_accounts</title>
<path fill="none" stroke="black" d="M576.75,-281.67C639.71,-281.67 709.88,-294.48 762.11,-306.58"/>
<polygon fill="none" stroke="black" points="761.3,-309.98 771.84,-308.88 762.91,-303.17 761.3,-309.98"/>
</g>
<!-- dim_app_users&#45;&gt;dim_user_360_engagement -->
<g id="edge32" class="edge">
<title>dim_app_users&#45;&gt;dim_user_360_engagement</title>
<path fill="none" stroke="black" d="M408.71,-281.67C452.21,-281.67 517.74,-281.67 574.75,-281.67"/>
<path fill="none" stroke="black" d="M576.75,-281.67C639.71,-281.67 709.88,-268.86 762.11,-256.76"/>
<polygon fill="none" stroke="black" points="762.91,-260.17 771.84,-254.46 761.3,-253.36 762.91,-260.17"/>
</g>
<!-- dim_app_users&#45;&gt;fct_email_campaign_user_engagement -->
<g id="edge34" class="edge">
<title>dim_app_users&#45;&gt;fct_email_campaign_user_engagement</title>
<path fill="none" stroke="black" d="M576.75,-281.67C745.85,-281.67 788.75,-281.92 956.75,-262.67 971.97,-260.93 987.97,-258.59 1003.63,-256.02"/>
<polygon fill="none" stroke="black" points="1004.19,-259.47 1013.47,-254.36 1003.02,-252.57 1004.19,-259.47"/>
</g>
<!-- dim_app_users&#45;&gt;rpt_email_campaign_impact -->
<g id="edge35" class="edge">
<title>dim_app_users&#45;&gt;rpt_email_campaign_impact</title>
<path fill="none" stroke="black" d="M843.25,-43.67C893.84,-51.16 910.02,-41.89 956.75,-62.67 1006.55,-84.82 1054.06,-127.44 1081.77,-155.21"/>
<polygon fill="none" stroke="black" points="1079.16,-157.54 1088.66,-162.23 1084.16,-152.64 1079.16,-157.54"/>
<path fill="none" stroke="black" d="M408.87,-267.2C414.51,-263.84 419.69,-259.72 423.75,-254.67 478.17,-187.02 394.34,-119.76 459.75,-62.67 587.65,48.96 673.32,-18.8 841.25,-43.67"/>
</g>
<!-- stg_app__accounts -->
<g id="node11" class="node">
<title>stg_app__accounts</title>
<polygon fill="#fff2ae" stroke="black" stroke-width="2" points="256.62,-245.67 137.88,-245.67 137.88,-209.67 256.62,-209.67 256.62,-245.67"/>
<text xml:space="preserve" text-anchor="middle" x="197.25" y="-222.62" font-family="Times,serif" font-size="14.00">stg_app__accounts</text>
</g>
<!-- stg_app__accounts&#45;&gt;dim_app_users -->
<g id="edge11" class="edge">
<title>stg_app__accounts&#45;&gt;dim_app_users</title>
<path fill="none" stroke="black" d="M252.82,-246.1C267.6,-251.09 283.67,-256.52 298.69,-261.6"/>
<polygon fill="none" stroke="black" points="297.39,-264.85 307.99,-264.74 299.63,-258.22 297.39,-264.85"/>
</g>
<!-- fct_app_engagement -->
<g id="node12" class="node">
<title>fct_app_engagement</title>
<polygon fill="#b3e2cd" stroke="black" stroke-width="2" stroke-dasharray="5,2" points="423.75,-245.67 294.5,-245.67 294.5,-209.67 423.75,-209.67 423.75,-245.67"/>
<text xml:space="preserve" text-anchor="middle" x="359.12" y="-222.62" font-family="Times,serif" font-size="14.00">fct_app_engagement</text>
</g>
<!-- stg_app__accounts&#45;&gt;fct_app_engagement -->
<g id="edge10" class="edge">
<title>stg_app__accounts&#45;&gt;fct_app_engagement</title>
<path fill="none" stroke="black" d="M256.87,-227.67C265.3,-227.67 274.07,-227.67 282.76,-227.67"/>
<polygon fill="none" stroke="black" points="282.61,-231.17 292.61,-227.67 282.61,-224.17 282.61,-231.17"/>
</g>
<!-- fct_app_engagement&#45;&gt;dim_user_360_engagement -->
<g id="edge20" class="edge">
<title>fct_app_engagement&#45;&gt;dim_user_360_engagement</title>
<path fill="none" stroke="black" d="M424.01,-228.73C506.79,-230.11 651.77,-232.52 747.15,-234.11"/>
<polygon fill="none" stroke="black" points="746.96,-237.6 757.02,-234.27 747.08,-230.6 746.96,-237.6"/>
</g>
<!-- email_campaign_onboarding_skipped -->
<g id="node13" class="node">
<title>email_campaign_onboarding_skipped</title>
<polygon fill="none" stroke="black" points="687.62,-215.67 463.88,-215.67 463.88,-179.67 687.62,-179.67 687.62,-215.67"/>
<text xml:space="preserve" text-anchor="middle" x="575.75" y="-192.62" font-family="Times,serif" font-size="14.00">email_campaign_onboarding_skipped</text>
</g>
<!-- stg_campaigns__onboarding_skipped -->
<g id="node14" class="node">
<title>stg_campaigns__onboarding_skipped</title>
<polygon fill="#fff2ae" stroke="black" stroke-width="2" points="952.62,-199.67 731.88,-199.67 731.88,-163.67 952.62,-163.67 952.62,-199.67"/>
<text xml:space="preserve" text-anchor="middle" x="842.25" y="-176.62" font-family="Times,serif" font-size="14.00">stg_campaigns__onboarding_skipped</text>
</g>
<!-- email_campaign_onboarding_skipped&#45;&gt;stg_campaigns__onboarding_skipped -->
<g id="edge12" class="edge">
<title>email_campaign_onboarding_skipped&#45;&gt;stg_campaigns__onboarding_skipped</title>
<path fill="none" stroke="black" d="M687.77,-190.96C698.58,-190.3 709.58,-189.64 720.48,-188.98"/>
<polygon fill="none" stroke="black" points="720.5,-192.48 730.27,-188.38 720.08,-185.49 720.5,-192.48"/>
</g>
<!-- stg_campaigns__onboarding_skipped&#45;&gt;fct_email_campaign_user_engagement -->
<g id="edge14" class="edge">
<title>stg_campaigns__onboarding_skipped&#45;&gt;fct_email_campaign_user_engagement</title>
<path fill="none" stroke="black" d="M933.15,-200.1C956.44,-204.88 981.67,-210.05 1005.48,-214.93"/>
<polygon fill="none" stroke="black" points="1004.7,-218.35 1015.2,-216.93 1006.11,-211.49 1004.7,-218.35"/>
</g>
<!-- stg_campaigns__onboarding_skipped&#45;&gt;rpt_user_email_campaign_results -->
<g id="edge15" class="edge">
<title>stg_campaigns__onboarding_skipped&#45;&gt;rpt_user_email_campaign_results</title>
<path fill="none" stroke="black" d="M941.9,-200.06C947.1,-202.58 952.1,-205.43 956.75,-208.67 980.42,-225.15 970.38,-244.46 992.75,-262.67 1004.15,-271.95 1017.66,-279.57 1031.33,-285.75"/>
<polygon fill="none" stroke="black" points="1029.81,-288.9 1040.38,-289.6 1032.55,-282.46 1029.81,-288.9"/>
</g>
<!-- stg_campaigns__onboarding_skipped&#45;&gt;rpt_email_campaign_impact -->
<g id="edge16" class="edge">
<title>stg_campaigns__onboarding_skipped&#45;&gt;rpt_email_campaign_impact</title>
<path fill="none" stroke="black" d="M953.04,-181.67C971.86,-181.67 991.29,-181.67 1009.74,-181.67"/>
<polygon fill="none" stroke="black" points="1009.57,-185.17 1019.57,-181.67 1009.57,-178.17 1009.57,-185.17"/>
</g>
<!-- fct_app_activity_walk -->
<g id="node15" class="node">
<title>fct_app_activity_walk</title>
<polygon fill="#b3e2cd" stroke="black" stroke-width="2" stroke-dasharray="5,2" points="644.12,-437.67 507.38,-437.67 507.38,-401.67 644.12,-401.67 644.12,-437.67"/>
<text xml:space="preserve" text-anchor="middle" x="575.75" y="-414.62" font-family="Times,serif" font-size="14.00">fct_app_activity_walk</text>
</g>
<!-- fct_app_activity_walk&#45;&gt;dim_user_360_user_accounts -->
<g id="edge13" class="edge">
<title>fct_app_activity_walk&#45;&gt;dim_user_360_user_accounts</title>
<path fill="none" stroke="black" d="M644.61,-410.6C660.75,-406.62 677.44,-400.9 691.75,-392.67 711.92,-381.08 707.6,-366.29 727.75,-354.67 732.44,-351.97 737.38,-349.54 742.48,-347.35"/>
<polygon fill="none" stroke="black" points="743.68,-350.64 751.72,-343.73 741.13,-344.12 743.68,-350.64"/>
</g>
<!-- stg_app__plans -->
<g id="node16" class="node">
<title>stg_app__plans</title>
<polygon fill="#fff2ae" stroke="black" stroke-width="2" points="100,-212.67 0,-212.67 0,-176.67 100,-176.67 100,-212.67"/>
<text xml:space="preserve" text-anchor="middle" x="50" y="-189.62" font-family="Times,serif" font-size="14.00">stg_app__plans</text>
</g>
<!-- stg_app__plans&#45;&gt;stg_app__accounts -->
<g id="edge17" class="edge">
<title>stg_app__plans&#45;&gt;stg_app__accounts</title>
<path fill="none" stroke="black" d="M100.18,-205.84C108.62,-207.76 117.55,-209.79 126.41,-211.81"/>
<polygon fill="none" stroke="black" points="125.57,-215.2 136.1,-214.01 127.12,-208.38 125.57,-215.2"/>
</g>
<!-- fct_app_plans -->
<g id="node17" class="node">
<title>fct_app_plans</title>
<polygon fill="#b3e2cd" stroke="black" stroke-width="2" stroke-dasharray="5,2" points="621.62,-161.67 529.88,-161.67 529.88,-125.67 621.62,-125.67 621.62,-161.67"/>
<text xml:space="preserve" text-anchor="middle" x="575.75" y="-138.62" font-family="Times,serif" font-size="14.00">fct_app_plans</text>
</g>
<!-- stg_app__plans&#45;&gt;fct_app_plans -->
<g id="edge18" class="edge">
<title>stg_app__plans&#45;&gt;fct_app_plans</title>
<path fill="none" stroke="black" d="M100.27,-189.87C197.86,-180.37 415.19,-159.21 518.33,-149.17"/>
<polygon fill="none" stroke="black" points="518.61,-152.65 528.22,-148.2 517.93,-145.69 518.61,-152.65"/>
</g>
<!-- fct_app_plans&#45;&gt;dim_user_360_user_accounts -->
<g id="edge28" class="edge">
<title>fct_app_plans&#45;&gt;dim_user_360_user_accounts</title>
<path fill="none" stroke="black" d="M621.9,-144.55C645.18,-147.21 672.61,-154.08 691.75,-170.67 724.93,-199.43 699.07,-229.43 727.75,-262.67 742.72,-280.02 763.52,-293.79 783.23,-304.11"/>
<polygon fill="none" stroke="black" points="781.54,-307.18 792.05,-308.52 784.67,-300.92 781.54,-307.18"/>
</g>
<!-- fct_app_plans&#45;&gt;fct_email_campaign_user_engagement -->
<g id="edge29" class="edge">
<title>fct_app_plans&#45;&gt;fct_email_campaign_user_engagement</title>
<path fill="none" stroke="black" d="M621.94,-139.91C709.93,-133.4 900.53,-123.53 956.75,-154.67 981.98,-168.65 969.07,-192.2 992.75,-208.67 994.36,-209.79 996,-210.86 997.68,-211.89"/>
<polygon fill="none" stroke="black" points="995.86,-214.88 1006.32,-216.58 999.2,-208.73 995.86,-214.88"/>
</g>
<!-- fct_app_plans&#45;&gt;rpt_email_campaign_impact -->
<g id="edge30" class="edge">
<title>fct_app_plans&#45;&gt;rpt_email_campaign_impact</title>
<path fill="none" stroke="black" d="M621.95,-140.87C644.56,-137.63 671.36,-130.82 691.75,-116.67 715.45,-100.23 703.53,-78.34 727.75,-62.67 770.69,-34.88 790.66,-36.18 841.25,-43.67"/>
</g>
<!-- email_campaign_onboarding_pending -->
<g id="node18" class="node">
<title>email_campaign_onboarding_pending</title>
<polygon fill="none" stroke="black" points="688.38,-107.67 463.12,-107.67 463.12,-71.67 688.38,-71.67 688.38,-107.67"/>
<text xml:space="preserve" text-anchor="middle" x="575.75" y="-84.62" font-family="Times,serif" font-size="14.00">email_campaign_onboarding_pending</text>
</g>
<!-- stg_campaigns__onboarding_pending -->
<g id="node19" class="node">
<title>stg_campaigns__onboarding_pending</title>
<polygon fill="#fff2ae" stroke="black" stroke-width="2" points="953.38,-107.67 731.12,-107.67 731.12,-71.67 953.38,-71.67 953.38,-107.67"/>
<text xml:space="preserve" text-anchor="middle" x="842.25" y="-84.62" font-family="Times,serif" font-size="14.00">stg_campaigns__onboarding_pending</text>
</g>
<!-- email_campaign_onboarding_pending&#45;&gt;stg_campaigns__onboarding_pending -->
<g id="edge19" class="edge">
<title>email_campaign_onboarding_pending&#45;&gt;stg_campaigns__onboarding_pending</title>
<path fill="none" stroke="black" d="M688.54,-89.67C698.68,-89.67 708.99,-89.67 719.21,-89.67"/>
<polygon fill="none" stroke="black" points="719.19,-93.17 729.19,-89.67 719.19,-86.17 719.19,-93.17"/>
</g>
<!-- stg_campaigns__onboarding_pending&#45;&gt;fct_email_campaign_user_engagement -->
<g id="edge23" class="edge">
<title>stg_campaigns__onboarding_pending&#45;&gt;fct_email_campaign_user_engagement</title>
<path fill="none" stroke="black" d="M936.51,-108.09C943.82,-111.82 950.71,-116.3 956.75,-121.67 988.03,-149.47 960.9,-181.53 992.75,-208.67 993.7,-209.48 994.66,-210.26 995.65,-211.02"/>
<polygon fill="none" stroke="black" points="993.47,-213.77 1003.72,-216.44 997.37,-207.96 993.47,-213.77"/>
</g>
<!-- stg_campaigns__onboarding_pending&#45;&gt;rpt_email_campaign_impact -->
<g id="edge24" class="edge">
<title>stg_campaigns__onboarding_pending&#45;&gt;rpt_email_campaign_impact</title>
<path fill="none" stroke="black" d="M913.24,-108.15C927.71,-112.32 942.79,-116.93 956.75,-121.67 989.34,-132.75 1025.15,-147.01 1053.6,-158.85"/>
<polygon fill="none" stroke="black" points="1052.14,-162.03 1062.72,-162.67 1054.85,-155.58 1052.14,-162.03"/>
</g>
<!-- fct_app_actions -->
<g id="node20" class="node">
<title>fct_app_actions</title>
<polygon fill="#b3e2cd" stroke="black" stroke-width="2" points="409.88,-368.67 308.38,-368.67 308.38,-332.67 409.88,-332.67 409.88,-368.67"/>
<text xml:space="preserve" text-anchor="middle" x="359.12" y="-345.62" font-family="Times,serif" font-size="14.00">fct_app_actions</text>
</g>
<!-- fct_app_actions&#45;&gt;dim_user_360_event_users_latest -->
<g id="edge21" class="edge">
<title>fct_app_actions&#45;&gt;dim_user_360_event_users_latest</title>
<path fill="none" stroke="black" d="M410.17,-354.17C426.46,-355.31 445.23,-356.62 464.14,-357.94"/>
<polygon fill="none" stroke="black" points="463.86,-361.43 474.08,-358.64 464.34,-354.45 463.86,-361.43"/>
</g>
<!-- fct_app_actions&#45;&gt;dim_user_360_engagement -->
<g id="edge22" class="edge">
<title>fct_app_actions&#45;&gt;dim_user_360_engagement</title>
<path fill="none" stroke="black" d="M410.18,-343.73C489.32,-332.53 639.7,-310.25 691.75,-295.67 726.05,-286.07 763.22,-271.17 791.92,-258.62"/>
<polygon fill="none" stroke="black" points="792.98,-261.98 800.71,-254.73 790.15,-255.58 792.98,-261.98"/>
</g>
<!-- stg_app__members -->
<g id="node21" class="node">
<title>stg_app__members</title>
<polygon fill="#fff2ae" stroke="black" stroke-width="2" points="258.5,-353.67 136,-353.67 136,-317.67 258.5,-317.67 258.5,-353.67"/>
<text xml:space="preserve" text-anchor="middle" x="197.25" y="-330.62" font-family="Times,serif" font-size="14.00">stg_app__members</text>
</g>
<!-- stg_app__members&#45;&gt;dim_app_users -->
<g id="edge25" class="edge">
<title>stg_app__members&#45;&gt;dim_app_users</title>
<path fill="none" stroke="black" d="M252.82,-317.24C267.6,-312.25 283.67,-306.82 298.69,-301.74"/>
<polygon fill="none" stroke="black" points="299.63,-305.12 307.99,-298.61 297.39,-298.49 299.63,-305.12"/>
</g>
</g>
</svg>
