<?xml version="1.0" encoding="UTF-8" standalone="no"?>
<!DOCTYPE svg PUBLIC "-//W3C//DTD SVG 1.1//EN"
 "http://www.w3.org/Graphics/SVG/1.1/DTD/svg11.dtd">
<!-- Generated by graphviz version 14.1.2 (20260124.0452)
 -->
<!-- Pages: 1 -->
<svg width="1741pt" height="557pt"
 viewBox="0.00 0.00 1741.00 557.00" xmlns="http://www.w3.org/2000/svg" xmlns:xlink="http://www.w3.org/1999/xlink">
<g id="graph0" class="graph" transform="scale(1 1) rotate(0) translate(4 552.76)">
<polygon fill="white" stroke="none" points="-4,4 -4,-552.76 1737,-552.76 1737,4 -4,4"/>
<text xml:space="preserve" text-anchor="start" x="8" y="-23.7" font-family="Times,serif" font-size="14.00">mkt1_macro_view</text>
<text xml:space="preserve" text-anchor="start" x="8" y="-7.2" font-family="Times,serif" font-size="14.00"> </text>
<!-- int_app__actions_daily -->
<g id="node1" class="node">
<title>int_app__actions_daily</title>
<polygon fill="#fdcdac" stroke="black" stroke-width="2" stroke-dasharray="5,2" points="744.62,-151 602.62,-151 602.62,-115 744.62,-115 744.62,-151"/>
<text xml:space="preserve" text-anchor="middle" x="673.62" y="-127.95" font-family="Times,serif" font-size="14.00">int_app__actions_daily</text>
</g>
<!-- fct_app_actions -->
<g id="node2" class="node">
<title>fct_app_actions</title>
<polygon fill="#b3e2cd" stroke="black" stroke-width="2" points="912.5,-240 811,-240 811,-204 912.5,-204 912.5,-240"/>
<text xml:space="preserve" text-anchor="middle" x="861.75" y="-216.95" font-family="Times,serif" font-size="14.00">fct_app_actions</text>
</g>
<!-- int_app__actions_daily&#45;&gt;fct_app_actions -->
<g id="edge1" class="edge">
<title>int_app__actions_daily&#45;&gt;fct_app_actions</title>
<path fill="none" stroke="black" d="M721.94,-151.35C732.34,-155.64 743.24,-160.32 753.25,-165 775.09,-175.2 798.82,-187.63 818.41,-198.28"/>
<polygon fill="none" stroke="black" points="816.47,-201.21 826.92,-202.94 819.83,-195.07 816.47,-201.21"/>
</g>
<!-- int_app__actions_full -->
<g id="node3" class="node">
<title>int_app__actions_full</title>
<polygon fill="#fdcdac" stroke="black" stroke-width="2" points="928.62,-148 794.88,-148 794.88,-112 928.62,-112 928.62,-148"/>
<text xml:space="preserve" text-anchor="middle" x="861.75" y="-124.95" font-family="Times,serif" font-size="14.00">int_app__actions_full</text>
</g>
<!-- int_app__actions_daily&#45;&gt;int_app__actions_full -->
<g id="edge2" class="edge">
<title>int_app__actions_daily&#45;&gt;int_app__actions_full</title>
<path fill="none" stroke="black" d="M744.99,-131.87C757.44,-131.67 770.47,-131.46 783.11,-131.25"/>
<polygon fill="none" stroke="black" points="783.13,-134.75 793.07,-131.09 783.02,-127.75 783.13,-134.75"/>
</g>
<!-- dim_user_360_engagement -->
<g id="node16" class="node">
<title>dim_user_360_engagement</title>
<polygon fill="#cbd5e8" stroke="black" stroke-width="2" points="1436.12,-277 1269.38,-277 1269.38,-241 1436.12,-241 1436.12,-277"/>
<text xml:space="preserve" text-anchor="middle" x="1352.75" y="-253.95" font-family="Times,serif" font-size="14.00">dim_user_360_engagement</text>
</g>
<!-- fct_app_actions&#45;&gt;dim_user_360_engagement -->
<g id="edge36" class="edge">
<title>fct_app_actions&#45;&gt;dim_user_360_engagement</title>
<path fill="none" stroke="black" d="M1087.25,-213C1119.84,-213.19 1195.76,-226.9 1257.94,-239.31"/>
<polygon fill="none" stroke="black" points="1257.01,-242.69 1267.5,-241.22 1258.38,-235.82 1257.01,-242.69"/>
<path fill="none" stroke="black" d="M912.66,-218.66C957.73,-215.95 1025.91,-212.65 1085.25,-213"/>
</g>
<!-- dim_user_360_event_users_latest -->
<g id="node17" class="node">
<title>dim_user_360_event_users_latest</title>
<polygon fill="#cbd5e8" stroke="black" stroke-width="2" points="1186.12,-277 986.38,-277 986.38,-241 1186.12,-241 1186.12,-277"/>
<text xml:space="preserve" text-anchor="middle" x="1086.25" y="-253.95" font-family="Times,serif" font-size="14.00">dim_user_360_event_users_latest</text>
</g>
<!-- fct_app_actions&#45;&gt;dim_user_360_event_users_latest -->
<g id="edge37" class="edge">
<title>fct_app_actions&#45;&gt;dim_user_360_event_users_latest</title>
<path fill="none" stroke="black" d="M912.96,-230.35C931.41,-233.42 953.09,-237.02 974.75,-240.62"/>
<polygon fill="none" stroke="black" points="974.11,-244.07 984.55,-242.25 975.26,-237.16 974.11,-244.07"/>
</g>
<!-- fct_app_engagement -->
<g id="node20" class="node">
<title>fct_app_engagement</title>
<polygon fill="#b3e2cd" stroke="black" stroke-width="2" stroke-dasharray="5,2" points="1150.88,-185 1021.62,-185 1021.62,-149 1150.88,-149 1150.88,-185"/>
<text xml:space="preserve" text-anchor="middle" x="1086.25" y="-161.95" font-family="Times,serif" font-size="14.00">fct_app_engagement</text>
</g>
<!-- int_app__actions_full&#45;&gt;fct_app_engagement -->
<g id="edge51" class="edge">
<title>int_app__actions_full&#45;&gt;fct_app_engagement</title>
<path fill="none" stroke="black" d="M928.9,-141C954.46,-145.25 983.84,-150.14 1010.18,-154.52"/>
<polygon fill="none" stroke="black" points="1009.33,-157.92 1019.77,-156.11 1010.48,-151.02 1009.33,-157.92"/>
</g>
<!-- stg_campaigns__onboarding_skipped -->
<g id="node4" class="node">
<title>stg_campaigns__onboarding_skipped</title>
<polygon fill="#fff2ae" stroke="black" stroke-width="2" points="1463.12,-223 1242.38,-223 1242.38,-187 1463.12,-187 1463.12,-223"/>
<text xml:space="preserve" text-anchor="middle" x="1352.75" y="-199.95" font-family="Times,serif" font-size="14.00">stg_campaigns__onboarding_skipped</text>
</g>
<!-- rpt_email_campaign_impact -->
<g id="node5" class="node">
<title>rpt_email_campaign_impact</title>
<polygon fill="seashell" stroke="black" stroke-width="2" points="1704.5,-415 1531.75,-415 1531.75,-379 1704.5,-379 1704.5,-415"/>
<text xml:space="preserve" text-anchor="middle" x="1618.12" y="-391.95" font-family="Times,serif" font-size="14.00">rpt_email_campaign_impact</text>
</g>
<!-- stg_campaigns__onboarding_skipped&#45;&gt;rpt_email_campaign_impact -->
<g id="edge3" class="edge">
<title>stg_campaigns__onboarding_skipped&#45;&gt;rpt_email_campaign_impact</title>
<path fill="none" stroke="black" d="M1455.51,-223.35C1459.68,-225.89 1463.63,-228.76 1467.25,-232 1502.47,-263.48 1472.86,-295.84 1503.25,-332 1517.97,-349.51 1538.67,-363.29 1558.4,-373.57"/>
<polygon fill="none" stroke="black" points="1556.72,-376.64 1567.24,-377.95 1559.84,-370.37 1556.72,-376.64"/>
</g>
<!-- rpt_user_email_campaign_results -->
<g id="node6" class="node">
<title>rpt_user_email_campaign_results</title>
<polygon fill="seashell" stroke="black" stroke-width="2" points="1718,-246 1518.25,-246 1518.25,-210 1718,-210 1718,-246"/>
<text xml:space="preserve" text-anchor="middle" x="1618.12" y="-222.95" font-family="Times,serif" font-size="14.00">rpt_user_email_campaign_results</text>
</g>
<!-- stg_campaigns__onboarding_skipped&#45;&gt;rpt_user_email_campaign_results -->
<g id="edge4" class="edge">
<title>stg_campaigns__onboarding_skipped&#45;&gt;rpt_user_email_campaign_results</title>
<path fill="none" stroke="black" d="M1463.54,-214.59C1477.79,-215.83 1492.4,-217.11 1506.67,-218.35"/>
<polygon fill="none" stroke="black" points="1506.25,-221.83 1516.52,-219.21 1506.86,-214.86 1506.25,-221.83"/>
</g>
<!-- fct_email_campaign_user_engagement -->
<g id="node7" class="node">
<title>fct_email_campaign_user_engagement</title>
<polygon fill="#b3e2cd" stroke="black" stroke-width="2" points="1733,-323 1503.25,-323 1503.25,-287 1733,-287 1733,-323"/>
<text xml:space="preserve" text-anchor="middle" x="1618.12" y="-299.95" font-family="Times,serif" font-size="14.00">fct_email_campaign_user_engagement</text>
</g>
<!-- stg_campaigns__onboarding_skipped&#45;&gt;fct_email_campaign_user_engagement -->
<g id="edge5" class="edge">
<title>stg_campaigns__onboarding_skipped&#45;&gt;fct_email_campaign_user_engagement</title>
<path fill="none" stroke="black" d="M1443.87,-223.47C1451.89,-226 1459.79,-228.84 1467.25,-232 1484.73,-239.41 1486.51,-246.05 1503.25,-255 1521.4,-264.71 1541.82,-274.12 1560.31,-282.11"/>
<polygon fill="none" stroke="black" points="1558.68,-285.22 1569.25,-285.92 1561.42,-278.78 1558.68,-285.22"/>
</g>
<!-- fct_app_plans -->
<g id="node8" class="node">
<title>fct_app_plans</title>
<polygon fill="#b3e2cd" stroke="black" stroke-width="2" stroke-dasharray="5,2" points="1132.12,-423 1040.38,-423 1040.38,-387 1132.12,-387 1132.12,-423"/>
<text xml:space="preserve" text-anchor="middle" x="1086.25" y="-399.95" font-family="Times,serif" font-size="14.00">fct_app_plans</text>
</g>
<!-- fct_app_plans&#45;&gt;rpt_email_campaign_impact -->
<g id="edge7" class="edge">
<title>fct_app_plans&#45;&gt;rpt_email_campaign_impact</title>
<path fill="none" stroke="black" d="M1353.75,-397C1408.62,-391.45 1470.24,-391.13 1520.08,-392.34"/>
<polygon fill="none" stroke="black" points="1519.9,-395.84 1529.99,-392.61 1520.09,-388.84 1519.9,-395.84"/>
</g>
<!-- fct_app_plans&#45;&gt;fct_email_campaign_user_engagement -->
<g id="edge8" class="edge">
<title>fct_app_plans&#45;&gt;fct_email_campaign_user_engagement</title>
<path fill="none" stroke="black" d="M1353.75,-397C1404.64,-391.85 1418.53,-393.58 1467.25,-378 1505.72,-365.7 1546.78,-345.12 1576.18,-328.94"/>
<polygon fill="none" stroke="black" points="1577.72,-332.08 1584.75,-324.16 1574.31,-325.97 1577.72,-332.08"/>
<path fill="none" stroke="black" d="M1132.3,-405.57C1185.05,-405.79 1274.96,-404.77 1351.75,-397"/>
</g>
<!-- dim_user_360_user_accounts -->
<g id="node9" class="node">
<title>dim_user_360_user_accounts</title>
<polygon fill="#cbd5e8" stroke="black" stroke-width="2" points="1441.38,-369 1264.12,-369 1264.12,-333 1441.38,-333 1441.38,-369"/>
<text xml:space="preserve" text-anchor="middle" x="1352.75" y="-345.95" font-family="Times,serif" font-size="14.00">dim_user_360_user_accounts</text>
</g>
<!-- fct_app_plans&#45;&gt;dim_user_360_user_accounts -->
<g id="edge6" class="edge">
<title>fct_app_plans&#45;&gt;dim_user_360_user_accounts</title>
<path fill="none" stroke="black" d="M1132.42,-395.78C1165.33,-389.06 1211.19,-379.7 1252.47,-371.27"/>
<polygon fill="none" stroke="black" points="1253.12,-374.71 1262.22,-369.28 1251.72,-367.85 1253.12,-374.71"/>
</g>
<!-- dim_user_360_user_accounts&#45;&gt;rpt_email_campaign_impact -->
<g id="edge10" class="edge">
<title>dim_user_360_user_accounts&#45;&gt;rpt_email_campaign_impact</title>
<path fill="none" stroke="black" d="M1441.82,-366.38C1466.96,-370.77 1494.49,-375.58 1520.13,-380.06"/>
<polygon fill="none" stroke="black" points="1519.43,-383.49 1529.89,-381.76 1520.64,-376.59 1519.43,-383.49"/>
</g>
<!-- dim_user_360_user_accounts&#45;&gt;rpt_user_email_campaign_results -->
<g id="edge11" class="edge">
<title>dim_user_360_user_accounts&#45;&gt;rpt_user_email_campaign_results</title>
<path fill="none" stroke="black" d="M1390.41,-332.58C1420.56,-317.57 1464.46,-295.98 1503.25,-278 1522.84,-268.92 1544.49,-259.31 1563.62,-250.96"/>
<polygon fill="none" stroke="black" points="1564.79,-254.27 1572.56,-247.07 1562,-247.85 1564.79,-254.27"/>
</g>
<!-- dim_user_360_user_accounts&#45;&gt;fct_email_campaign_user_engagement -->
<g id="edge12" class="edge">
<title>dim_user_360_user_accounts&#45;&gt;fct_email_campaign_user_engagement</title>
<path fill="none" stroke="black" d="M1441.82,-335.62C1460.53,-332.35 1480.57,-328.85 1500.16,-325.43"/>
<polygon fill="none" stroke="black" points="1500.58,-328.91 1509.82,-323.74 1499.37,-322.01 1500.58,-328.91"/>
</g>
<!-- stg_app__members -->
<g id="node10" class="node">
<title>stg_app__members</title>
<polygon fill="#fff2ae" stroke="black" stroke-width="2" points="734.88,-313 612.38,-313 612.38,-277 734.88,-277 734.88,-313"/>
<text xml:space="preserve" text-anchor="middle" x="673.62" y="-289.95" font-family="Times,serif" font-size="14.00">stg_app__members</text>
</g>
<!-- dim_app_users -->
<g id="node11" class="node">
<title>dim_app_users</title>
<polygon fill="#cbd5e8" stroke="black" stroke-width="2" points="911,-294 812.5,-294 812.5,-258 911,-258 911,-294"/>
<text xml:space="preserve" text-anchor="middle" x="861.75" y="-270.95" font-family="Times,serif" font-size="14.00">dim_app_users</text>
</g>
<!-- stg_app__members&#45;&gt;dim_app_users -->
<g id="edge9" class="edge">
<title>stg_app__members&#45;&gt;dim_app_users</title>
<path fill="none" stroke="black" d="M735.31,-288.8C756.35,-286.66 779.9,-284.25 800.87,-282.11"/>
<polygon fill="none" stroke="black" points="801.12,-285.61 810.72,-281.11 800.41,-278.64 801.12,-285.61"/>
</g>
<!-- dim_app_users&#45;&gt;rpt_email_campaign_impact -->
<g id="edge21" class="edge">
<title>dim_app_users&#45;&gt;rpt_email_campaign_impact</title>
<path fill="none" stroke="black" d="M901.4,-294.46C913.57,-302.03 925.99,-311.9 934.25,-324 975.84,-384.91 912.72,-439.85 970.25,-486 1153.97,-633.38 1465.55,-482.92 1576.45,-420.99"/>
<polygon fill="none" stroke="black" points="1577.94,-424.17 1584.92,-416.2 1574.49,-418.07 1577.94,-424.17"/>
</g>
<!-- dim_app_users&#45;&gt;fct_email_campaign_user_engagement -->
<g id="edge23" class="edge">
<title>dim_app_users&#45;&gt;fct_email_campaign_user_engagement</title>
<path fill="none" stroke="black" d="M911.29,-282.96C956.31,-289.27 1025.22,-298.53 1085.25,-305"/>
<path fill="none" stroke="black" d="M1087.25,-305C1224.95,-319.83 1383.94,-317.22 1491.56,-312.55"/>
<polygon fill="none" stroke="black" points="1491.44,-316.06 1501.28,-312.11 1491.13,-309.06 1491.44,-316.06"/>
</g>
<!-- dim_app_users&#45;&gt;dim_user_360_user_accounts -->
<g id="edge20" class="edge">
<title>dim_app_users&#45;&gt;dim_user_360_user_accounts</title>
<path fill="none" stroke="black" d="M1087.25,-305C1142.29,-310.93 1203.19,-321.26 1252.66,-330.63"/>
<polygon fill="none" stroke="black" points="1251.72,-334.01 1262.2,-332.45 1253.04,-327.13 1251.72,-334.01"/>
</g>
<!-- dim_app_users&#45;&gt;dim_user_360_engagement -->
<g id="edge22" class="edge">
<title>dim_app_users&#45;&gt;dim_user_360_engagement</title>
<path fill="none" stroke="black" d="M911.42,-258.22C919.1,-255.24 926.92,-252.11 934.25,-249 950.54,-242.09 953.36,-237.27 970.25,-232 1019.7,-216.57 1033.45,-212.69 1085.25,-213"/>
</g>
<!-- dim_app_users&#45;&gt;dim_user_360_event_users_latest -->
<g id="edge24" class="edge">
<title>dim_app_users&#45;&gt;dim_user_360_event_users_latest</title>
<path fill="none" stroke="black" d="M911.3,-272.29C930.12,-270.85 952.48,-269.14 974.81,-267.44"/>
<polygon fill="none" stroke="black" points="974.89,-270.94 984.59,-266.69 974.35,-263.96 974.89,-270.94"/>
</g>
<!-- int_app__actions_intraday -->
<g id="node12" class="node">
<title>int_app__actions_intraday</title>
<polygon fill="#fdcdac" stroke="black" stroke-width="2" points="753.25,-97 594,-97 594,-61 753.25,-61 753.25,-97"/>
<text xml:space="preserve" text-anchor="middle" x="673.62" y="-73.95" font-family="Times,serif" font-size="14.00">int_app__actions_intraday</text>
</g>
<!-- int_app__actions_intraday&#45;&gt;int_app__actions_full -->
<g id="edge13" class="edge">
<title>int_app__actions_intraday&#45;&gt;int_app__actions_full</title>
<path fill="none" stroke="black" d="M742.08,-97.48C755.55,-101.17 769.78,-105.07 783.55,-108.85"/>
<polygon fill="none" stroke="black" points="782.43,-112.17 793,-111.43 784.28,-105.42 782.43,-112.17"/>
</g>
<!-- stg_app__actions_daily -->
<g id="node13" class="node">
<title>stg_app__actions_daily</title>
<polygon fill="#fff2ae" stroke="black" stroke-width="2" stroke-dasharray="5,2" points="546,-147 402.5,-147 402.5,-111 546,-111 546,-147"/>
<text xml:space="preserve" text-anchor="middle" x="474.25" y="-123.95" font-family="Times,serif" font-size="14.00">stg_app__actions_daily</text>
</g>
<!-- stg_app__actions_daily&#45;&gt;int_app__actions_daily -->
<g id="edge14" class="edge">
<title>stg_app__actions_daily&#45;&gt;int_app__actions_daily</title>
<path fill="none" stroke="black" d="M546.23,-130.44C560.76,-130.73 576.16,-131.05 591.03,-131.35"/>
<polygon fill="none" stroke="black" points="590.69,-134.84 600.76,-131.54 590.84,-127.84 590.69,-134.84"/>
</g>
<!-- stg_app__users -->
<g id="node14" class="node">
<title>stg_app__users</title>
<polygon fill="#fff2ae" stroke="black" stroke-width="2" points="723.25,-259 624,-259 624,-223 723.25,-223 723.25,-259"/>
<text xml:space="preserve" text-anchor="middle" x="673.62" y="-235.95" font-family="Times,serif" font-size="14.00">stg_app__users</text>
</g>
<!-- stg_app__users&#45;&gt;dim_app_users -->
<g id="edge15" class="edge">
<title>stg_app__users&#45;&gt;dim_app_users</title>
<path fill="none" stroke="black" d="M723.53,-250.2C747.25,-254.66 775.96,-260.06 800.97,-264.76"/>
<polygon fill="none" stroke="black" points="800.21,-268.18 810.69,-266.59 801.51,-261.3 800.21,-268.18"/>
</g>
<!-- membersDetails_raw_latest -->
<g id="node15" class="node">
<title>membersDetails_raw_latest</title>
<polygon fill="none" stroke="black" points="558,-313 390.5,-313 390.5,-277 558,-277 558,-313"/>
<text xml:space="preserve" text-anchor="middle" x="474.25" y="-289.95" font-family="Times,serif" font-size="14.00">membersDetails_raw_latest</text>
</g>
<!-- membersDetails_raw_latest&#45;&gt;stg_app__members -->
<g id="edge16" class="edge">
<title>membersDetails_raw_latest&#45;&gt;stg_app__members</title>
<path fill="none" stroke="black" d="M558.38,-295C572.46,-295 586.96,-295 600.72,-295"/>
<polygon fill="none" stroke="black" points="600.56,-298.5 610.56,-295 600.56,-291.5 600.56,-298.5"/>
</g>
<!-- dim_user_360_engagement&#45;&gt;rpt_email_campaign_impact -->
<g id="edge17" class="edge">
<title>dim_user_360_engagement&#45;&gt;rpt_email_campaign_impact</title>
<path fill="none" stroke="black" d="M1389,-277.47C1436.3,-302.26 1520.37,-346.3 1572.18,-373.45"/>
<polygon fill="none" stroke="black" points="1570.26,-376.4 1580.75,-377.94 1573.51,-370.2 1570.26,-376.4"/>
</g>
<!-- dim_user_360_engagement&#45;&gt;rpt_user_email_campaign_results -->
<g id="edge18" class="edge">
<title>dim_user_360_engagement&#45;&gt;rpt_user_email_campaign_results</title>
<path fill="none" stroke="black" d="M1436.36,-249.28C1458.76,-246.64 1483.37,-243.74 1507.03,-240.96"/>
<polygon fill="none" stroke="black" points="1507.16,-244.47 1516.68,-239.82 1506.34,-237.52 1507.16,-244.47"/>
</g>
<!-- dim_user_360_engagement&#45;&gt;fct_email_campaign_user_engagement -->
<g id="edge19" class="edge">
<title>dim_user_360_engagement&#45;&gt;fct_email_campaign_user_engagement</title>
<path fill="none" stroke="black" d="M1436.36,-273.43C1456.66,-276.97 1478.77,-280.84 1500.34,-284.6"/>
<polygon fill="none" stroke="black" points="1499.62,-288.03 1510.07,-286.3 1500.82,-281.13 1499.62,-288.03"/>
</g>
<!-- dim_user_360_event_users_latest&#45;&gt;dim_user_360_user_accounts -->
<g id="edge53" class="edge">
<title>dim_user_360_event_users_latest&#45;&gt;dim_user_360_user_accounts</title>
<path fill="none" stroke="black" d="M1158.48,-277.5C1173.05,-281.65 1188.22,-286.25 1202.25,-291 1234.78,-302.02 1270.51,-316.27 1298.87,-328.12"/>
<polygon fill="none" stroke="black" points="1297.39,-331.3 1307.97,-331.95 1300.11,-324.84 1297.39,-331.3"/>
</g>
<!-- bodyMeasurements_raw_latest -->
<g id="node18" class="node">
<title>bodyMeasurements_raw_latest</title>
<polygon fill="none" stroke="black" points="185.5,-359 0,-359 0,-323 185.5,-323 185.5,-359"/>
<text xml:space="preserve" text-anchor="middle" x="92.75" y="-335.95" font-family="Times,serif" font-size="14.00">bodyMeasurements_raw_latest</text>
</g>
<!-- stg_app__plans -->
<g id="node19" class="node">
<title>stg_app__plans</title>
<polygon fill="#fff2ae" stroke="black" stroke-width="2" points="338,-359 238,-359 238,-323 338,-323 338,-359"/>
<text xml:space="preserve" text-anchor="middle" x="288" y="-335.95" font-family="Times,serif" font-size="14.00">stg_app__plans</text>
</g>
<!-- bodyMeasurements_raw_latest&#45;&gt;stg_app__plans -->
<g id="edge25" class="edge">
<title>bodyMeasurements_raw_latest&#45;&gt;stg_app__plans</title>
<path fill="none" stroke="black" d="M185.85,-341C199.54,-341 213.36,-341 226.19,-341"/>
<polygon fill="none" stroke="black" points="226.16,-344.5 236.16,-341 226.16,-337.5 226.16,-344.5"/>
</g>
<!-- stg_app__plans&#45;&gt;fct_app_plans -->
<g id="edge43" class="edge">
<title>stg_app__plans&#45;&gt;fct_app_plans</title>
<path fill="none" stroke="black" d="M338.29,-347.99C398.5,-356.3 503.54,-370.04 594,-378 751.12,-391.83 937.17,-399.76 1028.66,-403.1"/>
<polygon fill="none" stroke="black" points="1028.51,-406.6 1038.63,-403.46 1028.76,-399.6 1028.51,-406.6"/>
</g>
<!-- stg_app__accounts -->
<g id="node22" class="node">
<title>stg_app__accounts</title>
<polygon fill="#fff2ae" stroke="black" stroke-width="2" points="533.62,-201 414.88,-201 414.88,-165 533.62,-165 533.62,-201"/>
<text xml:space="preserve" text-anchor="middle" x="474.25" y="-177.95" font-family="Times,serif" font-size="14.00">stg_app__accounts</text>
</g>
<!-- stg_app__plans&#45;&gt;stg_app__accounts -->
<g id="edge44" class="edge">
<title>stg_app__plans&#45;&gt;stg_app__accounts</title>
<path fill="none" stroke="black" d="M305.31,-322.68C318.83,-307.29 338.38,-284.59 354.5,-264 371.38,-242.44 368.74,-230.63 390.5,-214 394.77,-210.74 399.42,-207.79 404.27,-205.12"/>
<polygon fill="none" stroke="black" points="405.69,-208.32 413.08,-200.73 402.57,-202.06 405.69,-208.32"/>
</g>
<!-- fct_app_engagement&#45;&gt;dim_user_360_engagement -->
<g id="edge26" class="edge">
<title>fct_app_engagement&#45;&gt;dim_user_360_engagement</title>
<path fill="none" stroke="black" d="M1151.12,-179.07C1168.36,-183.83 1186.58,-190.3 1202.25,-199 1221.23,-209.53 1219.08,-221.83 1238.25,-232 1244.68,-235.41 1251.54,-238.4 1258.59,-241.01"/>
<polygon fill="none" stroke="black" points="1256.99,-244.16 1267.59,-244.09 1259.26,-237.54 1256.99,-244.16"/>
</g>
<!-- users_raw_changelog -->
<g id="node21" class="node">
<title>users_raw_changelog</title>
<polygon fill="none" stroke="black" points="354.5,-255 221.5,-255 221.5,-219 354.5,-219 354.5,-255"/>
<text xml:space="preserve" text-anchor="middle" x="288" y="-231.95" font-family="Times,serif" font-size="14.00">users_raw_changelog</text>
</g>
<!-- users_raw_changelog&#45;&gt;stg_app__accounts -->
<g id="edge27" class="edge">
<title>users_raw_changelog&#45;&gt;stg_app__accounts</title>
<path fill="none" stroke="black" d="M351.89,-218.57C368.57,-213.68 386.67,-208.37 403.68,-203.39"/>
<polygon fill="none" stroke="black" points="404.61,-206.76 413.22,-200.59 402.64,-200.05 404.61,-206.76"/>
</g>
<!-- stg_app__accounts&#45;&gt;int_app__actions_daily -->
<g id="edge46" class="edge">
<title>stg_app__accounts&#45;&gt;int_app__actions_daily</title>
<path fill="none" stroke="black" d="M533.93,-168.13C551.97,-163.56 572.16,-158.45 591.42,-153.57"/>
<polygon fill="none" stroke="black" points="592.02,-157.03 600.85,-151.18 590.3,-150.24 592.02,-157.03"/>
</g>
<!-- stg_app__accounts&#45;&gt;dim_app_users -->
<g id="edge48" class="edge">
<title>stg_app__accounts&#45;&gt;dim_app_users</title>
<path fill="none" stroke="black" d="M674.62,-179C712.63,-183.29 721.57,-192.56 753.25,-214 771.73,-226.51 770.42,-237.03 789.25,-249 793.22,-251.52 797.46,-253.86 801.82,-256.03"/>
<polygon fill="none" stroke="black" points="800.21,-259.14 810.76,-260.12 803.12,-252.77 800.21,-259.14"/>
</g>
<!-- stg_app__accounts&#45;&gt;int_app__actions_intraday -->
<g id="edge47" class="edge">
<title>stg_app__accounts&#45;&gt;int_app__actions_intraday</title>
<path fill="none" stroke="black" d="M534.05,-168.99C542.53,-165.53 550.8,-161.26 558,-156 580.11,-139.84 572.02,-122.33 594,-106 595.34,-105.01 596.72,-104.04 598.13,-103.12"/>
<polygon fill="none" stroke="black" points="599.66,-106.28 606.56,-98.24 596.15,-100.22 599.66,-106.28"/>
</g>
<!-- stg_app__accounts&#45;&gt;fct_app_engagement -->
<g id="edge49" class="edge">
<title>stg_app__accounts&#45;&gt;fct_app_engagement</title>
<path fill="none" stroke="black" d="M674.62,-179C791.21,-192.16 927.53,-183.45 1010.07,-175.54"/>
<polygon fill="none" stroke="black" points="1010.24,-179.04 1019.85,-174.58 1009.56,-172.08 1010.24,-179.04"/>
<path fill="none" stroke="black" d="M533.77,-177.47C573.16,-174.81 626.19,-173.3 672.62,-179"/>
</g>
<!-- stg_campaigns__onboarding_pending -->
<g id="node23" class="node">
<title>stg_campaigns__onboarding_pending</title>
<polygon fill="#fff2ae" stroke="black" stroke-width="2" points="1463.88,-461 1241.62,-461 1241.62,-425 1463.88,-425 1463.88,-461"/>
<text xml:space="preserve" text-anchor="middle" x="1352.75" y="-437.95" font-family="Times,serif" font-size="14.00">stg_campaigns__onboarding_pending</text>
</g>
<!-- stg_campaigns__onboarding_pending&#45;&gt;rpt_email_campaign_impact -->
<g id="edge28" class="edge">
<title>stg_campaigns__onboarding_pending&#45;&gt;rpt_email_campaign_impact</title>
<path fill="none" stroke="black" d="M1459.36,-424.56C1479.43,-421.05 1500.34,-417.4 1520.13,-413.94"/>
<polygon fill="none" stroke="black" points="1520.58,-417.42 1529.83,-412.25 1519.37,-410.52 1520.58,-417.42"/>
</g>
<!-- stg_campaigns__onboarding_pending&#45;&gt;fct_email_campaign_user_engagement -->
<g id="edge29" class="edge">
<title>stg_campaigns__onboarding_pending&#45;&gt;fct_email_campaign_user_engagement</title>
<path fill="none" stroke="black" d="M1439.72,-424.56C1449.37,-420.82 1458.76,-416.35 1467.25,-411 1487.76,-398.07 1484.46,-385.33 1503.25,-370 1522.8,-354.04 1546.77,-339.72 1567.67,-328.6"/>
<polygon fill="none" stroke="black" points="1569.05,-331.83 1576.31,-324.11 1565.82,-325.62 1569.05,-331.83"/>
</g>
<!-- events_daily -->
<g id="node24" class="node">
<title>events_daily</title>
<polygon fill="none" stroke="black" points="330.12,-147 245.88,-147 245.88,-111 330.12,-111 330.12,-147"/>
<text xml:space="preserve" text-anchor="middle" x="288" y="-123.95" font-family="Times,serif" font-size="14.00">events_daily</text>
</g>
<!-- events_daily&#45;&gt;stg_app__actions_daily -->
<g id="edge30" class="edge">
<title>events_daily&#45;&gt;stg_app__actions_daily</title>
<path fill="none" stroke="black" d="M330.35,-129C348.16,-129 369.66,-129 390.51,-129"/>
<polygon fill="none" stroke="black" points="390.49,-132.5 400.49,-129 390.49,-125.5 390.49,-132.5"/>
</g>
<!-- email_campaign_onboarding_complete -->
<g id="node25" class="node">
<title>email_campaign_onboarding_complete</title>
<polygon fill="none" stroke="black" points="1202.25,-77 970.25,-77 970.25,-41 1202.25,-41 1202.25,-77"/>
<text xml:space="preserve" text-anchor="middle" x="1086.25" y="-53.95" font-family="Times,serif" font-size="14.00">email_campaign_onboarding_complete</text>
</g>
<!-- stg_campaigns__onboarding_complete -->
<g id="node26" class="node">
<title>stg_campaigns__onboarding_complete</title>
<polygon fill="#fff2ae" stroke="black" stroke-width="2" points="1467.25,-169 1238.25,-169 1238.25,-133 1467.25,-133 1467.25,-169"/>
<text xml:space="preserve" text-anchor="middle" x="1352.75" y="-145.95" font-family="Times,serif" font-size="14.00">stg_campaigns__onboarding_complete</text>
</g>
<!-- email_campaign_onboarding_complete&#45;&gt;stg_campaigns__onboarding_complete -->
<g id="edge31" class="edge">
<title>email_campaign_onboarding_complete&#45;&gt;stg_campaigns__onboarding_complete</title>
<path fill="none" stroke="black" d="M1173.44,-77.45C1183.23,-80.07 1193,-82.93 1202.25,-86 1237.18,-97.59 1275.2,-114.18 1304.15,-127.69"/>
<polygon fill="none" stroke="black" points="1302.48,-130.77 1313.02,-131.87 1305.47,-124.44 1302.48,-130.77"/>
</g>
<!-- stg_campaigns__onboarding_complete&#45;&gt;rpt_user_email_campaign_results -->
<g id="edge34" class="edge">
<title>stg_campaigns__onboarding_complete&#45;&gt;rpt_user_email_campaign_results</title>
<path fill="none" stroke="black" d="M1435.2,-169.45C1446.01,-172.17 1456.93,-175.06 1467.25,-178 1496.23,-186.26 1527.94,-196.64 1554.7,-205.8"/>
<polygon fill="none" stroke="black" points="1553.43,-209.07 1564.02,-209.01 1555.71,-202.45 1553.43,-209.07"/>
</g>
<!-- stg_campaigns__onboarding_complete&#45;&gt;fct_email_campaign_user_engagement -->
<g id="edge35" class="edge">
<title>stg_campaigns__onboarding_complete&#45;&gt;fct_email_campaign_user_engagement</title>
<path fill="none" stroke="black" d="M1454.62,-169.47C1459.08,-171.97 1463.32,-174.8 1467.25,-178 1496.54,-201.86 1476.22,-228.6 1503.25,-255 1514.67,-266.15 1528.99,-275.04 1543.59,-282.03"/>
<polygon fill="none" stroke="black" points="1541.77,-285.05 1552.32,-285.95 1544.64,-278.66 1541.77,-285.05"/>
</g>
<!-- profile_raw_latest -->
<g id="node27" class="node">
<title>profile_raw_latest</title>
<polygon fill="none" stroke="black" points="531.38,-259 417.12,-259 417.12,-223 531.38,-223 531.38,-259"/>
<text xml:space="preserve" text-anchor="middle" x="474.25" y="-235.95" font-family="Times,serif" font-size="14.00">profile_raw_latest</text>
</g>
<!-- profile_raw_latest&#45;&gt;stg_app__members -->
<g id="edge32" class="edge">
<title>profile_raw_latest&#45;&gt;stg_app__members</title>
<path fill="none" stroke="black" d="M531.81,-256.47C553.35,-262.37 578.18,-269.16 600.94,-275.39"/>
<polygon fill="none" stroke="black" points="599.89,-278.73 610.46,-277.99 601.74,-271.98 599.89,-278.73"/>
</g>
<!-- profile_raw_latest&#45;&gt;stg_app__users -->
<g id="edge33" class="edge">
<title>profile_raw_latest&#45;&gt;stg_app__users</title>
<path fill="none" stroke="black" d="M531.81,-241C557,-241 586.7,-241 612.31,-241"/>
<polygon fill="none" stroke="black" points="612.25,-244.5 622.25,-241 612.25,-237.5 612.25,-244.5"/>
</g>
<!-- stg_app__actions_intraday -->
<g id="node28" class="node">
<title>stg_app__actions_intraday</title>
<polygon fill="#fff2ae" stroke="black" stroke-width="2" points="554.62,-93 393.88,-93 393.88,-57 554.62,-57 554.62,-93"/>
<text xml:space="preserve" text-anchor="middle" x="474.25" y="-69.95" font-family="Times,serif" font-size="14.00">stg_app__actions_intraday</text>
</g>
<!-- stg_app__actions_intraday&#45;&gt;int_app__actions_intraday -->
<g id="edge38" class="edge">
<title>stg_app__actions_intraday&#45;&gt;int_app__actions_intraday</title>
<path fill="none" stroke="black" d="M554.96,-76.62C563.91,-76.8 573.08,-76.98 582.16,-77.17"/>
<polygon fill="none" stroke="black" points="582,-80.66 592.07,-77.37 582.14,-73.67 582,-80.66"/>
</g>
<!-- activitySteps_raw_latest -->
<g id="node29" class="node">
<title>activitySteps_raw_latest</title>
<polygon fill="none" stroke="black" points="747.62,-369 599.62,-369 599.62,-333 747.62,-333 747.62,-369"/>
<text xml:space="preserve" text-anchor="middle" x="673.62" y="-345.95" font-family="Times,serif" font-size="14.00">activitySteps_raw_latest</text>
</g>
<!-- stg_app__activity_walk -->
<g id="node30" class="node">
<title>stg_app__activity_walk</title>
<polygon fill="#fff2ae" stroke="black" stroke-width="2" points="934.25,-369 789.25,-369 789.25,-333 934.25,-333 934.25,-369"/>
<text xml:space="preserve" text-anchor="middle" x="861.75" y="-345.95" font-family="Times,serif" font-size="14.00">stg_app__activity_walk</text>
</g>
<!-- activitySteps_raw_latest&#45;&gt;stg_app__activity_walk -->
<g id="edge39" class="edge">
<title>activitySteps_raw_latest&#45;&gt;stg_app__activity_walk</title>
<path fill="none" stroke="black" d="M747.92,-351C757.64,-351 767.67,-351 777.55,-351"/>
<polygon fill="none" stroke="black" points="777.53,-354.5 787.53,-351 777.53,-347.5 777.53,-354.5"/>
</g>
<!-- fct_app_activity_walk -->
<g id="node32" class="node">
<title>fct_app_activity_walk</title>
<polygon fill="#b3e2cd" stroke="black" stroke-width="2" stroke-dasharray="5,2" points="1154.62,-369 1017.88,-369 1017.88,-333 1154.62,-333 1154.62,-369"/>
<text xml:space="preserve" text-anchor="middle" x="1086.25" y="-345.95" font-family="Times,serif" font-size="14.00">fct_app_activity_walk</text>
</g>
<!-- stg_app__activity_walk&#45;&gt;fct_app_activity_walk -->
<g id="edge41" class="edge">
<title>stg_app__activity_walk&#45;&gt;fct_app_activity_walk</title>
<path fill="none" stroke="black" d="M934.68,-351C957.6,-351 983.06,-351 1006.44,-351"/>
<polygon fill="none" stroke="black" points="1006.21,-354.5 1016.21,-351 1006.21,-347.5 1006.21,-354.5"/>
</g>
<!-- email_campaign_onboarding_pending -->
<g id="node31" class="node">
<title>email_campaign_onboarding_pending</title>
<polygon fill="none" stroke="black" points="1198.88,-477 973.62,-477 973.62,-441 1198.88,-441 1198.88,-477"/>
<text xml:space="preserve" text-anchor="middle" x="1086.25" y="-453.95" font-family="Times,serif" font-size="14.00">email_campaign_onboarding_pending</text>
</g>
<!-- email_campaign_onboarding_pending&#45;&gt;stg_campaigns__onboarding_pending -->
<g id="edge40" class="edge">
<title>email_campaign_onboarding_pending&#45;&gt;stg_campaigns__onboarding_pending</title>
<path fill="none" stroke="black" d="M1199.04,-452.24C1209.29,-451.62 1219.71,-450.99 1230.04,-450.36"/>
<polygon fill="none" stroke="black" points="1229.92,-453.88 1239.69,-449.78 1229.5,-446.89 1229.92,-453.88"/>
</g>
<!-- fct_app_activity_walk&#45;&gt;dim_user_360_user_accounts -->
<g id="edge50" class="edge">
<title>fct_app_activity_walk&#45;&gt;dim_user_360_user_accounts</title>
<path fill="none" stroke="black" d="M1155.02,-351C1184.6,-351 1219.87,-351 1252.32,-351"/>
<polygon fill="none" stroke="black" points="1252.16,-354.5 1262.16,-351 1252.16,-347.5 1252.16,-354.5"/>
</g>
<!-- events_intraday -->
<g id="node33" class="node">
<title>events_intraday</title>
<polygon fill="none" stroke="black" points="338.75,-93 237.25,-93 237.25,-57 338.75,-57 338.75,-93"/>
<text xml:space="preserve" text-anchor="middle" x="288" y="-69.95" font-family="Times,serif" font-size="14.00">events_intraday</text>
</g>
<!-- events_intraday&#45;&gt;stg_app__actions_intraday -->
<g id="edge42" class="edge">
<title>events_intraday&#45;&gt;stg_app__actions_intraday</title>
<path fill="none" stroke="black" d="M338.86,-75C352.28,-75 367.22,-75 382.14,-75"/>
<polygon fill="none" stroke="black" points="381.99,-78.5 391.99,-75 381.99,-71.5 381.99,-78.5"/>
</g>
<!-- users_raw_latest -->
<g id="node34" class="node">
<title>users_raw_latest</title>
<polygon fill="none" stroke="black" points="341,-201 235,-201 235,-165 341,-165 341,-201"/>
<text xml:space="preserve" text-anchor="middle" x="288" y="-177.95" font-family="Times,serif" font-size="14.00">users_raw_latest</text>
</g>
<!-- users_raw_latest&#45;&gt;stg_app__accounts -->
<g id="edge45" class="edge">
<title>users_raw_latest&#45;&gt;stg_app__accounts</title>
<path fill="none" stroke="black" d="M341.31,-183C360.61,-183 382.79,-183 403.4,-183"/>
<polygon fill="none" stroke="black" points="403.14,-186.5 413.14,-183 403.14,-179.5 403.14,-186.5"/>
</g>
<!-- email_campaign_onboarding_skipped -->
<g id="node35" class="node">
<title>email_campaign_onboarding_skipped</title>
<polygon fill="none" stroke="black" points="1198.12,-131 974.38,-131 974.38,-95 1198.12,-95 1198.12,-131"/>
<text xml:space="preserve" text-anchor="middle" x="1086.25" y="-107.95" font-family="Times,serif" font-size="14.00">email_campaign_onboarding_skipped</text>
</g>
<!-- email_campaign_onboarding_skipped&#45;&gt;stg_campaigns__onboarding_skipped -->
<g id="edge52" class="edge">
<title>email_campaign_onboarding_skipped&#45;&gt;stg_campaigns__onboarding_skipped</title>
<path fill="none" stroke="black" d="M1184.53,-131.45C1190.68,-133.95 1196.65,-136.78 1202.25,-140 1222.42,-151.59 1218.1,-166.38 1238.25,-178 1240.62,-179.37 1243.05,-180.66 1245.54,-181.89"/>
<polygon fill="none" stroke="black" points="1244.09,-185.08 1254.64,-185.98 1246.95,-178.69 1244.09,-185.08"/>
</g>
</g>
</svg>
