<?xml version="1.0" encoding="UTF-8" standalone="no"?>
<!DOCTYPE svg PUBLIC "-//W3C//DTD SVG 1.1//EN"
 "http://www.w3.org/Graphics/SVG/1.1/DTD/svg11.dtd">
<!-- Generated by graphviz version 14.1.2 (20260124.0452)
 -->
<!-- Pages: 1 -->
<svg width="637pt" height="423pt"
 viewBox="0.00 0.00 637.00 423.00" xmlns="http://www.w3.org/2000/svg" xmlns:xlink="http://www.w3.org/1999/xlink">
<g id="graph0" class="graph" transform="scale(1 1) rotate(0) translate(4 419.31)">
<polygon fill="white" stroke="none" points="-4,4 -4,-419.31 633.25,-419.31 633.25,4 -4,4"/>
<text xml:space="preserve" text-anchor="start" x="8" y="-23.7" font-family="Times,serif" font-size="14.00"> mkt1_direct_depends</text>
<text xml:space="preserve" text-anchor="start" x="8" y="-7.2" font-family="Times,serif" font-size="14.00"> </text>
<!-- rpt_email_campaign_impact -->
<g id="node1" class="node">
<title>rpt_email_campaign_impact</title>
<polygon fill="seashell" stroke="black" stroke-width="2" points="600.75,-297 428,-297 428,-261 600.75,-261 600.75,-297"/>
<text xml:space="preserve" text-anchor="middle" x="514.38" y="-273.95" font-family="Times,serif" font-size="14.00">rpt_email_campaign_impact</text>
</g>
<!-- stg_campaigns__onboarding_complete -->
<g id="node2" class="node">
<title>stg_campaigns__onboarding_complete</title>
<polygon fill="#fff2ae" stroke="black" stroke-width="2" points="363.5,-93 134.5,-93 134.5,-57 363.5,-57 363.5,-93"/>
<text xml:space="preserve" text-anchor="middle" x="249" y="-69.95" font-family="Times,serif" font-size="14.00">stg_campaigns__onboarding_complete</text>
</g>
<!-- rpt_user_email_campaign_results -->
<g id="node3" class="node">
<title>rpt_user_email_campaign_results</title>
<polygon fill="seashell" stroke="black" stroke-width="2" points="614.25,-168 414.5,-168 414.5,-132 614.25,-132 614.25,-168"/>
<text xml:space="preserve" text-anchor="middle" x="514.38" y="-144.95" font-family="Times,serif" font-size="14.00">rpt_user_email_campaign_results</text>
</g>
<!-- stg_campaigns__onboarding_complete&#45;&gt;rpt_user_email_campaign_results -->
<g id="edge1" class="edge">
<title>stg_campaigns__onboarding_complete&#45;&gt;rpt_user_email_campaign_results</title>
<path fill="none" stroke="black" d="M331.11,-93.5C342.03,-96.22 353.06,-99.09 363.5,-102 391.61,-109.83 422.34,-119.48 448.62,-128.07"/>
<polygon fill="none" stroke="black" points="447.18,-131.28 457.78,-131.08 449.37,-124.63 447.18,-131.28"/>
</g>
<!-- fct_email_campaign_user_engagement -->
<g id="node4" class="node">
<title>fct_email_campaign_user_engagement</title>
<polygon fill="#b3e2cd" stroke="black" stroke-width="2" points="629.25,-243 399.5,-243 399.5,-207 629.25,-207 629.25,-243"/>
<text xml:space="preserve" text-anchor="middle" x="514.38" y="-219.95" font-family="Times,serif" font-size="14.00">fct_email_campaign_user_engagement</text>
</g>
<!-- stg_campaigns__onboarding_complete&#45;&gt;fct_email_campaign_user_engagement -->
<g id="edge2" class="edge">
<title>stg_campaigns__onboarding_complete&#45;&gt;fct_email_campaign_user_engagement</title>
<path fill="none" stroke="black" d="M350.57,-93.37C355.13,-95.9 359.48,-98.76 363.5,-102 392.29,-125.2 372.73,-151.5 399.5,-177 410.21,-187.2 423.41,-195.39 436.98,-201.91"/>
<polygon fill="none" stroke="black" points="435.45,-205.06 446.01,-205.95 438.31,-198.67 435.45,-205.06"/>
</g>
<!-- dim_user_360_user_accounts -->
<g id="node5" class="node">
<title>dim_user_360_user_accounts</title>
<polygon fill="#cbd5e8" stroke="black" stroke-width="2" points="337.62,-293 160.38,-293 160.38,-257 337.62,-257 337.62,-293"/>
<text xml:space="preserve" text-anchor="middle" x="249" y="-269.95" font-family="Times,serif" font-size="14.00">dim_user_360_user_accounts</text>
</g>
<!-- dim_user_360_user_accounts&#45;&gt;rpt_email_campaign_impact -->
<g id="edge3" class="edge">
<title>dim_user_360_user_accounts&#45;&gt;rpt_email_campaign_impact</title>
<path fill="none" stroke="black" d="M338.07,-276.34C363.21,-276.72 390.74,-277.14 416.38,-277.53"/>
<polygon fill="none" stroke="black" points="416.06,-281.02 426.11,-277.67 416.17,-274.02 416.06,-281.02"/>
</g>
<!-- dim_user_360_user_accounts&#45;&gt;rpt_user_email_campaign_results -->
<g id="edge4" class="edge">
<title>dim_user_360_user_accounts&#45;&gt;rpt_user_email_campaign_results</title>
<path fill="none" stroke="black" d="M284.07,-256.51C314.13,-240.41 359.3,-216.79 399.5,-198 417.94,-189.38 438.35,-180.56 456.75,-172.86"/>
<polygon fill="none" stroke="black" points="458.02,-176.12 465.91,-169.06 455.33,-169.66 458.02,-176.12"/>
</g>
<!-- dim_user_360_user_accounts&#45;&gt;fct_email_campaign_user_engagement -->
<g id="edge5" class="edge">
<title>dim_user_360_user_accounts&#45;&gt;fct_email_campaign_user_engagement</title>
<path fill="none" stroke="black" d="M338.07,-258.28C359.56,-254.2 382.8,-249.79 405.11,-245.55"/>
<polygon fill="none" stroke="black" points="405.67,-249.01 414.84,-243.71 404.36,-242.13 405.67,-249.01"/>
</g>
<!-- dim_app_users -->
<g id="node6" class="node">
<title>dim_app_users</title>
<polygon fill="#cbd5e8" stroke="black" stroke-width="2" points="98.5,-266 0,-266 0,-230 98.5,-230 98.5,-266"/>
<text xml:space="preserve" text-anchor="middle" x="49.25" y="-242.95" font-family="Times,serif" font-size="14.00">dim_app_users</text>
</g>
<!-- dim_app_users&#45;&gt;rpt_email_campaign_impact -->
<g id="edge6" class="edge">
<title>dim_app_users&#45;&gt;rpt_email_campaign_impact</title>
<path fill="none" stroke="black" d="M250,-413C301.14,-413.47 316.6,-414.4 363.5,-394 412.56,-372.67 459.95,-331.83 487.88,-305"/>
<polygon fill="none" stroke="black" points="490.11,-307.71 494.82,-298.22 485.22,-302.71 490.11,-307.71"/>
<path fill="none" stroke="black" d="M59.73,-266.38C79.15,-303.75 122.66,-385.78 134.5,-394 176.52,-423.16 196.86,-412.53 248,-413"/>
</g>
<!-- dim_app_users&#45;&gt;fct_email_campaign_user_engagement -->
<g id="edge9" class="edge">
<title>dim_app_users&#45;&gt;fct_email_campaign_user_engagement</title>
<path fill="none" stroke="black" d="M98.94,-245.58C166.89,-242.21 292.53,-235.97 387.73,-231.24"/>
<polygon fill="none" stroke="black" points="387.86,-234.74 397.67,-230.75 387.51,-227.75 387.86,-234.74"/>
</g>
<!-- dim_app_users&#45;&gt;dim_user_360_user_accounts -->
<g id="edge7" class="edge">
<title>dim_app_users&#45;&gt;dim_user_360_user_accounts</title>
<path fill="none" stroke="black" d="M98.88,-254.64C114.08,-256.71 131.43,-259.08 148.8,-261.46"/>
<polygon fill="none" stroke="black" points="148.31,-264.92 158.69,-262.81 149.26,-257.99 148.31,-264.92"/>
</g>
<!-- dim_user_360_engagement -->
<g id="node7" class="node">
<title>dim_user_360_engagement</title>
<polygon fill="#cbd5e8" stroke="black" stroke-width="2" points="332.38,-147 165.62,-147 165.62,-111 332.38,-111 332.38,-147"/>
<text xml:space="preserve" text-anchor="middle" x="249" y="-123.95" font-family="Times,serif" font-size="14.00">dim_user_360_engagement</text>
</g>
<!-- dim_app_users&#45;&gt;dim_user_360_engagement -->
<g id="edge8" class="edge">
<title>dim_app_users&#45;&gt;dim_user_360_engagement</title>
<path fill="none" stroke="black" d="M61.89,-229.77C76.34,-208.7 102.95,-174.55 134.5,-156 140.84,-152.28 147.65,-149.07 154.69,-146.3"/>
<polygon fill="none" stroke="black" points="155.48,-149.73 163.71,-143.06 153.11,-143.15 155.48,-149.73"/>
</g>
<!-- dim_user_360_engagement&#45;&gt;rpt_email_campaign_impact -->
<g id="edge10" class="edge">
<title>dim_user_360_engagement&#45;&gt;rpt_email_campaign_impact</title>
<path fill="none" stroke="black" d="M332.85,-138.52C344.05,-142.59 354.69,-148.23 363.5,-156 397.67,-186.14 365.31,-221.87 399.5,-252 404.85,-256.72 410.88,-260.65 417.29,-263.92"/>
<polygon fill="none" stroke="black" points="415.71,-267.05 426.27,-267.92 418.56,-260.65 415.71,-267.05"/>
</g>
<!-- dim_user_360_engagement&#45;&gt;rpt_user_email_campaign_results -->
<g id="edge11" class="edge">
<title>dim_user_360_engagement&#45;&gt;rpt_user_email_campaign_results</title>
<path fill="none" stroke="black" d="M332.61,-135.59C354.91,-137.36 379.4,-139.32 402.96,-141.2"/>
<polygon fill="none" stroke="black" points="402.68,-144.68 412.92,-141.99 403.23,-137.71 402.68,-144.68"/>
</g>
<!-- dim_user_360_engagement&#45;&gt;fct_email_campaign_user_engagement -->
<g id="edge12" class="edge">
<title>dim_user_360_engagement&#45;&gt;fct_email_campaign_user_engagement</title>
<path fill="none" stroke="black" d="M332.73,-145.65C343.23,-148.65 353.72,-152.09 363.5,-156 380.7,-162.88 382.93,-168.72 399.5,-177 417.39,-185.94 437.34,-194.73 455.49,-202.3"/>
<polygon fill="none" stroke="black" points="453.96,-205.46 464.54,-206.03 456.63,-198.98 453.96,-205.46"/>
</g>
<!-- stg_campaigns__onboarding_pending -->
<g id="node8" class="node">
<title>stg_campaigns__onboarding_pending</title>
<polygon fill="#fff2ae" stroke="black" stroke-width="2" points="360.12,-385 137.88,-385 137.88,-349 360.12,-349 360.12,-385"/>
<text xml:space="preserve" text-anchor="middle" x="249" y="-361.95" font-family="Times,serif" font-size="14.00">stg_campaigns__onboarding_pending</text>
</g>
<!-- stg_campaigns__onboarding_pending&#45;&gt;rpt_email_campaign_impact -->
<g id="edge13" class="edge">
<title>stg_campaigns__onboarding_pending&#45;&gt;rpt_email_campaign_impact</title>
<path fill="none" stroke="black" d="M319,-348.53C333.75,-344.31 349.2,-339.68 363.5,-335 394.5,-324.86 428.59,-312.24 456.41,-301.55"/>
<polygon fill="none" stroke="black" points="457.66,-304.82 465.73,-297.95 455.14,-298.29 457.66,-304.82"/>
</g>
<!-- stg_campaigns__onboarding_pending&#45;&gt;fct_email_campaign_user_engagement -->
<g id="edge14" class="edge">
<title>stg_campaigns__onboarding_pending&#45;&gt;fct_email_campaign_user_engagement</title>
<path fill="none" stroke="black" d="M342.88,-348.61C350.32,-344.87 357.33,-340.39 363.5,-335 393.78,-308.54 368.67,-277.82 399.5,-252 400.45,-251.2 401.43,-250.42 402.42,-249.67"/>
<polygon fill="none" stroke="black" points="404.12,-252.74 410.53,-244.3 400.26,-246.9 404.12,-252.74"/>
</g>
<!-- fct_app_plans -->
<g id="node9" class="node">
<title>fct_app_plans</title>
<polygon fill="#b3e2cd" stroke="black" stroke-width="2" stroke-dasharray="5,2" points="95.12,-385 3.38,-385 3.38,-349 95.12,-349 95.12,-385"/>
<text xml:space="preserve" text-anchor="middle" x="49.25" y="-361.95" font-family="Times,serif" font-size="14.00">fct_app_plans</text>
</g>
<!-- fct_app_plans&#45;&gt;rpt_email_campaign_impact -->
<g id="edge15" class="edge">
<title>fct_app_plans&#45;&gt;rpt_email_campaign_impact</title>
<path fill="none" stroke="black" d="M95.51,-383.49C135.15,-396.49 194.6,-412.51 248,-413"/>
</g>
<!-- fct_app_plans&#45;&gt;fct_email_campaign_user_engagement -->
<g id="edge17" class="edge">
<title>fct_app_plans&#45;&gt;fct_email_campaign_user_engagement</title>
<path fill="none" stroke="black" d="M95.38,-351.2C107.94,-347.17 121.66,-343.11 134.5,-340 234.78,-315.75 275.85,-356.42 363.5,-302 386.76,-287.56 376.74,-267.23 399.5,-252 401.3,-250.79 403.16,-249.64 405.05,-248.54"/>
<polygon fill="none" stroke="black" points="406.23,-251.87 413.48,-244.14 402.99,-245.66 406.23,-251.87"/>
</g>
<!-- fct_app_plans&#45;&gt;dim_user_360_user_accounts -->
<g id="edge16" class="edge">
<title>fct_app_plans&#45;&gt;dim_user_360_user_accounts</title>
<path fill="none" stroke="black" d="M71.47,-348.73C87.77,-335.52 111.34,-318.1 134.5,-307 142.07,-303.37 150.14,-300.08 158.33,-297.12"/>
<polygon fill="none" stroke="black" points="159.4,-300.45 167.73,-293.9 157.13,-293.83 159.4,-300.45"/>
</g>
<!-- stg_campaigns__onboarding_skipped -->
<g id="node10" class="node">
<title>stg_campaigns__onboarding_skipped</title>
<polygon fill="#fff2ae" stroke="black" stroke-width="2" points="359.38,-201 138.62,-201 138.62,-165 359.38,-165 359.38,-201"/>
<text xml:space="preserve" text-anchor="middle" x="249" y="-177.95" font-family="Times,serif" font-size="14.00">stg_campaigns__onboarding_skipped</text>
</g>
<!-- stg_campaigns__onboarding_skipped&#45;&gt;rpt_email_campaign_impact -->
<g id="edge18" class="edge">
<title>stg_campaigns__onboarding_skipped&#45;&gt;rpt_email_campaign_impact</title>
<path fill="none" stroke="black" d="M284.82,-201.49C314.61,-216.72 358.97,-238 399.5,-252 405.14,-253.95 410.99,-255.81 416.92,-257.57"/>
<polygon fill="none" stroke="black" points="415.62,-260.84 426.2,-260.22 417.54,-254.11 415.62,-260.84"/>
</g>
<!-- stg_campaigns__onboarding_skipped&#45;&gt;rpt_user_email_campaign_results -->
<g id="edge19" class="edge">
<title>stg_campaigns__onboarding_skipped&#45;&gt;rpt_user_email_campaign_results</title>
<path fill="none" stroke="black" d="M359.79,-169.24C374.04,-167.46 388.65,-165.63 402.92,-163.84"/>
<polygon fill="none" stroke="black" points="403.28,-167.32 412.77,-162.61 402.41,-160.38 403.28,-167.32"/>
</g>
<!-- stg_campaigns__onboarding_skipped&#45;&gt;fct_email_campaign_user_engagement -->
<g id="edge20" class="edge">
<title>stg_campaigns__onboarding_skipped&#45;&gt;fct_email_campaign_user_engagement</title>
<path fill="none" stroke="black" d="M359.79,-200.51C369.02,-201.98 378.4,-203.48 387.74,-204.96"/>
<polygon fill="none" stroke="black" points="387.18,-208.42 397.6,-206.54 388.28,-201.51 387.18,-208.42"/>
</g>
</g>
</svg>
