<?xml version="1.0" encoding="UTF-8" standalone="no"?>
<!DOCTYPE svg PUBLIC "-//W3C//DTD SVG 1.1//EN"
 "http://www.w3.org/Graphics/SVG/1.1/DTD/svg11.dtd">
<!-- Generated by graphviz version 14.1.2 (20260124.0452)
 -->
<!-- Pages: 1 -->
<svg width="637pt" height="424pt"
 viewBox="0.00 0.00 637.00 424.00" xmlns="http://www.w3.org/2000/svg" xmlns:xlink="http://www.w3.org/1999/xlink">
<g id="graph0" class="graph" transform="scale(1 1) rotate(0) translate(4 419.65)">
<polygon fill="white" stroke="none" points="-4,4 -4,-419.65 633.25,-419.65 633.25,4 -4,4"/>
<text xml:space="preserve" text-anchor="start" x="8" y="-23.7" font-family="Times,serif" font-size="14.00"> mkt1_direct_depends</text>
<text xml:space="preserve" text-anchor="start" x="8" y="-7.2" font-family="Times,serif" font-size="14.00"> </text>
<!-- fct_email_campaign_user_engagement -->
<g id="node1" class="node">
<title>fct_email_campaign_user_engagement</title>
<polygon fill="#b3e2cd" stroke="black" stroke-width="2" points="629.25,-269.65 399.5,-269.65 399.5,-233.65 629.25,-233.65 629.25,-269.65"/>
<text xml:space="preserve" text-anchor="middle" x="514.38" y="-246.6" font-family="Times,serif" font-size="14.00">fct_email_campaign_user_engagement</text>
</g>
<!-- dim_user_360_user_accounts -->
<g id="node2" class="node">
<title>dim_user_360_user_accounts</title>
<polygon fill="#cbd5e8" stroke="black" stroke-width="2" points="337.62,-269.65 160.38,-269.65 160.38,-233.65 337.62,-233.65 337.62,-269.65"/>
<text xml:space="preserve" text-anchor="middle" x="249" y="-246.6" font-family="Times,serif" font-size="14.00">dim_user_360_user_accounts</text>
</g>
<!-- dim_user_360_user_accounts&#45;&gt;fct_email_campaign_user_engagement -->
<g id="edge1" class="edge">
<title>dim_user_360_user_accounts&#45;&gt;fct_email_campaign_user_engagement</title>
<path fill="none" stroke="black" d="M338.07,-251.65C354.14,-251.65 371.18,-251.65 388.09,-251.65"/>
<polygon fill="none" stroke="black" points="387.65,-255.15 397.65,-251.65 387.65,-248.15 387.65,-255.15"/>
</g>
<!-- rpt_user_email_campaign_results -->
<g id="node3" class="node">
<title>rpt_user_email_campaign_results</title>
<polygon fill="seashell" stroke="black" stroke-width="2" points="614.25,-323.65 414.5,-323.65 414.5,-287.65 614.25,-287.65 614.25,-323.65"/>
<text xml:space="preserve" text-anchor="middle" x="514.38" y="-300.6" font-family="Times,serif" font-size="14.00">rpt_user_email_campaign_results</text>
</g>
<!-- dim_user_360_user_accounts&#45;&gt;rpt_user_email_campaign_results -->
<g id="edge2" class="edge">
<title>dim_user_360_user_accounts&#45;&gt;rpt_user_email_campaign_results</title>
<path fill="none" stroke="black" d="M338.07,-269.7C361.93,-274.59 387.94,-279.93 412.45,-284.95"/>
<polygon fill="none" stroke="black" points="411.61,-288.35 422.11,-286.93 413.02,-281.5 411.61,-288.35"/>
</g>
<!-- rpt_email_campaign_impact -->
<g id="node4" class="node">
<title>rpt_email_campaign_impact</title>
<polygon fill="seashell" stroke="black" stroke-width="2" points="600.75,-177.65 428,-177.65 428,-141.65 600.75,-141.65 600.75,-177.65"/>
<text xml:space="preserve" text-anchor="middle" x="514.38" y="-154.6" font-family="Times,serif" font-size="14.00">rpt_email_campaign_impact</text>
</g>
<!-- dim_user_360_user_accounts&#45;&gt;rpt_email_campaign_impact -->
<g id="edge3" class="edge">
<title>dim_user_360_user_accounts&#45;&gt;rpt_email_campaign_impact</title>
<path fill="none" stroke="black" d="M302.66,-233.25C345.1,-218.43 404.91,-197.53 449.97,-181.79"/>
<polygon fill="none" stroke="black" points="451.09,-185.11 459.37,-178.51 448.78,-178.5 451.09,-185.11"/>
</g>
<!-- stg_campaigns__onboarding_pending -->
<g id="node5" class="node">
<title>stg_campaigns__onboarding_pending</title>
<polygon fill="#fff2ae" stroke="black" stroke-width="2" points="360.12,-123.65 137.88,-123.65 137.88,-87.65 360.12,-87.65 360.12,-123.65"/>
<text xml:space="preserve" text-anchor="middle" x="249" y="-100.6" font-family="Times,serif" font-size="14.00">stg_campaigns__onboarding_pending</text>
</g>
<!-- stg_campaigns__onboarding_pending&#45;&gt;fct_email_campaign_user_engagement -->
<g id="edge4" class="edge">
<title>stg_campaigns__onboarding_pending&#45;&gt;fct_email_campaign_user_engagement</title>
<path fill="none" stroke="black" d="M348.65,-124.04C353.85,-126.55 358.85,-129.41 363.5,-132.65 387.17,-149.13 378.41,-166.97 399.5,-186.65 417.3,-203.25 440.1,-217.33 460.61,-228.09"/>
<polygon fill="none" stroke="black" points="458.93,-231.16 469.43,-232.57 462.1,-224.92 458.93,-231.16"/>
</g>
<!-- stg_campaigns__onboarding_pending&#45;&gt;rpt_email_campaign_impact -->
<g id="edge5" class="edge">
<title>stg_campaigns__onboarding_pending&#45;&gt;rpt_email_campaign_impact</title>
<path fill="none" stroke="black" d="M339.9,-124.08C364.7,-129.16 391.69,-134.7 416.85,-139.85"/>
<polygon fill="none" stroke="black" points="415.9,-143.23 426.39,-141.81 417.3,-136.38 415.9,-143.23"/>
</g>
<!-- dim_app_users -->
<g id="node6" class="node">
<title>dim_app_users</title>
<polygon fill="#cbd5e8" stroke="black" stroke-width="2" points="98.5,-273.65 0,-273.65 0,-237.65 98.5,-237.65 98.5,-273.65"/>
<text xml:space="preserve" text-anchor="middle" x="49.25" y="-250.6" font-family="Times,serif" font-size="14.00">dim_app_users</text>
</g>
<!-- dim_app_users&#45;&gt;fct_email_campaign_user_engagement -->
<g id="edge6" class="edge">
<title>dim_app_users&#45;&gt;fct_email_campaign_user_engagement</title>
<path fill="none" stroke="black" d="M63.61,-274.12C78.47,-292.94 104.39,-320.96 134.5,-332.65 229.38,-369.47 273.77,-380.67 363.5,-332.65 388.93,-319.04 375.82,-295.12 399.5,-278.65 401.11,-277.53 402.75,-276.46 404.43,-275.43"/>
<polygon fill="none" stroke="black" points="405.95,-278.59 413.07,-270.74 402.61,-272.44 405.95,-278.59"/>
</g>
<!-- dim_app_users&#45;&gt;dim_user_360_user_accounts -->
<g id="edge7" class="edge">
<title>dim_app_users&#45;&gt;dim_user_360_user_accounts</title>
<path fill="none" stroke="black" d="M98.88,-254.66C114.08,-254.35 131.43,-254 148.8,-253.65"/>
<polygon fill="none" stroke="black" points="148.75,-257.15 158.68,-253.45 148.61,-250.16 148.75,-257.15"/>
</g>
<!-- dim_app_users&#45;&gt;rpt_email_campaign_impact -->
<g id="edge8" class="edge">
<title>dim_app_users&#45;&gt;rpt_email_campaign_impact</title>
<path fill="none" stroke="black" d="M89.93,-237.33C93.13,-234.75 96.07,-231.86 98.5,-228.65 139.89,-173.99 84.36,-125.41 134.5,-78.65 171.9,-43.76 197.6,-68.35 248,-59.65"/>
</g>
<!-- dim_user_360_engagement -->
<g id="node7" class="node">
<title>dim_user_360_engagement</title>
<polygon fill="#cbd5e8" stroke="black" stroke-width="2" points="332.38,-323.65 165.62,-323.65 165.62,-287.65 332.38,-287.65 332.38,-323.65"/>
<text xml:space="preserve" text-anchor="middle" x="249" y="-300.6" font-family="Times,serif" font-size="14.00">dim_user_360_engagement</text>
</g>
<!-- dim_app_users&#45;&gt;dim_user_360_engagement -->
<g id="edge9" class="edge">
<title>dim_app_users&#45;&gt;dim_user_360_engagement</title>
<path fill="none" stroke="black" d="M98.74,-269.18C110.43,-272.36 122.89,-275.68 134.5,-278.65 142.04,-280.57 149.87,-282.53 157.73,-284.46"/>
<polygon fill="none" stroke="black" points="156.83,-287.84 167.38,-286.81 158.49,-281.04 156.83,-287.84"/>
</g>
<!-- dim_user_360_engagement&#45;&gt;fct_email_campaign_user_engagement -->
<g id="edge15" class="edge">
<title>dim_user_360_engagement&#45;&gt;fct_email_campaign_user_engagement</title>
<path fill="none" stroke="black" d="M332.61,-288.71C357.82,-283.54 385.84,-277.8 412.13,-272.4"/>
<polygon fill="none" stroke="black" points="412.71,-275.86 421.8,-270.42 411.31,-269 412.71,-275.86"/>
</g>
<!-- dim_user_360_engagement&#45;&gt;rpt_user_email_campaign_results -->
<g id="edge16" class="edge">
<title>dim_user_360_engagement&#45;&gt;rpt_user_email_campaign_results</title>
<path fill="none" stroke="black" d="M332.61,-305.65C354.91,-305.65 379.4,-305.65 402.96,-305.65"/>
<polygon fill="none" stroke="black" points="402.92,-309.15 412.92,-305.65 402.92,-302.15 402.92,-309.15"/>
</g>
<!-- dim_user_360_engagement&#45;&gt;rpt_email_campaign_impact -->
<g id="edge17" class="edge">
<title>dim_user_360_engagement&#45;&gt;rpt_email_campaign_impact</title>
<path fill="none" stroke="black" d="M332.83,-293.72C343.71,-289.98 354.27,-285.07 363.5,-278.65 387.17,-262.17 378.41,-244.32 399.5,-224.65 417.3,-208.04 440.1,-193.97 460.61,-183.21"/>
<polygon fill="none" stroke="black" points="462.1,-186.38 469.43,-178.73 458.93,-180.13 462.1,-186.38"/>
</g>
<!-- stg_campaigns__onboarding_complete -->
<g id="node8" class="node">
<title>stg_campaigns__onboarding_complete</title>
<polygon fill="#fff2ae" stroke="black" stroke-width="2" points="363.5,-415.65 134.5,-415.65 134.5,-379.65 363.5,-379.65 363.5,-415.65"/>
<text xml:space="preserve" text-anchor="middle" x="249" y="-392.6" font-family="Times,serif" font-size="14.00">stg_campaigns__onboarding_complete</text>
</g>
<!-- stg_campaigns__onboarding_complete&#45;&gt;fct_email_campaign_user_engagement -->
<g id="edge10" class="edge">
<title>stg_campaigns__onboarding_complete&#45;&gt;fct_email_campaign_user_engagement</title>
<path fill="none" stroke="black" d="M343.26,-379.22C350.57,-375.49 357.46,-371.02 363.5,-365.65 394.78,-337.85 367.65,-305.78 399.5,-278.65 400.45,-277.84 401.41,-277.06 402.4,-276.29"/>
<polygon fill="none" stroke="black" points="404.12,-279.36 410.47,-270.88 400.22,-273.54 404.12,-279.36"/>
</g>
<!-- stg_campaigns__onboarding_complete&#45;&gt;rpt_user_email_campaign_results -->
<g id="edge11" class="edge">
<title>stg_campaigns__onboarding_complete&#45;&gt;rpt_user_email_campaign_results</title>
<path fill="none" stroke="black" d="M319.99,-379.17C334.46,-375 349.54,-370.39 363.5,-365.65 396.09,-354.56 431.9,-340.31 460.35,-328.47"/>
<polygon fill="none" stroke="black" points="461.6,-331.74 469.47,-324.65 458.89,-325.28 461.6,-331.74"/>
</g>
<!-- fct_app_plans -->
<g id="node9" class="node">
<title>fct_app_plans</title>
<polygon fill="#b3e2cd" stroke="black" stroke-width="2" stroke-dasharray="5,2" points="95.12,-219.65 3.38,-219.65 3.38,-183.65 95.12,-183.65 95.12,-219.65"/>
<text xml:space="preserve" text-anchor="middle" x="49.25" y="-196.6" font-family="Times,serif" font-size="14.00">fct_app_plans</text>
</g>
<!-- fct_app_plans&#45;&gt;fct_email_campaign_user_engagement -->
<g id="edge12" class="edge">
<title>fct_app_plans&#45;&gt;fct_email_campaign_user_engagement</title>
<path fill="none" stroke="black" d="M95.53,-203.48C156.57,-206.29 268.56,-212.64 363.5,-224.65 378.17,-226.5 393.58,-228.83 408.71,-231.35"/>
<polygon fill="none" stroke="black" points="407.73,-234.73 418.17,-232.95 408.9,-227.83 407.73,-234.73"/>
</g>
<!-- fct_app_plans&#45;&gt;dim_user_360_user_accounts -->
<g id="edge13" class="edge">
<title>fct_app_plans&#45;&gt;dim_user_360_user_accounts</title>
<path fill="none" stroke="black" d="M95.62,-213.12C115.9,-218.24 140.47,-224.46 163.91,-230.38"/>
<polygon fill="none" stroke="black" points="162.92,-233.74 173.48,-232.8 164.64,-226.96 162.92,-233.74"/>
</g>
<!-- fct_app_plans&#45;&gt;rpt_email_campaign_impact -->
<g id="edge14" class="edge">
<title>fct_app_plans&#45;&gt;rpt_email_campaign_impact</title>
<path fill="none" stroke="black" d="M57.16,-183.56C68.68,-156.03 94.57,-104.13 134.5,-78.65 177.61,-51.13 197.6,-68.35 248,-59.65"/>
<path fill="none" stroke="black" d="M250,-59.65C336.98,-44.63 432.21,-100.48 480.84,-134.75"/>
<polygon fill="none" stroke="black" points="478.54,-137.4 488.7,-140.4 482.62,-131.72 478.54,-137.4"/>
</g>
<!-- stg_campaigns__onboarding_skipped -->
<g id="node10" class="node">
<title>stg_campaigns__onboarding_skipped</title>
<polygon fill="#fff2ae" stroke="black" stroke-width="2" points="359.38,-177.65 138.62,-177.65 138.62,-141.65 359.38,-141.65 359.38,-177.65"/>
<text xml:space="preserve" text-anchor="middle" x="249" y="-154.6" font-family="Times,serif" font-size="14.00">stg_campaigns__onboarding_skipped</text>
</g>
<!-- stg_campaigns__onboarding_skipped&#45;&gt;fct_email_campaign_user_engagement -->
<g id="edge18" class="edge">
<title>stg_campaigns__onboarding_skipped&#45;&gt;fct_email_campaign_user_engagement</title>
<path fill="none" stroke="black" d="M319.99,-178.12C334.46,-182.29 349.54,-186.9 363.5,-191.65 396.09,-202.73 431.9,-216.99 460.35,-228.82"/>
<polygon fill="none" stroke="black" points="458.89,-232.01 469.47,-232.64 461.6,-225.55 458.89,-232.01"/>
</g>
<!-- stg_campaigns__onboarding_skipped&#45;&gt;rpt_user_email_campaign_results -->
<g id="edge19" class="edge">
<title>stg_campaigns__onboarding_skipped&#45;&gt;rpt_user_email_campaign_results</title>
<path fill="none" stroke="black" d="M292.45,-178.07C315.21,-189.32 342.76,-205.27 363.5,-224.65 384.58,-244.34 375.82,-262.17 399.5,-278.65 401.11,-279.76 402.75,-280.83 404.43,-281.86"/>
<polygon fill="none" stroke="black" points="402.61,-284.86 413.07,-286.55 405.95,-278.7 402.61,-284.86"/>
</g>
<!-- stg_campaigns__onboarding_skipped&#45;&gt;rpt_email_campaign_impact -->
<g id="edge20" class="edge">
<title>stg_campaigns__onboarding_skipped&#45;&gt;rpt_email_campaign_impact</title>
<path fill="none" stroke="black" d="M359.79,-159.65C378.61,-159.65 398.04,-159.65 416.49,-159.65"/>
<polygon fill="none" stroke="black" points="416.32,-163.15 426.32,-159.65 416.32,-156.15 416.32,-163.15"/>
</g>
</g>
</svg>
