<?xml version="1.0" encoding="UTF-8" standalone="no"?>
<!DOCTYPE svg PUBLIC "-//W3C//DTD SVG 1.1//EN"
 "http://www.w3.org/Graphics/SVG/1.1/DTD/svg11.dtd">
<!-- Generated by graphviz version 14.1.2 (20260124.0452)
 -->
<!-- Pages: 1 -->
<svg width="637pt" height="407pt"
 viewBox="0.00 0.00 637.00 407.00" xmlns="http://www.w3.org/2000/svg" xmlns:xlink="http://www.w3.org/1999/xlink">
<g id="graph0" class="graph" transform="scale(1 1) rotate(0) translate(4 403.49)">
<polygon fill="white" stroke="none" points="-4,4 -4,-403.49 633.25,-403.49 633.25,4 -4,4"/>
<text xml:space="preserve" text-anchor="start" x="8" y="-23.7" font-family="Times,serif" font-size="14.00">mkt1_direct_depends</text>
<text xml:space="preserve" text-anchor="start" x="8" y="-7.2" font-family="Times,serif" font-size="14.00"> </text>
<!-- fct_app_plans -->
<g id="node1" class="node">
<title>fct_app_plans</title>
<polygon fill="#b3e2cd" stroke="black" stroke-width="2" stroke-dasharray="5,2" points="95.12,-336 3.38,-336 3.38,-300 95.12,-300 95.12,-336"/>
<text xml:space="preserve" text-anchor="middle" x="49.25" y="-312.95" font-family="Times,serif" font-size="14.00">fct_app_plans</text>
</g>
<!-- dim_user_360_user_accounts -->
<g id="node2" class="node">
<title>dim_user_360_user_accounts</title>
<polygon fill="#cbd5e8" stroke="black" stroke-width="2" points="337.62,-277 160.38,-277 160.38,-241 337.62,-241 337.62,-277"/>
<text xml:space="preserve" text-anchor="middle" x="249" y="-253.95" font-family="Times,serif" font-size="14.00">dim_user_360_user_accounts</text>
</g>
<!-- fct_app_plans&#45;&gt;dim_user_360_user_accounts -->
<g id="edge1" class="edge">
<title>fct_app_plans&#45;&gt;dim_user_360_user_accounts</title>
<path fill="none" stroke="black" d="M95.19,-303.27C107.88,-299.21 121.7,-294.85 134.5,-291 145.98,-287.54 158.15,-283.99 170.09,-280.57"/>
<polygon fill="none" stroke="black" points="170.85,-284 179.51,-277.89 168.94,-277.26 170.85,-284"/>
</g>
<!-- rpt_email_campaign_impact -->
<g id="node3" class="node">
<title>rpt_email_campaign_impact</title>
<polygon fill="seashell" stroke="black" stroke-width="2" points="600.75,-281 428,-281 428,-245 600.75,-245 600.75,-281"/>
<text xml:space="preserve" text-anchor="middle" x="514.38" y="-257.95" font-family="Times,serif" font-size="14.00">rpt_email_campaign_impact</text>
</g>
<!-- fct_app_plans&#45;&gt;rpt_email_campaign_impact -->
<g id="edge2" class="edge">
<title>fct_app_plans&#45;&gt;rpt_email_campaign_impact</title>
<path fill="none" stroke="black" d="M70.46,-336.44C86.61,-350.12 110.44,-368.04 134.5,-378 181.76,-397.56 196.87,-395.55 248,-397"/>
</g>
<!-- fct_email_campaign_user_engagement -->
<g id="node4" class="node">
<title>fct_email_campaign_user_engagement</title>
<polygon fill="#b3e2cd" stroke="black" stroke-width="2" points="629.25,-227 399.5,-227 399.5,-191 629.25,-191 629.25,-227"/>
<text xml:space="preserve" text-anchor="middle" x="514.38" y="-203.95" font-family="Times,serif" font-size="14.00">fct_email_campaign_user_engagement</text>
</g>
<!-- fct_app_plans&#45;&gt;fct_email_campaign_user_engagement -->
<g id="edge3" class="edge">
<title>fct_app_plans&#45;&gt;fct_email_campaign_user_engagement</title>
<path fill="none" stroke="black" d="M95.4,-317.87C170.93,-316.92 319.02,-311.72 363.5,-286 387.2,-272.29 376.74,-251.23 399.5,-236 401.3,-234.79 403.16,-233.64 405.05,-232.54"/>
<polygon fill="none" stroke="black" points="406.23,-235.87 413.48,-228.14 402.99,-229.66 406.23,-235.87"/>
</g>
<!-- dim_user_360_user_accounts&#45;&gt;rpt_email_campaign_impact -->
<g id="edge7" class="edge">
<title>dim_user_360_user_accounts&#45;&gt;rpt_email_campaign_impact</title>
<path fill="none" stroke="black" d="M338.07,-260.34C363.21,-260.72 390.74,-261.14 416.38,-261.53"/>
<polygon fill="none" stroke="black" points="416.06,-265.02 426.11,-261.67 416.17,-258.02 416.06,-265.02"/>
</g>
<!-- dim_user_360_user_accounts&#45;&gt;fct_email_campaign_user_engagement -->
<g id="edge8" class="edge">
<title>dim_user_360_user_accounts&#45;&gt;fct_email_campaign_user_engagement</title>
<path fill="none" stroke="black" d="M338.07,-242.28C359.56,-238.2 382.8,-233.79 405.11,-229.55"/>
<polygon fill="none" stroke="black" points="405.67,-233.01 414.84,-227.71 404.36,-226.13 405.67,-233.01"/>
</g>
<!-- rpt_user_email_campaign_results -->
<g id="node5" class="node">
<title>rpt_user_email_campaign_results</title>
<polygon fill="seashell" stroke="black" stroke-width="2" points="614.25,-150 414.5,-150 414.5,-114 614.25,-114 614.25,-150"/>
<text xml:space="preserve" text-anchor="middle" x="514.38" y="-126.95" font-family="Times,serif" font-size="14.00">rpt_user_email_campaign_results</text>
</g>
<!-- dim_user_360_user_accounts&#45;&gt;rpt_user_email_campaign_results -->
<g id="edge6" class="edge">
<title>dim_user_360_user_accounts&#45;&gt;rpt_user_email_campaign_results</title>
<path fill="none" stroke="black" d="M284.14,-240.65C314.25,-224.66 359.44,-201.09 399.5,-182 418.73,-172.83 440.06,-163.31 459.01,-155.06"/>
<polygon fill="none" stroke="black" points="460.38,-158.27 468.17,-151.09 457.6,-151.85 460.38,-158.27"/>
</g>
<!-- stg_campaigns__onboarding_pending -->
<g id="node6" class="node">
<title>stg_campaigns__onboarding_pending</title>
<polygon fill="#fff2ae" stroke="black" stroke-width="2" points="360.12,-369 137.88,-369 137.88,-333 360.12,-333 360.12,-369"/>
<text xml:space="preserve" text-anchor="middle" x="249" y="-345.95" font-family="Times,serif" font-size="14.00">stg_campaigns__onboarding_pending</text>
</g>
<!-- stg_campaigns__onboarding_pending&#45;&gt;rpt_email_campaign_impact -->
<g id="edge4" class="edge">
<title>stg_campaigns__onboarding_pending&#45;&gt;rpt_email_campaign_impact</title>
<path fill="none" stroke="black" d="M319,-332.53C333.75,-328.31 349.2,-323.68 363.5,-319 394.5,-308.86 428.59,-296.24 456.41,-285.55"/>
<polygon fill="none" stroke="black" points="457.66,-288.82 465.73,-281.95 455.14,-282.29 457.66,-288.82"/>
</g>
<!-- stg_campaigns__onboarding_pending&#45;&gt;fct_email_campaign_user_engagement -->
<g id="edge5" class="edge">
<title>stg_campaigns__onboarding_pending&#45;&gt;fct_email_campaign_user_engagement</title>
<path fill="none" stroke="black" d="M342.88,-332.61C350.32,-328.87 357.33,-324.39 363.5,-319 393.78,-292.54 368.67,-261.82 399.5,-236 400.45,-235.2 401.43,-234.42 402.42,-233.67"/>
<polygon fill="none" stroke="black" points="404.12,-236.74 410.53,-228.3 400.26,-230.9 404.12,-236.74"/>
</g>
<!-- dim_user_360_engagement -->
<g id="node7" class="node">
<title>dim_user_360_engagement</title>
<polygon fill="#cbd5e8" stroke="black" stroke-width="2" points="332.38,-131 165.62,-131 165.62,-95 332.38,-95 332.38,-131"/>
<text xml:space="preserve" text-anchor="middle" x="249" y="-107.95" font-family="Times,serif" font-size="14.00">dim_user_360_engagement</text>
</g>
<!-- dim_user_360_engagement&#45;&gt;rpt_email_campaign_impact -->
<g id="edge10" class="edge">
<title>dim_user_360_engagement&#45;&gt;rpt_email_campaign_impact</title>
<path fill="none" stroke="black" d="M332.85,-122.52C344.05,-126.59 354.69,-132.23 363.5,-140 397.67,-170.14 365.31,-205.87 399.5,-236 404.85,-240.72 410.88,-244.65 417.29,-247.92"/>
<polygon fill="none" stroke="black" points="415.71,-251.05 426.27,-251.92 418.56,-244.65 415.71,-251.05"/>
</g>
<!-- dim_user_360_engagement&#45;&gt;fct_email_campaign_user_engagement -->
<g id="edge11" class="edge">
<title>dim_user_360_engagement&#45;&gt;fct_email_campaign_user_engagement</title>
<path fill="none" stroke="black" d="M332.57,-130.05C343.1,-132.98 353.64,-136.29 363.5,-140 380.43,-146.37 383.21,-151.14 399.5,-159 418.69,-168.26 440,-177.81 458.96,-186.05"/>
<polygon fill="none" stroke="black" points="457.55,-189.26 468.12,-190.01 460.33,-182.83 457.55,-189.26"/>
</g>
<!-- dim_user_360_engagement&#45;&gt;rpt_user_email_campaign_results -->
<g id="edge9" class="edge">
<title>dim_user_360_engagement&#45;&gt;rpt_user_email_campaign_results</title>
<path fill="none" stroke="black" d="M332.61,-118.96C354.91,-120.57 379.4,-122.33 402.96,-124.03"/>
<polygon fill="none" stroke="black" points="402.7,-127.52 412.92,-124.75 403.2,-120.54 402.7,-127.52"/>
</g>
<!-- stg_campaigns__onboarding_complete -->
<g id="node8" class="node">
<title>stg_campaigns__onboarding_complete</title>
<polygon fill="#fff2ae" stroke="black" stroke-width="2" points="363.5,-77 134.5,-77 134.5,-41 363.5,-41 363.5,-77"/>
<text xml:space="preserve" text-anchor="middle" x="249" y="-53.95" font-family="Times,serif" font-size="14.00">stg_campaigns__onboarding_complete</text>
</g>
<!-- stg_campaigns__onboarding_complete&#45;&gt;fct_email_campaign_user_engagement -->
<g id="edge13" class="edge">
<title>stg_campaigns__onboarding_complete&#45;&gt;fct_email_campaign_user_engagement</title>
<path fill="none" stroke="black" d="M350.52,-77.42C355.1,-79.93 359.46,-82.78 363.5,-86 391.79,-108.55 373.36,-133.99 399.5,-159 411.1,-170.1 425.57,-178.96 440.26,-185.96"/>
<polygon fill="none" stroke="black" points="438.49,-189.01 449.05,-189.89 441.35,-182.62 438.49,-189.01"/>
</g>
<!-- stg_campaigns__onboarding_complete&#45;&gt;rpt_user_email_campaign_results -->
<g id="edge12" class="edge">
<title>stg_campaigns__onboarding_complete&#45;&gt;rpt_user_email_campaign_results</title>
<path fill="none" stroke="black" d="M330.46,-77.46C341.59,-80.21 352.85,-83.1 363.5,-86 390.5,-93.35 419.99,-102.21 445.61,-110.19"/>
<polygon fill="none" stroke="black" points="444.3,-113.45 454.89,-113.1 446.39,-106.77 444.3,-113.45"/>
</g>
<!-- stg_campaigns__onboarding_skipped -->
<g id="node9" class="node">
<title>stg_campaigns__onboarding_skipped</title>
<polygon fill="#fff2ae" stroke="black" stroke-width="2" points="359.38,-185 138.62,-185 138.62,-149 359.38,-149 359.38,-185"/>
<text xml:space="preserve" text-anchor="middle" x="249" y="-161.95" font-family="Times,serif" font-size="14.00">stg_campaigns__onboarding_skipped</text>
</g>
<!-- stg_campaigns__onboarding_skipped&#45;&gt;rpt_email_campaign_impact -->
<g id="edge15" class="edge">
<title>stg_campaigns__onboarding_skipped&#45;&gt;rpt_email_campaign_impact</title>
<path fill="none" stroke="black" d="M284.82,-185.49C314.61,-200.72 358.97,-222 399.5,-236 405.14,-237.95 410.99,-239.81 416.92,-241.57"/>
<polygon fill="none" stroke="black" points="415.62,-244.84 426.2,-244.22 417.54,-238.11 415.62,-244.84"/>
</g>
<!-- stg_campaigns__onboarding_skipped&#45;&gt;fct_email_campaign_user_engagement -->
<g id="edge16" class="edge">
<title>stg_campaigns__onboarding_skipped&#45;&gt;fct_email_campaign_user_engagement</title>
<path fill="none" stroke="black" d="M359.79,-184.51C369.02,-185.98 378.4,-187.48 387.74,-188.96"/>
<polygon fill="none" stroke="black" points="387.18,-192.42 397.6,-190.54 388.28,-185.51 387.18,-192.42"/>
</g>
<!-- stg_campaigns__onboarding_skipped&#45;&gt;rpt_user_email_campaign_results -->
<g id="edge14" class="edge">
<title>stg_campaigns__onboarding_skipped&#45;&gt;rpt_user_email_campaign_results</title>
<path fill="none" stroke="black" d="M359.79,-152.41C374.04,-150.52 388.65,-148.57 402.92,-146.68"/>
<polygon fill="none" stroke="black" points="403.32,-150.16 412.77,-145.37 402.4,-143.22 403.32,-150.16"/>
</g>
<!-- dim_app_users -->
<g id="node10" class="node">
<title>dim_app_users</title>
<polygon fill="#cbd5e8" stroke="black" stroke-width="2" points="98.5,-263 0,-263 0,-227 98.5,-227 98.5,-263"/>
<text xml:space="preserve" text-anchor="middle" x="49.25" y="-239.95" font-family="Times,serif" font-size="14.00">dim_app_users</text>
</g>
<!-- dim_app_users&#45;&gt;dim_user_360_user_accounts -->
<g id="edge17" class="edge">
<title>dim_app_users&#45;&gt;dim_user_360_user_accounts</title>
<path fill="none" stroke="black" d="M98.88,-248.44C114.08,-249.52 131.43,-250.75 148.8,-251.98"/>
<polygon fill="none" stroke="black" points="148.46,-255.46 158.68,-252.68 148.95,-248.48 148.46,-255.46"/>
</g>
<!-- dim_app_users&#45;&gt;rpt_email_campaign_impact -->
<g id="edge18" class="edge">
<title>dim_app_users&#45;&gt;rpt_email_campaign_impact</title>
<path fill="none" stroke="black" d="M73.39,-263.45C82.1,-271.25 91.56,-280.88 98.5,-291 122.16,-325.52 101.76,-351.94 134.5,-378 174.52,-409.85 196.87,-395.55 248,-397"/>
<path fill="none" stroke="black" d="M250,-397C301.13,-398.45 316.6,-398.4 363.5,-378 412.56,-356.67 459.95,-315.83 487.88,-289"/>
<polygon fill="none" stroke="black" points="490.11,-291.71 494.82,-282.22 485.22,-286.71 490.11,-291.71"/>
</g>
<!-- dim_app_users&#45;&gt;fct_email_campaign_user_engagement -->
<g id="edge20" class="edge">
<title>dim_app_users&#45;&gt;fct_email_campaign_user_engagement</title>
<path fill="none" stroke="black" d="M98.71,-236.74C110.4,-234.96 122.87,-233.25 134.5,-232 218.79,-222.96 314.04,-217.2 387.95,-213.7"/>
<polygon fill="none" stroke="black" points="387.82,-217.21 397.65,-213.25 387.5,-210.22 387.82,-217.21"/>
</g>
<!-- dim_app_users&#45;&gt;dim_user_360_engagement -->
<g id="edge19" class="edge">
<title>dim_app_users&#45;&gt;dim_user_360_engagement</title>
<path fill="none" stroke="black" d="M59.83,-226.68C73.26,-202.9 99.94,-161.87 134.5,-140 140.83,-136 147.69,-132.59 154.8,-129.69"/>
<polygon fill="none" stroke="black" points="155.79,-133.05 163.96,-126.31 153.36,-126.49 155.79,-133.05"/>
</g>
</g>
</svg>
