<?xml version="1.0" encoding="UTF-8" standalone="no"?>
<!DOCTYPE svg PUBLIC "-//W3C//DTD SVG 1.1//EN"
 "http://www.w3.org/Graphics/SVG/1.1/DTD/svg11.dtd">
<!-- Generated by graphviz version 14.1.2 (20260124.0452)
 -->
<!-- Pages: 1 -->
<svg width="637pt" height="393pt"
 viewBox="0.00 0.00 637.00 393.00" xmlns="http://www.w3.org/2000/svg" xmlns:xlink="http://www.w3.org/1999/xlink">
<g id="graph0" class="graph" transform="scale(1 1) rotate(0) translate(4 389)">
<polygon fill="white" stroke="none" points="-4,4 -4,-389 633.25,-389 633.25,4 -4,4"/>
<text xml:space="preserve" text-anchor="start" x="8" y="-23.7" font-family="Times,serif" font-size="14.00"> mkt1_direct_depends</text>
<text xml:space="preserve" text-anchor="start" x="8" y="-7.2" font-family="Times,serif" font-size="14.00"> </text>
<!-- stg_campaigns__onboarding_complete -->
<g id="node1" class="node">
<title>stg_campaigns__onboarding_complete</title>
<polygon fill="#fff2ae" stroke="black" stroke-width="2" points="363.5,-385 134.5,-385 134.5,-349 363.5,-349 363.5,-385"/>
<text xml:space="preserve" text-anchor="middle" x="249" y="-361.95" font-family="Times,serif" font-size="14.00">stg_campaigns__onboarding_complete</text>
</g>
<!-- fct_email_campaign_user_engagement -->
<g id="node2" class="node">
<title>fct_email_campaign_user_engagement</title>
<polygon fill="#b3e2cd" stroke="black" stroke-width="2" points="629.25,-239 399.5,-239 399.5,-203 629.25,-203 629.25,-239"/>
<text xml:space="preserve" text-anchor="middle" x="514.38" y="-215.95" font-family="Times,serif" font-size="14.00">fct_email_campaign_user_engagement</text>
</g>
<!-- stg_campaigns__onboarding_complete&#45;&gt;fct_email_campaign_user_engagement -->
<g id="edge1" class="edge">
<title>stg_campaigns__onboarding_complete&#45;&gt;fct_email_campaign_user_engagement</title>
<path fill="none" stroke="black" d="M342.87,-348.51C349.98,-346.01 356.94,-343.19 363.5,-340 412.25,-316.31 459.72,-274.5 487.76,-247.27"/>
<polygon fill="none" stroke="black" points="490.07,-249.9 494.74,-240.39 485.16,-244.92 490.07,-249.9"/>
</g>
<!-- stg_campaigns__onboarding_skipped -->
<g id="node3" class="node">
<title>stg_campaigns__onboarding_skipped</title>
<polygon fill="#fff2ae" stroke="black" stroke-width="2" points="359.38,-331 138.62,-331 138.62,-295 359.38,-295 359.38,-331"/>
<text xml:space="preserve" text-anchor="middle" x="249" y="-307.95" font-family="Times,serif" font-size="14.00">stg_campaigns__onboarding_skipped</text>
</g>
<!-- stg_campaigns__onboarding_skipped&#45;&gt;fct_email_campaign_user_engagement -->
<g id="edge2" class="edge">
<title>stg_campaigns__onboarding_skipped&#45;&gt;fct_email_campaign_user_engagement</title>
<path fill="none" stroke="black" d="M319.99,-294.53C334.46,-290.35 349.54,-285.75 363.5,-281 396.09,-269.92 431.9,-255.66 460.35,-243.82"/>
<polygon fill="none" stroke="black" points="461.6,-247.09 469.47,-240 458.89,-240.64 461.6,-247.09"/>
</g>
<!-- dim_user_360_user_accounts -->
<g id="node4" class="node">
<title>dim_user_360_user_accounts</title>
<polygon fill="#cbd5e8" stroke="black" stroke-width="2" points="337.62,-185 160.38,-185 160.38,-149 337.62,-149 337.62,-185"/>
<text xml:space="preserve" text-anchor="middle" x="249" y="-161.95" font-family="Times,serif" font-size="14.00">dim_user_360_user_accounts</text>
</g>
<!-- dim_user_360_user_accounts&#45;&gt;fct_email_campaign_user_engagement -->
<g id="edge3" class="edge">
<title>dim_user_360_user_accounts&#45;&gt;fct_email_campaign_user_engagement</title>
<path fill="none" stroke="black" d="M338.07,-185.06C361.93,-189.95 387.94,-195.28 412.45,-200.31"/>
<polygon fill="none" stroke="black" points="411.61,-203.71 422.11,-202.29 413.02,-196.85 411.61,-203.71"/>
</g>
<!-- dim_app_users -->
<g id="node5" class="node">
<title>dim_app_users</title>
<polygon fill="#cbd5e8" stroke="black" stroke-width="2" points="98.5,-239 0,-239 0,-203 98.5,-203 98.5,-239"/>
<text xml:space="preserve" text-anchor="middle" x="49.25" y="-215.95" font-family="Times,serif" font-size="14.00">dim_app_users</text>
</g>
<!-- dim_app_users&#45;&gt;fct_email_campaign_user_engagement -->
<g id="edge5" class="edge">
<title>dim_app_users&#45;&gt;fct_email_campaign_user_engagement</title>
<path fill="none" stroke="black" d="M98.63,-239.32C110.22,-242.92 122.66,-246.15 134.5,-248 235.06,-263.72 262.13,-257.06 363.5,-248 380.13,-246.51 397.68,-244.12 414.68,-241.35"/>
<polygon fill="none" stroke="black" points="414.99,-244.85 424.27,-239.74 413.83,-237.95 414.99,-244.85"/>
</g>
<!-- dim_app_users&#45;&gt;dim_user_360_user_accounts -->
<g id="edge4" class="edge">
<title>dim_app_users&#45;&gt;dim_user_360_user_accounts</title>
<path fill="none" stroke="black" d="M98.62,-204.8C110.31,-201.08 122.81,-197.26 134.5,-194 141.43,-192.07 148.63,-190.15 155.87,-188.29"/>
<polygon fill="none" stroke="black" points="156.59,-191.71 165.43,-185.87 154.87,-184.93 156.59,-191.71"/>
</g>
<!-- dim_user_360_engagement -->
<g id="node6" class="node">
<title>dim_user_360_engagement</title>
<polygon fill="#cbd5e8" stroke="black" stroke-width="2" points="332.38,-239 165.62,-239 165.62,-203 332.38,-203 332.38,-239"/>
<text xml:space="preserve" text-anchor="middle" x="249" y="-215.95" font-family="Times,serif" font-size="14.00">dim_user_360_engagement</text>
</g>
<!-- dim_app_users&#45;&gt;dim_user_360_engagement -->
<g id="edge6" class="edge">
<title>dim_app_users&#45;&gt;dim_user_360_engagement</title>
<path fill="none" stroke="black" d="M98.88,-221C115.53,-221 134.77,-221 153.78,-221"/>
<polygon fill="none" stroke="black" points="153.73,-224.5 163.73,-221 153.73,-217.5 153.73,-224.5"/>
</g>
<!-- dim_user_360_engagement&#45;&gt;fct_email_campaign_user_engagement -->
<g id="edge8" class="edge">
<title>dim_user_360_engagement&#45;&gt;fct_email_campaign_user_engagement</title>
<path fill="none" stroke="black" d="M332.61,-221C350.18,-221 369.12,-221 387.88,-221"/>
<polygon fill="none" stroke="black" points="387.7,-224.5 397.7,-221 387.7,-217.5 387.7,-224.5"/>
</g>
<!-- stg_campaigns__onboarding_pending -->
<g id="node7" class="node">
<title>stg_campaigns__onboarding_pending</title>
<polygon fill="#fff2ae" stroke="black" stroke-width="2" points="360.12,-93 137.88,-93 137.88,-57 360.12,-57 360.12,-93"/>
<text xml:space="preserve" text-anchor="middle" x="249" y="-69.95" font-family="Times,serif" font-size="14.00">stg_campaigns__onboarding_pending</text>
</g>
<!-- stg_campaigns__onboarding_pending&#45;&gt;fct_email_campaign_user_engagement -->
<g id="edge7" class="edge">
<title>stg_campaigns__onboarding_pending&#45;&gt;fct_email_campaign_user_engagement</title>
<path fill="none" stroke="black" d="M329.89,-93.41C341.44,-97.24 352.96,-101.75 363.5,-107 410.43,-130.4 457.39,-169.23 485.92,-194.97"/>
<polygon fill="none" stroke="black" points="483.3,-197.32 493.04,-201.49 488.03,-192.16 483.3,-197.32"/>
</g>
<!-- fct_app_plans -->
<g id="node8" class="node">
<title>fct_app_plans</title>
<polygon fill="#b3e2cd" stroke="black" stroke-width="2" stroke-dasharray="5,2" points="95.12,-162 3.38,-162 3.38,-126 95.12,-126 95.12,-162"/>
<text xml:space="preserve" text-anchor="middle" x="49.25" y="-138.95" font-family="Times,serif" font-size="14.00">fct_app_plans</text>
</g>
<!-- fct_app_plans&#45;&gt;fct_email_campaign_user_engagement -->
<g id="edge10" class="edge">
<title>fct_app_plans&#45;&gt;fct_email_campaign_user_engagement</title>
<path fill="none" stroke="black" d="M95.45,-136.23C157.12,-127.25 270.57,-116.49 363.5,-140 406.39,-150.85 450.33,-176.68 479.45,-196.27"/>
<polygon fill="none" stroke="black" points="477.26,-199.02 487.49,-201.79 481.22,-193.25 477.26,-199.02"/>
</g>
<!-- fct_app_plans&#45;&gt;dim_user_360_user_accounts -->
<g id="edge9" class="edge">
<title>fct_app_plans&#45;&gt;dim_user_360_user_accounts</title>
<path fill="none" stroke="black" d="M95.62,-149.28C111.56,-151.13 130.15,-153.29 148.76,-155.46"/>
<polygon fill="none" stroke="black" points="148.17,-158.91 158.51,-156.59 148.98,-151.96 148.17,-158.91"/>
</g>
</g>
</svg>
