<?xml version="1.0" encoding="UTF-8" standalone="no"?>
<!DOCTYPE svg PUBLIC "-//W3C//DTD SVG 1.1//EN"
 "http://www.w3.org/Graphics/SVG/1.1/DTD/svg11.dtd">
<!-- Generated by graphviz version 14.1.2 (20260124.0452)
 -->
<!-- Pages: 1 -->
<svg width="637pt" height="385pt"
 viewBox="0.00 0.00 637.00 385.00" xmlns="http://www.w3.org/2000/svg" xmlns:xlink="http://www.w3.org/1999/xlink">
<g id="graph0" class="graph" transform="scale(1 1) rotate(0) translate(4 380.69)">
<polygon fill="white" stroke="none" points="-4,4 -4,-380.69 633.25,-380.69 633.25,4 -4,4"/>
<text xml:space="preserve" text-anchor="start" x="8" y="-23.7" font-family="Times,serif" font-size="14.00"> mkt1_direct_depends</text>
<text xml:space="preserve" text-anchor="start" x="8" y="-7.2" font-family="Times,serif" font-size="14.00"> </text>
<!-- dim_user_360_engagement -->
<g id="node1" class="node">
<title>dim_user_360_engagement</title>
<polygon fill="#cbd5e8" stroke="black" stroke-width="2" points="332.38,-293 165.62,-293 165.62,-257 332.38,-257 332.38,-293"/>
<text xml:space="preserve" text-anchor="middle" x="249" y="-269.95" font-family="Times,serif" font-size="14.00">dim_user_360_engagement</text>
</g>
<!-- fct_email_campaign_user_engagement -->
<g id="node2" class="node">
<title>fct_email_campaign_user_engagement</title>
<polygon fill="#b3e2cd" stroke="black" stroke-width="2" points="629.25,-247 399.5,-247 399.5,-211 629.25,-211 629.25,-247"/>
<text xml:space="preserve" text-anchor="middle" x="514.38" y="-223.95" font-family="Times,serif" font-size="14.00">fct_email_campaign_user_engagement</text>
</g>
<!-- dim_user_360_engagement&#45;&gt;fct_email_campaign_user_engagement -->
<g id="edge1" class="edge">
<title>dim_user_360_engagement&#45;&gt;fct_email_campaign_user_engagement</title>
<path fill="none" stroke="black" d="M332.61,-260.57C352.91,-257.03 375.02,-253.16 396.59,-249.4"/>
<polygon fill="none" stroke="black" points="397.07,-252.87 406.32,-247.7 395.87,-245.97 397.07,-252.87"/>
</g>
<!-- dim_user_360_user_accounts -->
<g id="node3" class="node">
<title>dim_user_360_user_accounts</title>
<polygon fill="#cbd5e8" stroke="black" stroke-width="2" points="337.62,-347 160.38,-347 160.38,-311 337.62,-311 337.62,-347"/>
<text xml:space="preserve" text-anchor="middle" x="249" y="-323.95" font-family="Times,serif" font-size="14.00">dim_user_360_user_accounts</text>
</g>
<!-- dim_user_360_user_accounts&#45;&gt;fct_email_campaign_user_engagement -->
<g id="edge2" class="edge">
<title>dim_user_360_user_accounts&#45;&gt;fct_email_campaign_user_engagement</title>
<path fill="none" stroke="black" d="M336.42,-310.55C345.64,-307.96 354.82,-305.1 363.5,-302 401.04,-288.58 441.58,-268.46 471.02,-252.74"/>
<polygon fill="none" stroke="black" points="472.47,-255.93 479.61,-248.1 469.15,-249.77 472.47,-255.93"/>
</g>
<!-- fct_app_plans -->
<g id="node4" class="node">
<title>fct_app_plans</title>
<polygon fill="#b3e2cd" stroke="black" stroke-width="2" stroke-dasharray="5,2" points="95.12,-370 3.38,-370 3.38,-334 95.12,-334 95.12,-370"/>
<text xml:space="preserve" text-anchor="middle" x="49.25" y="-346.95" font-family="Times,serif" font-size="14.00">fct_app_plans</text>
</g>
<!-- fct_app_plans&#45;&gt;fct_email_campaign_user_engagement -->
<g id="edge4" class="edge">
<title>fct_app_plans&#45;&gt;fct_email_campaign_user_engagement</title>
<path fill="none" stroke="black" d="M95.51,-362.38C157.97,-374.54 273.12,-389.14 363.5,-356 417.71,-336.12 465.76,-287 492.1,-256"/>
<polygon fill="none" stroke="black" points="494.58,-258.49 498.28,-248.56 489.19,-254.01 494.58,-258.49"/>
</g>
<!-- fct_app_plans&#45;&gt;dim_user_360_user_accounts -->
<g id="edge3" class="edge">
<title>fct_app_plans&#45;&gt;dim_user_360_user_accounts</title>
<path fill="none" stroke="black" d="M95.62,-346.72C111.56,-344.87 130.15,-342.71 148.76,-340.54"/>
<polygon fill="none" stroke="black" points="148.98,-344.04 158.51,-339.41 148.17,-337.09 148.98,-344.04"/>
</g>
<!-- stg_campaigns__onboarding_complete -->
<g id="node5" class="node">
<title>stg_campaigns__onboarding_complete</title>
<polygon fill="#fff2ae" stroke="black" stroke-width="2" points="363.5,-201 134.5,-201 134.5,-165 363.5,-165 363.5,-201"/>
<text xml:space="preserve" text-anchor="middle" x="249" y="-177.95" font-family="Times,serif" font-size="14.00">stg_campaigns__onboarding_complete</text>
</g>
<!-- stg_campaigns__onboarding_complete&#45;&gt;fct_email_campaign_user_engagement -->
<g id="edge5" class="edge">
<title>stg_campaigns__onboarding_complete&#45;&gt;fct_email_campaign_user_engagement</title>
<path fill="none" stroke="black" d="M355.61,-201.44C369.16,-203.81 383.09,-206.25 396.81,-208.64"/>
<polygon fill="none" stroke="black" points="395.8,-212.02 406.25,-210.29 397,-205.12 395.8,-212.02"/>
</g>
<!-- stg_campaigns__onboarding_skipped -->
<g id="node6" class="node">
<title>stg_campaigns__onboarding_skipped</title>
<polygon fill="#fff2ae" stroke="black" stroke-width="2" points="359.38,-147 138.62,-147 138.62,-111 359.38,-111 359.38,-147"/>
<text xml:space="preserve" text-anchor="middle" x="249" y="-123.95" font-family="Times,serif" font-size="14.00">stg_campaigns__onboarding_skipped</text>
</g>
<!-- stg_campaigns__onboarding_skipped&#45;&gt;fct_email_campaign_user_engagement -->
<g id="edge6" class="edge">
<title>stg_campaigns__onboarding_skipped&#45;&gt;fct_email_campaign_user_engagement</title>
<path fill="none" stroke="black" d="M336.42,-147.45C345.64,-150.04 354.82,-152.9 363.5,-156 401.04,-169.42 441.58,-189.54 471.02,-205.26"/>
<polygon fill="none" stroke="black" points="469.15,-208.23 479.61,-209.9 472.47,-202.07 469.15,-208.23"/>
</g>
<!-- dim_app_users -->
<g id="node7" class="node">
<title>dim_app_users</title>
<polygon fill="#cbd5e8" stroke="black" stroke-width="2" points="98.5,-293 0,-293 0,-257 98.5,-257 98.5,-293"/>
<text xml:space="preserve" text-anchor="middle" x="49.25" y="-269.95" font-family="Times,serif" font-size="14.00">dim_app_users</text>
</g>
<!-- dim_app_users&#45;&gt;dim_user_360_engagement -->
<g id="edge7" class="edge">
<title>dim_app_users&#45;&gt;dim_user_360_engagement</title>
<path fill="none" stroke="black" d="M98.88,-275C115.53,-275 134.77,-275 153.78,-275"/>
<polygon fill="none" stroke="black" points="153.73,-278.5 163.73,-275 153.73,-271.5 153.73,-278.5"/>
</g>
<!-- dim_app_users&#45;&gt;fct_email_campaign_user_engagement -->
<g id="edge9" class="edge">
<title>dim_app_users&#45;&gt;fct_email_campaign_user_engagement</title>
<path fill="none" stroke="black" d="M98.71,-257.11C110.29,-253.49 122.71,-250.15 134.5,-248 218.16,-232.77 313.82,-228.07 388.08,-227.15"/>
<polygon fill="none" stroke="black" points="387.87,-230.65 397.83,-227.05 387.8,-223.65 387.87,-230.65"/>
</g>
<!-- dim_app_users&#45;&gt;dim_user_360_user_accounts -->
<g id="edge8" class="edge">
<title>dim_app_users&#45;&gt;dim_user_360_user_accounts</title>
<path fill="none" stroke="black" d="M98.62,-291.2C110.31,-294.92 122.81,-298.74 134.5,-302 141.43,-303.93 148.63,-305.85 155.87,-307.71"/>
<polygon fill="none" stroke="black" points="154.87,-311.07 165.43,-310.13 156.59,-304.29 154.87,-311.07"/>
</g>
<!-- stg_campaigns__onboarding_pending -->
<g id="node8" class="node">
<title>stg_campaigns__onboarding_pending</title>
<polygon fill="#fff2ae" stroke="black" stroke-width="2" points="360.12,-93 137.88,-93 137.88,-57 360.12,-57 360.12,-93"/>
<text xml:space="preserve" text-anchor="middle" x="249" y="-69.95" font-family="Times,serif" font-size="14.00">stg_campaigns__onboarding_pending</text>
</g>
<!-- stg_campaigns__onboarding_pending&#45;&gt;fct_email_campaign_user_engagement -->
<g id="edge10" class="edge">
<title>stg_campaigns__onboarding_pending&#45;&gt;fct_email_campaign_user_engagement</title>
<path fill="none" stroke="black" d="M343.57,-93.47C350.46,-95.97 357.17,-98.8 363.5,-102 414.19,-127.64 462.36,-173.67 489.84,-202.71"/>
<polygon fill="none" stroke="black" points="486.94,-204.74 496.32,-209.67 492.06,-199.97 486.94,-204.74"/>
</g>
</g>
</svg>
