<?xml version="1.0" encoding="UTF-8" standalone="no"?>
<!DOCTYPE svg PUBLIC "-//W3C//DTD SVG 1.1//EN"
 "http://www.w3.org/Graphics/SVG/1.1/DTD/svg11.dtd">
<!-- Generated by graphviz version 14.1.2 (20260124.0452)
 -->
<!-- Pages: 1 -->
<svg width="607pt" height="370pt"
 viewBox="0.00 0.00 607.00 370.00" xmlns="http://www.w3.org/2000/svg" xmlns:xlink="http://www.w3.org/1999/xlink">
<g id="graph0" class="graph" transform="scale(1 1) rotate(0) translate(4 365.97)">
<polygon fill="white" stroke="none" points="-4,4 -4,-365.97 603.25,-365.97 603.25,4 -4,4"/>
<text xml:space="preserve" text-anchor="start" x="8" y="-23.7" font-family="Times,serif" font-size="14.00">mkt1_direct_depends_rpt</text>
<text xml:space="preserve" text-anchor="start" x="8" y="-7.2" font-family="Times,serif" font-size="14.00"> </text>
<!-- dim_user_360_user_accounts -->
<g id="node1" class="node">
<title>dim_user_360_user_accounts</title>
<polygon fill="#cbd5e8" stroke="black" stroke-width="2" points="337.62,-185 160.38,-185 160.38,-149 337.62,-149 337.62,-185"/>
<text xml:space="preserve" text-anchor="middle" x="249" y="-161.95" font-family="Times,serif" font-size="14.00">dim_user_360_user_accounts</text>
</g>
<!-- rpt_email_campaign_impact -->
<g id="node2" class="node">
<title>rpt_email_campaign_impact</title>
<polygon fill="seashell" stroke="black" stroke-width="2" points="585.75,-262 413,-262 413,-226 585.75,-226 585.75,-262"/>
<text xml:space="preserve" text-anchor="middle" x="499.38" y="-238.95" font-family="Times,serif" font-size="14.00">rpt_email_campaign_impact</text>
</g>
<!-- dim_user_360_user_accounts&#45;&gt;rpt_email_campaign_impact -->
<g id="edge1" class="edge">
<title>dim_user_360_user_accounts&#45;&gt;rpt_email_campaign_impact</title>
<path fill="none" stroke="black" d="M332.76,-185.45C343.16,-188.13 353.61,-191 363.5,-194 389.72,-201.95 418.23,-212.26 442.26,-221.46"/>
<polygon fill="none" stroke="black" points="440.96,-224.71 451.55,-225.05 443.48,-218.18 440.96,-224.71"/>
</g>
<!-- rpt_user_email_campaign_results -->
<g id="node3" class="node">
<title>rpt_user_email_campaign_results</title>
<polygon fill="seashell" stroke="black" stroke-width="2" points="599.25,-158 399.5,-158 399.5,-122 599.25,-122 599.25,-158"/>
<text xml:space="preserve" text-anchor="middle" x="499.38" y="-134.95" font-family="Times,serif" font-size="14.00">rpt_user_email_campaign_results</text>
</g>
<!-- dim_user_360_user_accounts&#45;&gt;rpt_user_email_campaign_results -->
<g id="edge2" class="edge">
<title>dim_user_360_user_accounts&#45;&gt;rpt_user_email_campaign_results</title>
<path fill="none" stroke="black" d="M337.92,-157.44C354.17,-155.68 371.34,-153.81 388.16,-151.98"/>
<polygon fill="none" stroke="black" points="388.08,-155.51 397.64,-150.95 387.32,-148.55 388.08,-155.51"/>
</g>
<!-- stg_campaigns__onboarding_pending -->
<g id="node4" class="node">
<title>stg_campaigns__onboarding_pending</title>
<polygon fill="#fff2ae" stroke="black" stroke-width="2" points="360.12,-331 137.88,-331 137.88,-295 360.12,-295 360.12,-331"/>
<text xml:space="preserve" text-anchor="middle" x="249" y="-307.95" font-family="Times,serif" font-size="14.00">stg_campaigns__onboarding_pending</text>
</g>
<!-- stg_campaigns__onboarding_pending&#45;&gt;rpt_email_campaign_impact -->
<g id="edge3" class="edge">
<title>stg_campaigns__onboarding_pending&#45;&gt;rpt_email_campaign_impact</title>
<path fill="none" stroke="black" d="M316.56,-294.51C348.85,-285.54 387.81,-274.72 421.37,-265.39"/>
<polygon fill="none" stroke="black" points="421.91,-268.88 430.6,-262.83 420.03,-262.13 421.91,-268.88"/>
</g>
<!-- stg_campaigns__onboarding_skipped -->
<g id="node5" class="node">
<title>stg_campaigns__onboarding_skipped</title>
<polygon fill="#fff2ae" stroke="black" stroke-width="2" points="359.38,-239 138.62,-239 138.62,-203 359.38,-203 359.38,-239"/>
<text xml:space="preserve" text-anchor="middle" x="249" y="-215.95" font-family="Times,serif" font-size="14.00">stg_campaigns__onboarding_skipped</text>
</g>
<!-- stg_campaigns__onboarding_skipped&#45;&gt;rpt_email_campaign_impact -->
<g id="edge4" class="edge">
<title>stg_campaigns__onboarding_skipped&#45;&gt;rpt_email_campaign_impact</title>
<path fill="none" stroke="black" d="M359.66,-231.16C373.57,-232.44 387.73,-233.75 401.42,-235.02"/>
<polygon fill="none" stroke="black" points="401.01,-238.5 411.29,-235.94 401.65,-231.53 401.01,-238.5"/>
</g>
<!-- stg_campaigns__onboarding_skipped&#45;&gt;rpt_user_email_campaign_results -->
<g id="edge5" class="edge">
<title>stg_campaigns__onboarding_skipped&#45;&gt;rpt_user_email_campaign_results</title>
<path fill="none" stroke="black" d="M333.76,-202.56C343.84,-199.9 353.94,-197.03 363.5,-194 391.48,-185.12 421.89,-173.16 446.74,-162.75"/>
<polygon fill="none" stroke="black" points="447.79,-166.1 455.64,-158.98 445.06,-159.66 447.79,-166.1"/>
</g>
<!-- fct_app_plans -->
<g id="node6" class="node">
<title>fct_app_plans</title>
<polygon fill="#b3e2cd" stroke="black" stroke-width="2" stroke-dasharray="5,2" points="95.12,-308 3.38,-308 3.38,-272 95.12,-272 95.12,-308"/>
<text xml:space="preserve" text-anchor="middle" x="49.25" y="-284.95" font-family="Times,serif" font-size="14.00">fct_app_plans</text>
</g>
<!-- fct_app_plans&#45;&gt;dim_user_360_user_accounts -->
<g id="edge6" class="edge">
<title>fct_app_plans&#45;&gt;dim_user_360_user_accounts</title>
<path fill="none" stroke="black" d="M61.2,-271.75C75.34,-249.82 102.02,-213.56 134.5,-194 139.31,-191.1 144.41,-188.52 149.68,-186.21"/>
<polygon fill="none" stroke="black" points="150.59,-189.61 158.59,-182.66 148,-183.11 150.59,-189.61"/>
</g>
<!-- fct_app_plans&#45;&gt;rpt_email_campaign_impact -->
<g id="edge7" class="edge">
<title>fct_app_plans&#45;&gt;rpt_email_campaign_impact</title>
<path fill="none" stroke="black" d="M73.37,-308.37C89.48,-319.95 112.03,-333.83 134.5,-340 232.65,-366.93 266.55,-370.98 363.5,-340 406.36,-326.3 447.23,-293.46 472.53,-270.01"/>
<polygon fill="none" stroke="black" points="474.86,-272.62 479.7,-263.19 470.04,-267.54 474.86,-272.62"/>
</g>
<!-- dim_user_360_engagement -->
<g id="node7" class="node">
<title>dim_user_360_engagement</title>
<polygon fill="#cbd5e8" stroke="black" stroke-width="2" points="332.38,-131 165.62,-131 165.62,-95 332.38,-95 332.38,-131"/>
<text xml:space="preserve" text-anchor="middle" x="249" y="-107.95" font-family="Times,serif" font-size="14.00">dim_user_360_engagement</text>
</g>
<!-- dim_user_360_engagement&#45;&gt;rpt_email_campaign_impact -->
<g id="edge8" class="edge">
<title>dim_user_360_engagement&#45;&gt;rpt_email_campaign_impact</title>
<path fill="none" stroke="black" d="M332.64,-128.29C343.27,-131.51 353.81,-135.38 363.5,-140 366.39,-141.38 427.05,-188.45 466.03,-218.79"/>
<polygon fill="none" stroke="black" points="463.71,-221.42 473.75,-224.8 468.01,-215.9 463.71,-221.42"/>
</g>
<!-- dim_user_360_engagement&#45;&gt;rpt_user_email_campaign_results -->
<g id="edge9" class="edge">
<title>dim_user_360_engagement&#45;&gt;rpt_user_email_campaign_results</title>
<path fill="none" stroke="black" d="M332.71,-121.99C350.43,-123.92 369.44,-125.98 388.02,-128"/>
<polygon fill="none" stroke="black" points="387.39,-131.46 397.71,-129.06 388.15,-124.5 387.39,-131.46"/>
</g>
<!-- stg_campaigns__onboarding_complete -->
<g id="node8" class="node">
<title>stg_campaigns__onboarding_complete</title>
<polygon fill="#fff2ae" stroke="black" stroke-width="2" points="363.5,-77 134.5,-77 134.5,-41 363.5,-41 363.5,-77"/>
<text xml:space="preserve" text-anchor="middle" x="249" y="-53.95" font-family="Times,serif" font-size="14.00">stg_campaigns__onboarding_complete</text>
</g>
<!-- stg_campaigns__onboarding_complete&#45;&gt;rpt_user_email_campaign_results -->
<g id="edge10" class="edge">
<title>stg_campaigns__onboarding_complete&#45;&gt;rpt_user_email_campaign_results</title>
<path fill="none" stroke="black" d="M333.76,-77.44C343.84,-80.1 353.94,-82.97 363.5,-86 391.48,-94.88 421.89,-106.84 446.74,-117.25"/>
<polygon fill="none" stroke="black" points="445.06,-120.34 455.64,-121.02 447.79,-113.9 445.06,-120.34"/>
</g>
<!-- dim_app_users -->
<g id="node9" class="node">
<title>dim_app_users</title>
<polygon fill="#cbd5e8" stroke="black" stroke-width="2" points="98.5,-185 0,-185 0,-149 98.5,-149 98.5,-185"/>
<text xml:space="preserve" text-anchor="middle" x="49.25" y="-161.95" font-family="Times,serif" font-size="14.00">dim_app_users</text>
</g>
<!-- dim_app_users&#45;&gt;dim_user_360_user_accounts -->
<g id="edge11" class="edge">
<title>dim_app_users&#45;&gt;dim_user_360_user_accounts</title>
<path fill="none" stroke="black" d="M98.88,-167C114.08,-167 131.43,-167 148.8,-167"/>
<polygon fill="none" stroke="black" points="148.68,-170.5 158.68,-167 148.68,-163.5 148.68,-170.5"/>
</g>
<!-- dim_app_users&#45;&gt;rpt_email_campaign_impact -->
<g id="edge12" class="edge">
<title>dim_app_users&#45;&gt;rpt_email_campaign_impact</title>
<path fill="none" stroke="black" d="M62.58,-185.33C77.11,-205.09 103.26,-235.42 134.5,-248 221.08,-282.87 328.91,-276.16 404.63,-264.25"/>
<polygon fill="none" stroke="black" points="404.77,-267.77 414.07,-262.7 403.64,-260.87 404.77,-267.77"/>
</g>
<!-- dim_app_users&#45;&gt;dim_user_360_engagement -->
<g id="edge13" class="edge">
<title>dim_app_users&#45;&gt;dim_user_360_engagement</title>
<path fill="none" stroke="black" d="M98.62,-150.8C110.31,-147.08 122.81,-143.26 134.5,-140 141.43,-138.07 148.63,-136.15 155.87,-134.29"/>
<polygon fill="none" stroke="black" points="156.59,-137.71 165.43,-131.87 154.87,-130.93 156.59,-137.71"/>
</g>
</g>
</svg>
