<?xml version="1.0" encoding="UTF-8" standalone="no"?>
<!DOCTYPE svg PUBLIC "-//W3C//DTD SVG 1.1//EN"
 "http://www.w3.org/Graphics/SVG/1.1/DTD/svg11.dtd">
<!-- Generated by graphviz version 14.1.2 (20260124.0452)
 -->
<!-- Pages: 1 -->
<svg width="637pt" height="369pt"
 viewBox="0.00 0.00 637.00 369.00" xmlns="http://www.w3.org/2000/svg" xmlns:xlink="http://www.w3.org/1999/xlink">
<g id="graph0" class="graph" transform="scale(1 1) rotate(0) translate(4 364.69)">
<polygon fill="white" stroke="none" points="-4,4 -4,-364.69 633.25,-364.69 633.25,4 -4,4"/>
<text xml:space="preserve" text-anchor="start" x="8" y="-23.7" font-family="Times,serif" font-size="14.00">mkt1_direct_depends_fct</text>
<text xml:space="preserve" text-anchor="start" x="8" y="-7.2" font-family="Times,serif" font-size="14.00"> </text>
<!-- dim_user_360_engagement -->
<g id="node1" class="node">
<title>dim_user_360_engagement</title>
<polygon fill="#cbd5e8" stroke="black" stroke-width="2" points="332.38,-277 165.62,-277 165.62,-241 332.38,-241 332.38,-277"/>
<text xml:space="preserve" text-anchor="middle" x="249" y="-253.95" font-family="Times,serif" font-size="14.00">dim_user_360_engagement</text>
</g>
<!-- fct_email_campaign_user_engagement -->
<g id="node2" class="node">
<title>fct_email_campaign_user_engagement</title>
<polygon fill="#b3e2cd" stroke="black" stroke-width="2" points="629.25,-231 399.5,-231 399.5,-195 629.25,-195 629.25,-231"/>
<text xml:space="preserve" text-anchor="middle" x="514.38" y="-207.95" font-family="Times,serif" font-size="14.00">fct_email_campaign_user_engagement</text>
</g>
<!-- dim_user_360_engagement&#45;&gt;fct_email_campaign_user_engagement -->
<g id="edge1" class="edge">
<title>dim_user_360_engagement&#45;&gt;fct_email_campaign_user_engagement</title>
<path fill="none" stroke="black" d="M332.61,-244.57C352.91,-241.03 375.02,-237.16 396.59,-233.4"/>
<polygon fill="none" stroke="black" points="397.07,-236.87 406.32,-231.7 395.87,-229.97 397.07,-236.87"/>
</g>
<!-- fct_app_plans -->
<g id="node3" class="node">
<title>fct_app_plans</title>
<polygon fill="#b3e2cd" stroke="black" stroke-width="2" stroke-dasharray="5,2" points="95.12,-354 3.38,-354 3.38,-318 95.12,-318 95.12,-354"/>
<text xml:space="preserve" text-anchor="middle" x="49.25" y="-330.95" font-family="Times,serif" font-size="14.00">fct_app_plans</text>
</g>
<!-- fct_app_plans&#45;&gt;fct_email_campaign_user_engagement -->
<g id="edge3" class="edge">
<title>fct_app_plans&#45;&gt;fct_email_campaign_user_engagement</title>
<path fill="none" stroke="black" d="M95.51,-346.38C157.97,-358.54 273.12,-373.14 363.5,-340 417.71,-320.12 465.76,-271 492.1,-240"/>
<polygon fill="none" stroke="black" points="494.58,-242.49 498.28,-232.56 489.19,-238.01 494.58,-242.49"/>
</g>
<!-- dim_user_360_user_accounts -->
<g id="node4" class="node">
<title>dim_user_360_user_accounts</title>
<polygon fill="#cbd5e8" stroke="black" stroke-width="2" points="337.62,-331 160.38,-331 160.38,-295 337.62,-295 337.62,-331"/>
<text xml:space="preserve" text-anchor="middle" x="249" y="-307.95" font-family="Times,serif" font-size="14.00">dim_user_360_user_accounts</text>
</g>
<!-- fct_app_plans&#45;&gt;dim_user_360_user_accounts -->
<g id="edge2" class="edge">
<title>fct_app_plans&#45;&gt;dim_user_360_user_accounts</title>
<path fill="none" stroke="black" d="M95.62,-330.72C111.56,-328.87 130.15,-326.71 148.76,-324.54"/>
<polygon fill="none" stroke="black" points="148.98,-328.04 158.51,-323.41 148.17,-321.09 148.98,-328.04"/>
</g>
<!-- dim_user_360_user_accounts&#45;&gt;fct_email_campaign_user_engagement -->
<g id="edge5" class="edge">
<title>dim_user_360_user_accounts&#45;&gt;fct_email_campaign_user_engagement</title>
<path fill="none" stroke="black" d="M336.42,-294.55C345.64,-291.96 354.82,-289.1 363.5,-286 401.04,-272.58 441.58,-252.46 471.02,-236.74"/>
<polygon fill="none" stroke="black" points="472.47,-239.93 479.61,-232.1 469.15,-233.77 472.47,-239.93"/>
</g>
<!-- stg_campaigns__onboarding_complete -->
<g id="node5" class="node">
<title>stg_campaigns__onboarding_complete</title>
<polygon fill="#fff2ae" stroke="black" stroke-width="2" points="363.5,-185 134.5,-185 134.5,-149 363.5,-149 363.5,-185"/>
<text xml:space="preserve" text-anchor="middle" x="249" y="-161.95" font-family="Times,serif" font-size="14.00">stg_campaigns__onboarding_complete</text>
</g>
<!-- stg_campaigns__onboarding_complete&#45;&gt;fct_email_campaign_user_engagement -->
<g id="edge4" class="edge">
<title>stg_campaigns__onboarding_complete&#45;&gt;fct_email_campaign_user_engagement</title>
<path fill="none" stroke="black" d="M355.61,-185.44C369.16,-187.81 383.09,-190.25 396.81,-192.64"/>
<polygon fill="none" stroke="black" points="395.8,-196.02 406.25,-194.29 397,-189.12 395.8,-196.02"/>
</g>
<!-- stg_campaigns__onboarding_pending -->
<g id="node6" class="node">
<title>stg_campaigns__onboarding_pending</title>
<polygon fill="#fff2ae" stroke="black" stroke-width="2" points="360.12,-131 137.88,-131 137.88,-95 360.12,-95 360.12,-131"/>
<text xml:space="preserve" text-anchor="middle" x="249" y="-107.95" font-family="Times,serif" font-size="14.00">stg_campaigns__onboarding_pending</text>
</g>
<!-- stg_campaigns__onboarding_pending&#45;&gt;fct_email_campaign_user_engagement -->
<g id="edge6" class="edge">
<title>stg_campaigns__onboarding_pending&#45;&gt;fct_email_campaign_user_engagement</title>
<path fill="none" stroke="black" d="M336.42,-131.45C345.64,-134.04 354.82,-136.9 363.5,-140 401.04,-153.42 441.58,-173.54 471.02,-189.26"/>
<polygon fill="none" stroke="black" points="469.15,-192.23 479.61,-193.9 472.47,-186.07 469.15,-192.23"/>
</g>
<!-- dim_app_users -->
<g id="node7" class="node">
<title>dim_app_users</title>
<polygon fill="#cbd5e8" stroke="black" stroke-width="2" points="98.5,-277 0,-277 0,-241 98.5,-241 98.5,-277"/>
<text xml:space="preserve" text-anchor="middle" x="49.25" y="-253.95" font-family="Times,serif" font-size="14.00">dim_app_users</text>
</g>
<!-- dim_app_users&#45;&gt;dim_user_360_engagement -->
<g id="edge7" class="edge">
<title>dim_app_users&#45;&gt;dim_user_360_engagement</title>
<path fill="none" stroke="black" d="M98.88,-259C115.53,-259 134.77,-259 153.78,-259"/>
<polygon fill="none" stroke="black" points="153.73,-262.5 163.73,-259 153.73,-255.5 153.73,-262.5"/>
</g>
<!-- dim_app_users&#45;&gt;fct_email_campaign_user_engagement -->
<g id="edge9" class="edge">
<title>dim_app_users&#45;&gt;fct_email_campaign_user_engagement</title>
<path fill="none" stroke="black" d="M98.71,-241.11C110.29,-237.49 122.71,-234.15 134.5,-232 218.16,-216.77 313.82,-212.07 388.08,-211.15"/>
<polygon fill="none" stroke="black" points="387.87,-214.65 397.83,-211.05 387.8,-207.65 387.87,-214.65"/>
</g>
<!-- dim_app_users&#45;&gt;dim_user_360_user_accounts -->
<g id="edge8" class="edge">
<title>dim_app_users&#45;&gt;dim_user_360_user_accounts</title>
<path fill="none" stroke="black" d="M98.62,-275.2C110.31,-278.92 122.81,-282.74 134.5,-286 141.43,-287.93 148.63,-289.85 155.87,-291.71"/>
<polygon fill="none" stroke="black" points="154.87,-295.07 165.43,-294.13 156.59,-288.29 154.87,-295.07"/>
</g>
<!-- stg_campaigns__onboarding_skipped -->
<g id="node8" class="node">
<title>stg_campaigns__onboarding_skipped</title>
<polygon fill="#fff2ae" stroke="black" stroke-width="2" points="359.38,-77 138.62,-77 138.62,-41 359.38,-41 359.38,-77"/>
<text xml:space="preserve" text-anchor="middle" x="249" y="-53.95" font-family="Times,serif" font-size="14.00">stg_campaigns__onboarding_skipped</text>
</g>
<!-- stg_campaigns__onboarding_skipped&#45;&gt;fct_email_campaign_user_engagement -->
<g id="edge10" class="edge">
<title>stg_campaigns__onboarding_skipped&#45;&gt;fct_email_campaign_user_engagement</title>
<path fill="none" stroke="black" d="M343.57,-77.47C350.46,-79.97 357.17,-82.8 363.5,-86 414.19,-111.64 462.36,-157.67 489.84,-186.71"/>
<polygon fill="none" stroke="black" points="486.94,-188.74 496.32,-193.67 492.06,-183.97 486.94,-188.74"/>
</g>
</g>
</svg>
