<?xml version="1.0" encoding="UTF-8" standalone="no"?>
<!DOCTYPE svg PUBLIC "-//W3C//DTD SVG 1.1//EN"
 "http://www.w3.org/Graphics/SVG/1.1/DTD/svg11.dtd">
<!-- Generated by graphviz version 14.1.2 (20260124.0452)
 -->
<!-- Pages: 1 -->
<svg width="607pt" height="383pt"
 viewBox="0.00 0.00 607.00 383.00" xmlns="http://www.w3.org/2000/svg" xmlns:xlink="http://www.w3.org/1999/xlink">
<g id="graph0" class="graph" transform="scale(1 1) rotate(0) translate(4 379.27)">
<polygon fill="white" stroke="none" points="-4,4 -4,-379.27 603.25,-379.27 603.25,4 -4,4"/>
<text xml:space="preserve" text-anchor="start" x="8" y="-23.7" font-family="Times,serif" font-size="14.00"> mkt1_direct_depends</text>
<text xml:space="preserve" text-anchor="start" x="8" y="-7.2" font-family="Times,serif" font-size="14.00"> </text>
<!-- fct_app_plans -->
<g id="node1" class="node">
<title>fct_app_plans</title>
<polygon fill="#b3e2cd" stroke="black" stroke-width="2" stroke-dasharray="5,2" points="95.12,-347 3.38,-347 3.38,-311 95.12,-311 95.12,-347"/>
<text xml:space="preserve" text-anchor="middle" x="49.25" y="-323.95" font-family="Times,serif" font-size="14.00">fct_app_plans</text>
</g>
<!-- dim_user_360_user_accounts -->
<g id="node2" class="node">
<title>dim_user_360_user_accounts</title>
<polygon fill="#cbd5e8" stroke="black" stroke-width="2" points="337.62,-293 160.38,-293 160.38,-257 337.62,-257 337.62,-293"/>
<text xml:space="preserve" text-anchor="middle" x="249" y="-269.95" font-family="Times,serif" font-size="14.00">dim_user_360_user_accounts</text>
</g>
<!-- fct_app_plans&#45;&gt;dim_user_360_user_accounts -->
<g id="edge1" class="edge">
<title>fct_app_plans&#45;&gt;dim_user_360_user_accounts</title>
<path fill="none" stroke="black" d="M95.53,-313.79C108.09,-309.76 121.78,-305.55 134.5,-302 141.43,-300.07 148.63,-298.15 155.87,-296.29"/>
<polygon fill="none" stroke="black" points="156.59,-299.71 165.43,-293.87 154.87,-292.93 156.59,-299.71"/>
</g>
<!-- rpt_email_campaign_impact -->
<g id="node3" class="node">
<title>rpt_email_campaign_impact</title>
<polygon fill="seashell" stroke="black" stroke-width="2" points="585.75,-270 413,-270 413,-234 585.75,-234 585.75,-270"/>
<text xml:space="preserve" text-anchor="middle" x="499.38" y="-246.95" font-family="Times,serif" font-size="14.00">rpt_email_campaign_impact</text>
</g>
<!-- fct_app_plans&#45;&gt;rpt_email_campaign_impact -->
<g id="edge2" class="edge">
<title>fct_app_plans&#45;&gt;rpt_email_campaign_impact</title>
<path fill="none" stroke="black" d="M95.54,-346.35C107.98,-350.33 121.6,-353.98 134.5,-356 235.06,-371.72 267.16,-388.83 363.5,-356 408.26,-340.75 449.73,-303.97 474.56,-278.51"/>
<polygon fill="none" stroke="black" points="476.91,-281.11 481.27,-271.45 471.84,-276.28 476.91,-281.11"/>
</g>
<!-- dim_user_360_user_accounts&#45;&gt;rpt_email_campaign_impact -->
<g id="edge5" class="edge">
<title>dim_user_360_user_accounts&#45;&gt;rpt_email_campaign_impact</title>
<path fill="none" stroke="black" d="M337.92,-266.86C358.4,-264.96 380.34,-262.93 401.2,-261"/>
<polygon fill="none" stroke="black" points="401.52,-264.48 411.16,-260.08 400.88,-257.51 401.52,-264.48"/>
</g>
<!-- rpt_user_email_campaign_results -->
<g id="node5" class="node">
<title>rpt_user_email_campaign_results</title>
<polygon fill="seashell" stroke="black" stroke-width="2" points="599.25,-170 399.5,-170 399.5,-134 599.25,-134 599.25,-170"/>
<text xml:space="preserve" text-anchor="middle" x="499.38" y="-146.95" font-family="Times,serif" font-size="14.00">rpt_user_email_campaign_results</text>
</g>
<!-- dim_user_360_user_accounts&#45;&gt;rpt_user_email_campaign_results -->
<g id="edge6" class="edge">
<title>dim_user_360_user_accounts&#45;&gt;rpt_user_email_campaign_results</title>
<path fill="none" stroke="black" d="M287.18,-256.59C330.93,-234.92 403.63,-198.92 451.28,-175.32"/>
<polygon fill="none" stroke="black" points="452.58,-178.59 459.99,-171.01 449.47,-172.31 452.58,-178.59"/>
</g>
<!-- dim_user_360_engagement -->
<g id="node4" class="node">
<title>dim_user_360_engagement</title>
<polygon fill="#cbd5e8" stroke="black" stroke-width="2" points="332.38,-201 165.62,-201 165.62,-165 332.38,-165 332.38,-201"/>
<text xml:space="preserve" text-anchor="middle" x="249" y="-177.95" font-family="Times,serif" font-size="14.00">dim_user_360_engagement</text>
</g>
<!-- dim_user_360_engagement&#45;&gt;rpt_email_campaign_impact -->
<g id="edge3" class="edge">
<title>dim_user_360_engagement&#45;&gt;rpt_email_campaign_impact</title>
<path fill="none" stroke="black" d="M316.56,-201.49C348.85,-210.46 387.81,-221.28 421.37,-230.61"/>
<polygon fill="none" stroke="black" points="420.03,-233.87 430.6,-233.17 421.91,-227.12 420.03,-233.87"/>
</g>
<!-- dim_user_360_engagement&#45;&gt;rpt_user_email_campaign_results -->
<g id="edge4" class="edge">
<title>dim_user_360_engagement&#45;&gt;rpt_user_email_campaign_results</title>
<path fill="none" stroke="black" d="M332.71,-172.68C350.43,-170.46 369.44,-168.09 388.02,-165.77"/>
<polygon fill="none" stroke="black" points="388.22,-169.28 397.71,-164.56 387.36,-162.33 388.22,-169.28"/>
</g>
<!-- dim_app_users -->
<g id="node6" class="node">
<title>dim_app_users</title>
<polygon fill="#cbd5e8" stroke="black" stroke-width="2" points="98.5,-247 0,-247 0,-211 98.5,-211 98.5,-247"/>
<text xml:space="preserve" text-anchor="middle" x="49.25" y="-223.95" font-family="Times,serif" font-size="14.00">dim_app_users</text>
</g>
<!-- dim_app_users&#45;&gt;dim_user_360_user_accounts -->
<g id="edge8" class="edge">
<title>dim_app_users&#45;&gt;dim_user_360_user_accounts</title>
<path fill="none" stroke="black" d="M98.88,-240.31C116.63,-244.44 137.33,-249.26 157.56,-253.96"/>
<polygon fill="none" stroke="black" points="156.71,-257.36 167.25,-256.22 158.3,-250.54 156.71,-257.36"/>
</g>
<!-- dim_app_users&#45;&gt;rpt_email_campaign_impact -->
<g id="edge9" class="edge">
<title>dim_app_users&#45;&gt;rpt_email_campaign_impact</title>
<path fill="none" stroke="black" d="M98.63,-231.48C170.76,-235.19 307.98,-242.23 401.31,-247.02"/>
<polygon fill="none" stroke="black" points="401.08,-250.51 411.24,-247.53 401.44,-243.52 401.08,-250.51"/>
</g>
<!-- dim_app_users&#45;&gt;dim_user_360_engagement -->
<g id="edge7" class="edge">
<title>dim_app_users&#45;&gt;dim_user_360_engagement</title>
<path fill="none" stroke="black" d="M98.88,-217.69C116.63,-213.56 137.33,-208.74 157.56,-204.04"/>
<polygon fill="none" stroke="black" points="158.3,-207.46 167.25,-201.78 156.71,-200.64 158.3,-207.46"/>
</g>
<!-- stg_campaigns__onboarding_skipped -->
<g id="node7" class="node">
<title>stg_campaigns__onboarding_skipped</title>
<polygon fill="#fff2ae" stroke="black" stroke-width="2" points="359.38,-147 138.62,-147 138.62,-111 359.38,-111 359.38,-147"/>
<text xml:space="preserve" text-anchor="middle" x="249" y="-123.95" font-family="Times,serif" font-size="14.00">stg_campaigns__onboarding_skipped</text>
</g>
<!-- stg_campaigns__onboarding_skipped&#45;&gt;rpt_email_campaign_impact -->
<g id="edge10" class="edge">
<title>stg_campaigns__onboarding_skipped&#45;&gt;rpt_email_campaign_impact</title>
<path fill="none" stroke="black" d="M341.49,-147.47C349.06,-149.99 356.49,-152.82 363.5,-156 374.4,-160.95 428.24,-200.12 464.51,-226.87"/>
<polygon fill="none" stroke="black" points="462.43,-229.68 472.56,-232.81 466.59,-224.05 462.43,-229.68"/>
</g>
<!-- stg_campaigns__onboarding_skipped&#45;&gt;rpt_user_email_campaign_results -->
<g id="edge11" class="edge">
<title>stg_campaigns__onboarding_skipped&#45;&gt;rpt_user_email_campaign_results</title>
<path fill="none" stroke="black" d="M359.66,-139.16C369,-140.02 378.44,-140.89 387.78,-141.76"/>
<polygon fill="none" stroke="black" points="387.31,-145.23 397.59,-142.67 387.96,-138.26 387.31,-145.23"/>
</g>
<!-- stg_campaigns__onboarding_complete -->
<g id="node8" class="node">
<title>stg_campaigns__onboarding_complete</title>
<polygon fill="#fff2ae" stroke="black" stroke-width="2" points="363.5,-93 134.5,-93 134.5,-57 363.5,-57 363.5,-93"/>
<text xml:space="preserve" text-anchor="middle" x="249" y="-69.95" font-family="Times,serif" font-size="14.00">stg_campaigns__onboarding_complete</text>
</g>
<!-- stg_campaigns__onboarding_complete&#45;&gt;rpt_user_email_campaign_results -->
<g id="edge12" class="edge">
<title>stg_campaigns__onboarding_complete&#45;&gt;rpt_user_email_campaign_results</title>
<path fill="none" stroke="black" d="M332.76,-93.45C343.16,-96.13 353.61,-99 363.5,-102 389.72,-109.95 418.23,-120.26 442.26,-129.46"/>
<polygon fill="none" stroke="black" points="440.96,-132.71 451.55,-133.05 443.48,-126.18 440.96,-132.71"/>
</g>
<!-- stg_campaigns__onboarding_pending -->
<g id="node9" class="node">
<title>stg_campaigns__onboarding_pending</title>
<polygon fill="#fff2ae" stroke="black" stroke-width="2" points="360.12,-347 137.88,-347 137.88,-311 360.12,-311 360.12,-347"/>
<text xml:space="preserve" text-anchor="middle" x="249" y="-323.95" font-family="Times,serif" font-size="14.00">stg_campaigns__onboarding_pending</text>
</g>
<!-- stg_campaigns__onboarding_pending&#45;&gt;rpt_email_campaign_impact -->
<g id="edge13" class="edge">
<title>stg_campaigns__onboarding_pending&#45;&gt;rpt_email_campaign_impact</title>
<path fill="none" stroke="black" d="M332.76,-310.55C343.16,-307.87 353.61,-305 363.5,-302 389.72,-294.05 418.23,-283.74 442.26,-274.54"/>
<polygon fill="none" stroke="black" points="443.48,-277.82 451.55,-270.95 440.96,-271.29 443.48,-277.82"/>
</g>
</g>
</svg>
