<?xml version="1.0" encoding="UTF-8" standalone="no"?>
<!DOCTYPE svg PUBLIC "-//W3C//DTD SVG 1.1//EN"
 "http://www.w3.org/Graphics/SVG/1.1/DTD/svg11.dtd">
<!-- Generated by graphviz version 14.1.2 (20260124.0452)
 -->
<!-- Pages: 1 -->
<svg width="854pt" height="605pt"
 viewBox="0.00 0.00 854.00 605.00" xmlns="http://www.w3.org/2000/svg" xmlns:xlink="http://www.w3.org/1999/xlink">
<g id="graph0" class="graph" transform="scale(1 1) rotate(0) translate(4 601.19)">
<polygon fill="white" stroke="none" points="-4,4 -4,-601.19 850.25,-601.19 850.25,4 -4,4"/>
<text xml:space="preserve" text-anchor="start" x="8" y="-23.7" font-family="Times,serif" font-size="14.00">mkt1_user_360_impact</text>
<text xml:space="preserve" text-anchor="start" x="8" y="-7.2" font-family="Times,serif" font-size="14.00"> </text>
<!-- fct_user_360_tickets_tag_user -->
<g id="node1" class="node">
<title>fct_user_360_tickets_tag_user</title>
<polygon fill="#b3e2cd" stroke="black" stroke-width="2" points="820.75,-381.19 639.75,-381.19 639.75,-345.19 820.75,-345.19 820.75,-381.19"/>
<text xml:space="preserve" text-anchor="middle" x="730.25" y="-358.14" font-family="Times,serif" font-size="14.00">fct_user_360_tickets_tag_user</text>
</g>
<!-- fct_user_360_disputes_tag_user -->
<g id="node2" class="node">
<title>fct_user_360_disputes_tag_user</title>
<polygon fill="#b3e2cd" stroke="black" stroke-width="2" points="825.25,-327.19 635.25,-327.19 635.25,-291.19 825.25,-291.19 825.25,-327.19"/>
<text xml:space="preserve" text-anchor="middle" x="730.25" y="-304.14" font-family="Times,serif" font-size="14.00">fct_user_360_disputes_tag_user</text>
</g>
<!-- rpt_user_email_campaign_results -->
<g id="node3" class="node">
<title>rpt_user_email_campaign_results</title>
<polygon fill="seashell" stroke="black" stroke-width="2" points="830.12,-165.19 630.38,-165.19 630.38,-129.19 830.12,-129.19 830.12,-165.19"/>
<text xml:space="preserve" text-anchor="middle" x="730.25" y="-142.14" font-family="Times,serif" font-size="14.00">rpt_user_email_campaign_results</text>
</g>
<!-- fct_user_churn_plans -->
<g id="node4" class="node">
<title>fct_user_churn_plans</title>
<polygon fill="#b3e2cd" stroke="black" stroke-width="2" points="555.75,-211.19 423.5,-211.19 423.5,-175.19 555.75,-175.19 555.75,-211.19"/>
<text xml:space="preserve" text-anchor="middle" x="489.62" y="-188.14" font-family="Times,serif" font-size="14.00">fct_user_churn_plans</text>
</g>
<!-- fct_email_campaign_user_actions -->
<g id="node5" class="node">
<title>fct_email_campaign_user_actions</title>
<polygon fill="#b3e2cd" stroke="black" stroke-width="2" points="831.25,-489.19 629.25,-489.19 629.25,-453.19 831.25,-453.19 831.25,-489.19"/>
<text xml:space="preserve" text-anchor="middle" x="730.25" y="-466.14" font-family="Times,serif" font-size="14.00">fct_email_campaign_user_actions</text>
</g>
<!-- rpt_marketing_app_user_demographics -->
<g id="node6" class="node">
<title>rpt_marketing_app_user_demographics</title>
<polygon fill="seashell" stroke="black" stroke-width="2" points="846.25,-597.19 614.25,-597.19 614.25,-561.19 846.25,-561.19 846.25,-597.19"/>
<text xml:space="preserve" text-anchor="middle" x="730.25" y="-574.14" font-family="Times,serif" font-size="14.00">rpt_marketing_app_user_demographics</text>
</g>
<!-- dim_user_360_event_users_latest -->
<g id="node7" class="node">
<title>dim_user_360_event_users_latest</title>
<polygon fill="#cbd5e8" stroke="black" stroke-width="2" points="365,-386.19 165.25,-386.19 165.25,-350.19 365,-350.19 365,-386.19"/>
<text xml:space="preserve" text-anchor="middle" x="265.12" y="-363.14" font-family="Times,serif" font-size="14.00">dim_user_360_event_users_latest</text>
</g>
<!-- dim_user_360_event_users_latest&#45;&gt;rpt_marketing_app_user_demographics -->
<g id="edge1" class="edge">
<title>dim_user_360_event_users_latest&#45;&gt;rpt_marketing_app_user_demographics</title>
<path fill="none" stroke="black" d="M490.62,-552.19C525.85,-564.78 565.69,-571.86 602.59,-575.75"/>
<polygon fill="none" stroke="black" points="602.14,-579.23 612.43,-576.71 602.82,-572.26 602.14,-579.23"/>
</g>
<!-- rpt_supprt_widget -->
<g id="node8" class="node">
<title>rpt_supprt_widget</title>
<polygon fill="seashell" stroke="black" stroke-width="2" points="787.75,-543.19 672.75,-543.19 672.75,-507.19 787.75,-507.19 787.75,-543.19"/>
<text xml:space="preserve" text-anchor="middle" x="730.25" y="-520.14" font-family="Times,serif" font-size="14.00">rpt_supprt_widget</text>
</g>
<!-- dim_user_360_event_users_latest&#45;&gt;rpt_supprt_widget -->
<g id="edge2" class="edge">
<title>dim_user_360_event_users_latest&#45;&gt;rpt_supprt_widget</title>
<path fill="none" stroke="black" d="M280.33,-386.5C312.35,-426.06 394.69,-518.62 488.62,-552.19"/>
<path fill="none" stroke="black" d="M490.62,-552.19C521.05,-563.07 602.12,-550.87 661.35,-539.56"/>
<polygon fill="none" stroke="black" points="661.87,-543.02 671.02,-537.68 660.54,-536.15 661.87,-543.02"/>
</g>
<!-- dim_user_360_user_accounts -->
<g id="node9" class="node">
<title>dim_user_360_user_accounts</title>
<polygon fill="#cbd5e8" stroke="black" stroke-width="2" points="578.25,-369.19 401,-369.19 401,-333.19 578.25,-333.19 578.25,-369.19"/>
<text xml:space="preserve" text-anchor="middle" x="489.62" y="-346.14" font-family="Times,serif" font-size="14.00">dim_user_360_user_accounts</text>
</g>
<!-- dim_user_360_event_users_latest&#45;&gt;dim_user_360_user_accounts -->
<g id="edge3" class="edge">
<title>dim_user_360_event_users_latest&#45;&gt;dim_user_360_user_accounts</title>
<path fill="none" stroke="black" d="M365.34,-360.61C373.37,-360 381.49,-359.38 389.52,-358.76"/>
<polygon fill="none" stroke="black" points="389.59,-362.27 399.3,-358.02 389.06,-355.29 389.59,-362.27"/>
</g>
<!-- dim_user_360_user_accounts&#45;&gt;fct_user_360_tickets_tag_user -->
<g id="edge21" class="edge">
<title>dim_user_360_user_accounts&#45;&gt;fct_user_360_tickets_tag_user</title>
<path fill="none" stroke="black" d="M578.46,-355.61C594.66,-356.42 611.69,-357.28 628.24,-358.11"/>
<polygon fill="none" stroke="black" points="627.93,-361.6 638.09,-358.61 628.28,-354.61 627.93,-361.6"/>
</g>
<!-- dim_user_360_user_accounts&#45;&gt;fct_user_360_disputes_tag_user -->
<g id="edge22" class="edge">
<title>dim_user_360_user_accounts&#45;&gt;fct_user_360_disputes_tag_user</title>
<path fill="none" stroke="black" d="M578.46,-335.73C593.22,-333.14 608.67,-330.42 623.82,-327.75"/>
<polygon fill="none" stroke="black" points="624.04,-331.26 633.29,-326.08 622.83,-324.37 624.04,-331.26"/>
</g>
<!-- dim_user_360_user_accounts&#45;&gt;rpt_user_email_campaign_results -->
<g id="edge23" class="edge">
<title>dim_user_360_user_accounts&#45;&gt;rpt_user_email_campaign_results</title>
<path fill="none" stroke="black" d="M510.29,-332.73C529.41,-314.02 558.41,-283.58 578.25,-253.19 599.35,-220.89 584.42,-198.66 614.25,-174.19 616.21,-172.58 618.26,-171.06 620.37,-169.63"/>
<polygon fill="none" stroke="black" points="621.9,-172.79 628.71,-164.67 618.33,-166.77 621.9,-172.79"/>
</g>
<!-- dim_user_360_user_accounts&#45;&gt;fct_email_campaign_user_actions -->
<g id="edge24" class="edge">
<title>dim_user_360_user_accounts&#45;&gt;fct_email_campaign_user_actions</title>
<path fill="none" stroke="black" d="M509.51,-369.45C532.43,-390.58 573.14,-424.95 614.25,-444.19 617.79,-445.85 621.45,-447.41 625.18,-448.88"/>
<polygon fill="none" stroke="black" points="623.84,-452.12 634.43,-452.26 626.24,-445.54 623.84,-452.12"/>
</g>
<!-- dim_user_360_user_accounts&#45;&gt;rpt_marketing_app_user_demographics -->
<g id="edge25" class="edge">
<title>dim_user_360_user_accounts&#45;&gt;rpt_marketing_app_user_demographics</title>
<path fill="none" stroke="black" d="M496.45,-369.56C510.11,-409.49 548.14,-504.49 614.25,-552.19 615.79,-553.31 617.38,-554.37 618.99,-555.4"/>
<polygon fill="none" stroke="black" points="616.85,-558.21 627.28,-560.07 620.28,-552.11 616.85,-558.21"/>
</g>
<!-- dim_user_360_user_accounts&#45;&gt;rpt_supprt_widget -->
<g id="edge26" class="edge">
<title>dim_user_360_user_accounts&#45;&gt;rpt_supprt_widget</title>
<path fill="none" stroke="black" d="M500.56,-369.35C518.76,-400.8 560.56,-465.19 614.25,-498.19 628.38,-506.87 645.05,-512.76 661.25,-516.76"/>
<polygon fill="none" stroke="black" points="660.36,-520.15 670.88,-518.91 661.88,-513.32 660.36,-520.15"/>
</g>
<!-- fct_email_campaign_user_engagement -->
<g id="node13" class="node">
<title>fct_email_campaign_user_engagement</title>
<polygon fill="#b3e2cd" stroke="black" stroke-width="2" points="845.12,-219.19 615.38,-219.19 615.38,-183.19 845.12,-183.19 845.12,-219.19"/>
<text xml:space="preserve" text-anchor="middle" x="730.25" y="-196.14" font-family="Times,serif" font-size="14.00">fct_email_campaign_user_engagement</text>
</g>
<!-- dim_user_360_user_accounts&#45;&gt;fct_email_campaign_user_engagement -->
<g id="edge27" class="edge">
<title>dim_user_360_user_accounts&#45;&gt;fct_email_campaign_user_engagement</title>
<path fill="none" stroke="black" d="M559.13,-332.89C566.12,-329.13 572.68,-324.62 578.25,-319.19 609.41,-288.85 581.33,-256.62 614.25,-228.19 615.18,-227.39 616.13,-226.61 617.1,-225.85"/>
<polygon fill="none" stroke="black" points="618.73,-228.97 625.02,-220.45 614.79,-223.19 618.73,-228.97"/>
</g>
<!-- rpt_email_campaign_impact -->
<g id="node14" class="node">
<title>rpt_email_campaign_impact</title>
<polygon fill="seashell" stroke="black" stroke-width="2" points="816.62,-111.19 643.88,-111.19 643.88,-75.19 816.62,-75.19 816.62,-111.19"/>
<text xml:space="preserve" text-anchor="middle" x="730.25" y="-88.14" font-family="Times,serif" font-size="14.00">rpt_email_campaign_impact</text>
</g>
<!-- dim_user_360_user_accounts&#45;&gt;rpt_email_campaign_impact -->
<g id="edge30" class="edge">
<title>dim_user_360_user_accounts&#45;&gt;rpt_email_campaign_impact</title>
<path fill="none" stroke="black" d="M511.76,-333.04C531.71,-314.79 561.06,-284.89 578.25,-253.19 607.45,-199.36 570.22,-162.76 614.25,-120.19 619.8,-114.83 626.2,-110.46 633.08,-106.91"/>
<polygon fill="none" stroke="black" points="634.39,-110.16 642.09,-102.88 631.53,-103.77 634.39,-110.16"/>
</g>
<!-- dim_user_360_app_errors -->
<g id="node18" class="node">
<title>dim_user_360_app_errors</title>
<polygon fill="#cbd5e8" stroke="black" stroke-width="2" points="809.5,-435.19 651,-435.19 651,-399.19 809.5,-399.19 809.5,-435.19"/>
<text xml:space="preserve" text-anchor="middle" x="730.25" y="-412.14" font-family="Times,serif" font-size="14.00">dim_user_360_app_errors</text>
</g>
<!-- dim_user_360_user_accounts&#45;&gt;dim_user_360_app_errors -->
<g id="edge28" class="edge">
<title>dim_user_360_user_accounts&#45;&gt;dim_user_360_app_errors</title>
<path fill="none" stroke="black" d="M546.06,-369.65C567.28,-376.47 591.79,-384.02 614.25,-390.19 622.52,-392.47 631.16,-394.72 639.83,-396.89"/>
<polygon fill="none" stroke="black" points="638.78,-400.24 649.33,-399.24 640.46,-393.44 638.78,-400.24"/>
</g>
<!-- fct_email_campaign_user_plans -->
<g id="node19" class="node">
<title>fct_email_campaign_user_plans</title>
<polygon fill="#b3e2cd" stroke="black" stroke-width="2" points="826.38,-273.19 634.12,-273.19 634.12,-237.19 826.38,-237.19 826.38,-273.19"/>
<text xml:space="preserve" text-anchor="middle" x="730.25" y="-250.14" font-family="Times,serif" font-size="14.00">fct_email_campaign_user_plans</text>
</g>
<!-- dim_user_360_user_accounts&#45;&gt;fct_email_campaign_user_plans -->
<g id="edge29" class="edge">
<title>dim_user_360_user_accounts&#45;&gt;fct_email_campaign_user_plans</title>
<path fill="none" stroke="black" d="M552.18,-332.73C561.25,-328.89 570.23,-324.39 578.25,-319.19 597.51,-306.72 594.28,-293.49 614.25,-282.19 617.23,-280.51 620.32,-278.92 623.47,-277.44"/>
<polygon fill="none" stroke="black" points="624.57,-280.78 632.39,-273.62 621.82,-274.34 624.57,-280.78"/>
</g>
<!-- fct_app_actions -->
<g id="node10" class="node">
<title>fct_app_actions</title>
<polygon fill="#b3e2cd" stroke="black" stroke-width="2" points="115.38,-319.19 13.88,-319.19 13.88,-283.19 115.38,-283.19 115.38,-319.19"/>
<text xml:space="preserve" text-anchor="middle" x="64.62" y="-296.14" font-family="Times,serif" font-size="14.00">fct_app_actions</text>
</g>
<!-- fct_app_actions&#45;&gt;dim_user_360_event_users_latest -->
<g id="edge4" class="edge">
<title>fct_app_actions&#45;&gt;dim_user_360_event_users_latest</title>
<path fill="none" stroke="black" d="M115.71,-319.06C131.53,-324.63 149.1,-330.74 165.25,-336.19 174.98,-339.48 185.27,-342.88 195.39,-346.19"/>
<polygon fill="none" stroke="black" points="194.24,-349.5 204.83,-349.27 196.41,-342.84 194.24,-349.5"/>
</g>
<!-- dim_user_360_engagement -->
<g id="node11" class="node">
<title>dim_user_360_engagement</title>
<polygon fill="#cbd5e8" stroke="black" stroke-width="2" points="348.5,-148.19 181.75,-148.19 181.75,-112.19 348.5,-112.19 348.5,-148.19"/>
<text xml:space="preserve" text-anchor="middle" x="265.12" y="-125.14" font-family="Times,serif" font-size="14.00">dim_user_360_engagement</text>
</g>
<!-- fct_app_actions&#45;&gt;dim_user_360_engagement -->
<g id="edge5" class="edge">
<title>fct_app_actions&#45;&gt;dim_user_360_engagement</title>
<path fill="none" stroke="black" d="M80.67,-282.7C99.24,-260.5 132.38,-222.82 165.25,-195.19 182.9,-180.36 204.07,-166.04 222.29,-154.64"/>
<polygon fill="none" stroke="black" points="224.1,-157.63 230.78,-149.41 220.43,-151.67 224.1,-157.63"/>
</g>
<!-- dim_user_360_engagement&#45;&gt;rpt_user_email_campaign_results -->
<g id="edge6" class="edge">
<title>dim_user_360_engagement&#45;&gt;rpt_user_email_campaign_results</title>
<path fill="none" stroke="black" d="M490.62,-147.19C532.35,-148.77 578.21,-149.11 618.48,-148.93"/>
<polygon fill="none" stroke="black" points="618.46,-152.43 628.44,-148.88 618.42,-145.43 618.46,-152.43"/>
</g>
<!-- dim_user_360_engagement&#45;&gt;fct_user_churn_plans -->
<g id="edge7" class="edge">
<title>dim_user_360_engagement&#45;&gt;fct_user_churn_plans</title>
<path fill="none" stroke="black" d="M331.38,-148.67C356.85,-155.88 386.22,-164.2 412.64,-171.68"/>
<polygon fill="none" stroke="black" points="411.34,-174.95 421.92,-174.3 413.25,-168.21 411.34,-174.95"/>
</g>
<!-- fct_user_churn_actions -->
<g id="node12" class="node">
<title>fct_user_churn_actions</title>
<polygon fill="#b3e2cd" stroke="black" stroke-width="2" points="560.62,-119.19 418.62,-119.19 418.62,-83.19 560.62,-83.19 560.62,-119.19"/>
<text xml:space="preserve" text-anchor="middle" x="489.62" y="-96.14" font-family="Times,serif" font-size="14.00">fct_user_churn_actions</text>
</g>
<!-- dim_user_360_engagement&#45;&gt;fct_user_churn_actions -->
<g id="edge8" class="edge">
<title>dim_user_360_engagement&#45;&gt;fct_user_churn_actions</title>
<path fill="none" stroke="black" d="M348.98,-119.39C367.99,-116.92 388.2,-114.28 407.16,-111.81"/>
<polygon fill="none" stroke="black" points="407.5,-115.3 416.97,-110.53 406.6,-108.35 407.5,-115.3"/>
</g>
<!-- dim_user_360_engagement&#45;&gt;fct_email_campaign_user_engagement -->
<g id="edge9" class="edge">
<title>dim_user_360_engagement&#45;&gt;fct_email_campaign_user_engagement</title>
<path fill="none" stroke="black" d="M490.62,-147.19C498.4,-147.49 575.45,-165.13 639.92,-180.17"/>
<polygon fill="none" stroke="black" points="638.96,-183.54 649.5,-182.41 640.55,-176.73 638.96,-183.54"/>
</g>
<!-- dim_user_360_engagement&#45;&gt;rpt_email_campaign_impact -->
<g id="edge10" class="edge">
<title>dim_user_360_engagement&#45;&gt;rpt_email_campaign_impact</title>
<path fill="none" stroke="black" d="M490.62,-147.19C530.45,-148.7 539.37,-136.91 578.25,-128.19 598.08,-123.75 619.35,-118.88 639.48,-114.22"/>
<polygon fill="none" stroke="black" points="640.11,-117.67 649.06,-112 638.53,-110.85 640.11,-117.67"/>
<path fill="none" stroke="black" d="M348.98,-138.05C390.81,-141.62 442.36,-145.44 488.62,-147.19"/>
</g>
<!-- dim_app_users -->
<g id="node15" class="node">
<title>dim_app_users</title>
<polygon fill="#cbd5e8" stroke="black" stroke-width="2" points="113.88,-198.19 15.37,-198.19 15.37,-162.19 113.88,-162.19 113.88,-198.19"/>
<text xml:space="preserve" text-anchor="middle" x="64.62" y="-175.14" font-family="Times,serif" font-size="14.00">dim_app_users</text>
</g>
<!-- dim_app_users&#45;&gt;fct_user_churn_plans -->
<g id="edge11" class="edge">
<title>dim_app_users&#45;&gt;fct_user_churn_plans</title>
<path fill="none" stroke="black" d="M114.15,-181.68C186.94,-183.92 325.09,-188.17 411.71,-190.83"/>
<polygon fill="none" stroke="black" points="411.44,-194.32 421.54,-191.13 411.66,-187.33 411.44,-194.32"/>
</g>
<!-- dim_app_users&#45;&gt;dim_user_360_event_users_latest -->
<g id="edge12" class="edge">
<title>dim_app_users&#45;&gt;dim_user_360_event_users_latest</title>
<path fill="none" stroke="black" d="M78.68,-198.67C91.82,-217.45 112.49,-247.49 129.25,-274.19 146.19,-301.18 140.45,-316.19 165.25,-336.19 169,-339.22 173.05,-341.96 177.29,-344.45"/>
<polygon fill="none" stroke="black" points="175.65,-347.55 186.13,-349.09 178.9,-341.35 175.65,-347.55"/>
</g>
<!-- dim_app_users&#45;&gt;dim_user_360_user_accounts -->
<g id="edge16" class="edge">
<title>dim_app_users&#45;&gt;dim_user_360_user_accounts</title>
<path fill="none" stroke="black" d="M266.12,-322.19C288.88,-329.77 341.24,-336.77 389.45,-341.99"/>
<polygon fill="none" stroke="black" points="388.8,-345.44 399.12,-343.02 389.54,-338.48 388.8,-345.44"/>
</g>
<!-- dim_app_users&#45;&gt;dim_user_360_engagement -->
<g id="edge13" class="edge">
<title>dim_app_users&#45;&gt;dim_user_360_engagement</title>
<path fill="none" stroke="black" d="M114.18,-167.96C134.01,-162.97 157.52,-157.04 179.98,-151.39"/>
<polygon fill="none" stroke="black" points="180.59,-154.84 189.43,-149.01 178.88,-148.06 180.59,-154.84"/>
</g>
<!-- dim_app_users&#45;&gt;fct_user_churn_actions -->
<g id="edge14" class="edge">
<title>dim_app_users&#45;&gt;fct_user_churn_actions</title>
<path fill="none" stroke="black" d="M266.12,-55.19C294.35,-48.65 363.43,-64.76 417.19,-79.68"/>
<polygon fill="none" stroke="black" points="416.04,-82.99 426.61,-82.33 417.93,-76.25 416.04,-82.99"/>
</g>
<!-- dim_app_users&#45;&gt;fct_email_campaign_user_engagement -->
<g id="edge15" class="edge">
<title>dim_app_users&#45;&gt;fct_email_campaign_user_engagement</title>
<path fill="none" stroke="black" d="M266.12,-322.19C308.58,-336.33 321.24,-312.52 365,-303.19 460.21,-282.89 489.31,-292.77 578.25,-253.19 596.05,-245.27 596.45,-236.11 614.25,-228.19 618.03,-226.51 621.93,-224.92 625.91,-223.43"/>
<polygon fill="none" stroke="black" points="626.88,-226.8 635.16,-220.19 624.56,-220.19 626.88,-226.8"/>
<path fill="none" stroke="black" d="M75.03,-198.64C90.1,-226.16 122.35,-277.48 165.25,-303.19 203.63,-326.2 221.21,-309.5 264.12,-322.19"/>
</g>
<!-- dim_app_users&#45;&gt;rpt_email_campaign_impact -->
<g id="edge17" class="edge">
<title>dim_app_users&#45;&gt;rpt_email_campaign_impact</title>
<path fill="none" stroke="black" d="M266.12,-55.19C398.48,-24.53 557.11,-50.65 650.18,-72.12"/>
<polygon fill="none" stroke="black" points="649.18,-75.48 659.72,-74.36 650.79,-68.67 649.18,-75.48"/>
<path fill="none" stroke="black" d="M114.14,-162.98C119.49,-160.12 124.66,-156.86 129.25,-153.19 150.64,-136.1 144.3,-120.82 165.25,-103.19 202.63,-71.75 216.61,-66.55 264.12,-55.19"/>
</g>
<!-- fct_app_activity_walk -->
<g id="node16" class="node">
<title>fct_app_activity_walk</title>
<polygon fill="#b3e2cd" stroke="black" stroke-width="2" stroke-dasharray="5,2" points="333.5,-294.19 196.75,-294.19 196.75,-258.19 333.5,-258.19 333.5,-294.19"/>
<text xml:space="preserve" text-anchor="middle" x="265.12" y="-271.14" font-family="Times,serif" font-size="14.00">fct_app_activity_walk</text>
</g>
<!-- fct_app_activity_walk&#45;&gt;fct_user_churn_plans -->
<g id="edge18" class="edge">
<title>fct_app_activity_walk&#45;&gt;fct_user_churn_plans</title>
<path fill="none" stroke="black" d="M333.9,-260.81C344.51,-257.51 355.2,-253.65 365,-249.19 382.5,-241.22 383.85,-233.89 401,-225.19 407.6,-221.85 414.64,-218.68 421.74,-215.73"/>
<polygon fill="none" stroke="black" points="422.76,-219.09 430.75,-212.13 420.17,-212.59 422.76,-219.09"/>
</g>
<!-- fct_app_activity_walk&#45;&gt;dim_user_360_user_accounts -->
<g id="edge19" class="edge">
<title>fct_app_activity_walk&#45;&gt;dim_user_360_user_accounts</title>
<path fill="none" stroke="black" d="M323.97,-294.68C337.45,-299.05 351.74,-303.74 365,-308.19 384.72,-314.81 406.15,-322.2 425.53,-328.95"/>
<polygon fill="none" stroke="black" points="424.35,-332.25 434.95,-332.24 426.66,-325.64 424.35,-332.25"/>
</g>
<!-- fct_app_engagement -->
<g id="node17" class="node">
<title>fct_app_engagement</title>
<polygon fill="#b3e2cd" stroke="black" stroke-width="2" stroke-dasharray="5,2" points="129.25,-144.19 0,-144.19 0,-108.19 129.25,-108.19 129.25,-144.19"/>
<text xml:space="preserve" text-anchor="middle" x="64.62" y="-121.14" font-family="Times,serif" font-size="14.00">fct_app_engagement</text>
</g>
<!-- fct_app_engagement&#45;&gt;dim_user_360_engagement -->
<g id="edge20" class="edge">
<title>fct_app_engagement&#45;&gt;dim_user_360_engagement</title>
<path fill="none" stroke="black" d="M129.52,-127.48C142.45,-127.74 156.3,-128.02 170.02,-128.3"/>
<polygon fill="none" stroke="black" points="169.9,-131.79 179.97,-128.5 170.04,-124.8 169.9,-131.79"/>
</g>
<!-- fct_app_plans -->
<g id="node20" class="node">
<title>fct_app_plans</title>
<polygon fill="#b3e2cd" stroke="black" stroke-width="2" stroke-dasharray="5,2" points="311,-240.19 219.25,-240.19 219.25,-204.19 311,-204.19 311,-240.19"/>
<text xml:space="preserve" text-anchor="middle" x="265.12" y="-217.14" font-family="Times,serif" font-size="14.00">fct_app_plans</text>
</g>
<!-- fct_app_plans&#45;&gt;fct_user_churn_plans -->
<g id="edge31" class="edge">
<title>fct_app_plans&#45;&gt;fct_user_churn_plans</title>
<path fill="none" stroke="black" d="M311.42,-216.29C340.3,-212.52 378.46,-207.55 411.98,-203.18"/>
<polygon fill="none" stroke="black" points="412.18,-206.69 421.64,-201.92 411.27,-199.74 412.18,-206.69"/>
</g>
<!-- fct_app_plans&#45;&gt;dim_user_360_user_accounts -->
<g id="edge33" class="edge">
<title>fct_app_plans&#45;&gt;dim_user_360_user_accounts</title>
<path fill="none" stroke="black" d="M311.43,-230.32C328.8,-234.51 348.41,-240.59 365,-249.19 403.06,-268.92 440.09,-301.85 463.54,-324.94"/>
<polygon fill="none" stroke="black" points="460.93,-327.29 470.47,-331.89 465.89,-322.34 460.93,-327.29"/>
</g>
<!-- fct_app_plans&#45;&gt;fct_email_campaign_user_engagement -->
<g id="edge32" class="edge">
<title>fct_app_plans&#45;&gt;fct_email_campaign_user_engagement</title>
<path fill="none" stroke="black" d="M490.62,-239.19C534.78,-235.81 583.1,-228.75 624.64,-221.63"/>
<polygon fill="none" stroke="black" points="625.14,-225.09 634.39,-219.93 623.94,-218.2 625.14,-225.09"/>
</g>
<!-- fct_app_plans&#45;&gt;rpt_email_campaign_impact -->
<g id="edge35" class="edge">
<title>fct_app_plans&#45;&gt;rpt_email_campaign_impact</title>
<path fill="none" stroke="black" d="M311.3,-229.69C356.25,-236.2 427.21,-243.9 488.62,-239.19"/>
<path fill="none" stroke="black" d="M490.62,-239.19C530.36,-236.15 548.27,-246.45 578.25,-220.19 613.78,-189.07 578.99,-151.62 614.25,-120.19 619.91,-115.15 626.33,-111 633.17,-107.59"/>
<polygon fill="none" stroke="black" points="634.31,-110.92 642.08,-103.71 631.51,-104.5 634.31,-110.92"/>
</g>
<!-- fct_app_plans&#45;&gt;fct_email_campaign_user_plans -->
<g id="edge34" class="edge">
<title>fct_app_plans&#45;&gt;fct_email_campaign_user_plans</title>
<path fill="none" stroke="black" d="M490.62,-239.19C533.67,-235.89 581.11,-237.91 622.28,-241.47"/>
<polygon fill="none" stroke="black" points="621.93,-244.96 632.21,-242.38 622.57,-237.99 621.93,-244.96"/>
</g>
</g>
</svg>
