<?xml version="1.0" encoding="UTF-8" standalone="no"?>
<!DOCTYPE svg PUBLIC "-//W3C//DTD SVG 1.1//EN"
 "http://www.w3.org/Graphics/SVG/1.1/DTD/svg11.dtd">
<!-- Generated by graphviz version 14.1.2 (20260124.0452)
 -->
<!-- Pages: 1 -->
<svg width="854pt" height="587pt"
 viewBox="0.00 0.00 854.00 587.00" xmlns="http://www.w3.org/2000/svg" xmlns:xlink="http://www.w3.org/1999/xlink">
<g id="graph0" class="graph" transform="scale(1 1) rotate(0) translate(4 583)">
<polygon fill="white" stroke="none" points="-4,4 -4,-583 850.25,-583 850.25,4 -4,4"/>
<text xml:space="preserve" text-anchor="start" x="8" y="-23.7" font-family="Times,serif" font-size="14.00"> mkt1_user_360_impact</text>
<text xml:space="preserve" text-anchor="start" x="8" y="-7.2" font-family="Times,serif" font-size="14.00"> </text>
<!-- rpt_marketing_app_user_demographics -->
<g id="node1" class="node">
<title>rpt_marketing_app_user_demographics</title>
<polygon fill="seashell" stroke="black" stroke-width="2" points="846.25,-579 614.25,-579 614.25,-543 846.25,-543 846.25,-579"/>
<text xml:space="preserve" text-anchor="middle" x="730.25" y="-555.95" font-family="Times,serif" font-size="14.00">rpt_marketing_app_user_demographics</text>
</g>
<!-- rpt_supprt_widget -->
<g id="node2" class="node">
<title>rpt_supprt_widget</title>
<polygon fill="seashell" stroke="black" stroke-width="2" points="787.75,-525 672.75,-525 672.75,-489 787.75,-489 787.75,-525"/>
<text xml:space="preserve" text-anchor="middle" x="730.25" y="-501.95" font-family="Times,serif" font-size="14.00">rpt_supprt_widget</text>
</g>
<!-- dim_user_360_user_accounts -->
<g id="node3" class="node">
<title>dim_user_360_user_accounts</title>
<polygon fill="#cbd5e8" stroke="black" stroke-width="2" points="578.25,-362 401,-362 401,-326 578.25,-326 578.25,-362"/>
<text xml:space="preserve" text-anchor="middle" x="489.62" y="-338.95" font-family="Times,serif" font-size="14.00">dim_user_360_user_accounts</text>
</g>
<!-- dim_user_360_user_accounts&#45;&gt;rpt_marketing_app_user_demographics -->
<g id="edge1" class="edge">
<title>dim_user_360_user_accounts&#45;&gt;rpt_marketing_app_user_demographics</title>
<path fill="none" stroke="black" d="M497.08,-362.23C511.6,-400.5 550.65,-489.33 614.25,-534 615.84,-535.11 617.46,-536.18 619.12,-537.21"/>
<polygon fill="none" stroke="black" points="617.2,-540.14 627.65,-541.89 620.57,-534.01 617.2,-540.14"/>
</g>
<!-- dim_user_360_user_accounts&#45;&gt;rpt_supprt_widget -->
<g id="edge2" class="edge">
<title>dim_user_360_user_accounts&#45;&gt;rpt_supprt_widget</title>
<path fill="none" stroke="black" d="M501.83,-362.19C521.02,-391.75 563.1,-449.9 614.25,-480 628.47,-488.37 645.1,-494.14 661.24,-498.12"/>
<polygon fill="none" stroke="black" points="660.29,-501.5 670.81,-500.28 661.82,-494.67 660.29,-501.5"/>
</g>
<!-- fct_email_campaign_user_engagement -->
<g id="node4" class="node">
<title>fct_email_campaign_user_engagement</title>
<polygon fill="#b3e2cd" stroke="black" stroke-width="2" points="845.12,-93 615.38,-93 615.38,-57 845.12,-57 845.12,-93"/>
<text xml:space="preserve" text-anchor="middle" x="730.25" y="-69.95" font-family="Times,serif" font-size="14.00">fct_email_campaign_user_engagement</text>
</g>
<!-- dim_user_360_user_accounts&#45;&gt;fct_email_campaign_user_engagement -->
<g id="edge3" class="edge">
<title>dim_user_360_user_accounts&#45;&gt;fct_email_campaign_user_engagement</title>
<path fill="none" stroke="black" d="M562.4,-325.51C568.35,-321.8 573.79,-317.35 578.25,-312 638.91,-239.28 549.36,-170.96 614.25,-102 614.73,-101.49 615.22,-100.98 615.72,-100.49"/>
<polygon fill="none" stroke="black" points="617.83,-103.28 623.24,-94.17 613.33,-97.92 617.83,-103.28"/>
</g>
<!-- fct_user_360_disputes_tag_user -->
<g id="node5" class="node">
<title>fct_user_360_disputes_tag_user</title>
<polygon fill="#b3e2cd" stroke="black" stroke-width="2" points="825.25,-363 635.25,-363 635.25,-327 825.25,-327 825.25,-363"/>
<text xml:space="preserve" text-anchor="middle" x="730.25" y="-339.95" font-family="Times,serif" font-size="14.00">fct_user_360_disputes_tag_user</text>
</g>
<!-- dim_user_360_user_accounts&#45;&gt;fct_user_360_disputes_tag_user -->
<g id="edge4" class="edge">
<title>dim_user_360_user_accounts&#45;&gt;fct_user_360_disputes_tag_user</title>
<path fill="none" stroke="black" d="M578.46,-344.37C593.08,-344.43 608.37,-344.49 623.37,-344.56"/>
<polygon fill="none" stroke="black" points="623.25,-348.06 633.26,-344.6 623.28,-341.06 623.25,-348.06"/>
</g>
<!-- fct_email_campaign_user_plans -->
<g id="node6" class="node">
<title>fct_email_campaign_user_plans</title>
<polygon fill="#b3e2cd" stroke="black" stroke-width="2" points="826.38,-201 634.12,-201 634.12,-165 826.38,-165 826.38,-201"/>
<text xml:space="preserve" text-anchor="middle" x="730.25" y="-177.95" font-family="Times,serif" font-size="14.00">fct_email_campaign_user_plans</text>
</g>
<!-- dim_user_360_user_accounts&#45;&gt;fct_email_campaign_user_plans -->
<g id="edge5" class="edge">
<title>dim_user_360_user_accounts&#45;&gt;fct_email_campaign_user_plans</title>
<path fill="none" stroke="black" d="M559.77,-325.66C566.56,-321.91 572.9,-317.41 578.25,-312 612.06,-277.82 578.46,-242.1 614.25,-210 617.24,-207.32 620.45,-204.89 623.82,-202.69"/>
<polygon fill="none" stroke="black" points="625.43,-205.8 632.4,-197.82 621.98,-199.71 625.43,-205.8"/>
</g>
<!-- dim_user_360_app_errors -->
<g id="node7" class="node">
<title>dim_user_360_app_errors</title>
<polygon fill="#cbd5e8" stroke="black" stroke-width="2" points="809.5,-309 651,-309 651,-273 809.5,-273 809.5,-309"/>
<text xml:space="preserve" text-anchor="middle" x="730.25" y="-285.95" font-family="Times,serif" font-size="14.00">dim_user_360_app_errors</text>
</g>
<!-- dim_user_360_user_accounts&#45;&gt;dim_user_360_app_errors -->
<g id="edge6" class="edge">
<title>dim_user_360_user_accounts&#45;&gt;dim_user_360_app_errors</title>
<path fill="none" stroke="black" d="M573.75,-325.54C595.05,-320.81 618.06,-315.7 639.67,-310.9"/>
<polygon fill="none" stroke="black" points="640.35,-314.33 649.35,-308.75 638.83,-307.5 640.35,-314.33"/>
</g>
<!-- rpt_email_campaign_impact -->
<g id="node8" class="node">
<title>rpt_email_campaign_impact</title>
<polygon fill="seashell" stroke="black" stroke-width="2" points="816.62,-147 643.88,-147 643.88,-111 816.62,-111 816.62,-147"/>
<text xml:space="preserve" text-anchor="middle" x="730.25" y="-123.95" font-family="Times,serif" font-size="14.00">rpt_email_campaign_impact</text>
</g>
<!-- dim_user_360_user_accounts&#45;&gt;rpt_email_campaign_impact -->
<g id="edge7" class="edge">
<title>dim_user_360_user_accounts&#45;&gt;rpt_email_campaign_impact</title>
<path fill="none" stroke="black" d="M561.24,-325.75C567.59,-321.99 573.42,-317.46 578.25,-312 625.37,-258.68 564.03,-206.41 614.25,-156 619.74,-150.48 626.14,-146.01 633.04,-142.39"/>
<polygon fill="none" stroke="black" points="634.43,-145.61 642.1,-138.3 631.55,-139.23 634.43,-145.61"/>
</g>
<!-- fct_user_360_tickets_tag_user -->
<g id="node9" class="node">
<title>fct_user_360_tickets_tag_user</title>
<polygon fill="#b3e2cd" stroke="black" stroke-width="2" points="820.75,-255 639.75,-255 639.75,-219 820.75,-219 820.75,-255"/>
<text xml:space="preserve" text-anchor="middle" x="730.25" y="-231.95" font-family="Times,serif" font-size="14.00">fct_user_360_tickets_tag_user</text>
</g>
<!-- dim_user_360_user_accounts&#45;&gt;fct_user_360_tickets_tag_user -->
<g id="edge8" class="edge">
<title>dim_user_360_user_accounts&#45;&gt;fct_user_360_tickets_tag_user</title>
<path fill="none" stroke="black" d="M554.63,-325.62C562.98,-321.82 571.1,-317.31 578.25,-312 599.66,-296.1 591.93,-278.59 614.25,-264 618.96,-260.92 623.98,-258.2 629.18,-255.78"/>
<polygon fill="none" stroke="black" points="630.13,-259.17 638.01,-252.08 627.43,-252.72 630.13,-259.17"/>
</g>
<!-- fct_email_campaign_user_actions -->
<g id="node10" class="node">
<title>fct_email_campaign_user_actions</title>
<polygon fill="#b3e2cd" stroke="black" stroke-width="2" points="831.25,-417 629.25,-417 629.25,-381 831.25,-381 831.25,-417"/>
<text xml:space="preserve" text-anchor="middle" x="730.25" y="-393.95" font-family="Times,serif" font-size="14.00">fct_email_campaign_user_actions</text>
</g>
<!-- dim_user_360_user_accounts&#45;&gt;fct_email_campaign_user_actions -->
<g id="edge9" class="edge">
<title>dim_user_360_user_accounts&#45;&gt;fct_email_campaign_user_actions</title>
<path fill="none" stroke="black" d="M570.75,-362.47C592.41,-367.46 616.01,-372.9 638.22,-378.02"/>
<polygon fill="none" stroke="black" points="637.33,-381.41 647.86,-380.24 638.91,-374.58 637.33,-381.41"/>
</g>
<!-- rpt_user_email_campaign_results -->
<g id="node11" class="node">
<title>rpt_user_email_campaign_results</title>
<polygon fill="seashell" stroke="black" stroke-width="2" points="830.12,-471 630.38,-471 630.38,-435 830.12,-435 830.12,-471"/>
<text xml:space="preserve" text-anchor="middle" x="730.25" y="-447.95" font-family="Times,serif" font-size="14.00">rpt_user_email_campaign_results</text>
</g>
<!-- dim_user_360_user_accounts&#45;&gt;rpt_user_email_campaign_results -->
<g id="edge10" class="edge">
<title>dim_user_360_user_accounts&#45;&gt;rpt_user_email_campaign_results</title>
<path fill="none" stroke="black" d="M512.9,-362.35C536.62,-381 575.95,-409.44 614.25,-426 618.26,-427.74 622.41,-429.37 626.63,-430.91"/>
<polygon fill="none" stroke="black" points="625.24,-434.13 635.84,-434.04 627.5,-427.51 625.24,-434.13"/>
</g>
<!-- fct_user_churn_plans -->
<g id="node12" class="node">
<title>fct_user_churn_plans</title>
<polygon fill="#b3e2cd" stroke="black" stroke-width="2" points="555.75,-216 423.5,-216 423.5,-180 555.75,-180 555.75,-216"/>
<text xml:space="preserve" text-anchor="middle" x="489.62" y="-192.95" font-family="Times,serif" font-size="14.00">fct_user_churn_plans</text>
</g>
<!-- dim_user_360_engagement -->
<g id="node13" class="node">
<title>dim_user_360_engagement</title>
<polygon fill="#cbd5e8" stroke="black" stroke-width="2" points="348.5,-316 181.75,-316 181.75,-280 348.5,-280 348.5,-316"/>
<text xml:space="preserve" text-anchor="middle" x="265.12" y="-292.95" font-family="Times,serif" font-size="14.00">dim_user_360_engagement</text>
</g>
<!-- dim_user_360_engagement&#45;&gt;fct_email_campaign_user_engagement -->
<g id="edge11" class="edge">
<title>dim_user_360_engagement&#45;&gt;fct_email_campaign_user_engagement</title>
<path fill="none" stroke="black" d="M490.62,-298C528.17,-284.64 550.25,-307.36 578.25,-279 634.65,-221.87 558.34,-159.61 614.25,-102 614.63,-101.6 615.02,-101.21 615.42,-100.83"/>
<polygon fill="none" stroke="black" points="617.64,-103.53 623.11,-94.46 613.18,-98.14 617.64,-103.53"/>
<path fill="none" stroke="black" d="M348.96,-311C391.83,-314.53 444.31,-313.76 488.62,-298"/>
</g>
<!-- dim_user_360_engagement&#45;&gt;rpt_email_campaign_impact -->
<g id="edge13" class="edge">
<title>dim_user_360_engagement&#45;&gt;rpt_email_campaign_impact</title>
<path fill="none" stroke="black" d="M490.62,-298C528.17,-284.64 549.09,-306.16 578.25,-279 619.93,-240.18 572.9,-195.17 614.25,-156 619.85,-150.69 626.29,-146.36 633.2,-142.84"/>
<polygon fill="none" stroke="black" points="634.51,-146.09 642.23,-138.84 631.67,-139.69 634.51,-146.09"/>
</g>
<!-- dim_user_360_engagement&#45;&gt;rpt_user_email_campaign_results -->
<g id="edge14" class="edge">
<title>dim_user_360_engagement&#45;&gt;rpt_user_email_campaign_results</title>
<path fill="none" stroke="black" d="M295.12,-316.39C321.78,-332.64 362.83,-356.01 401,-371 492.1,-406.78 519.21,-402.59 614.25,-426 622.12,-427.94 630.3,-429.92 638.51,-431.89"/>
<polygon fill="none" stroke="black" points="637.69,-435.29 648.23,-434.21 639.31,-428.48 637.69,-435.29"/>
</g>
<!-- dim_user_360_engagement&#45;&gt;fct_user_churn_plans -->
<g id="edge12" class="edge">
<title>dim_user_360_engagement&#45;&gt;fct_user_churn_plans</title>
<path fill="none" stroke="black" d="M348.86,-279.86C354.52,-277.29 359.96,-274.35 365,-271 386.62,-256.63 379.61,-239.72 401,-225 404.84,-222.36 408.94,-219.97 413.2,-217.81"/>
<polygon fill="none" stroke="black" points="414.35,-221.13 421.99,-213.8 411.44,-214.76 414.35,-221.13"/>
</g>
<!-- fct_user_churn_actions -->
<g id="node14" class="node">
<title>fct_user_churn_actions</title>
<polygon fill="#b3e2cd" stroke="black" stroke-width="2" points="560.62,-270 418.62,-270 418.62,-234 560.62,-234 560.62,-270"/>
<text xml:space="preserve" text-anchor="middle" x="489.62" y="-246.95" font-family="Times,serif" font-size="14.00">fct_user_churn_actions</text>
</g>
<!-- dim_user_360_engagement&#45;&gt;fct_user_churn_actions -->
<g id="edge15" class="edge">
<title>dim_user_360_engagement&#45;&gt;fct_user_churn_actions</title>
<path fill="none" stroke="black" d="M348.98,-280.87C368.08,-276.92 388.39,-272.72 407.42,-268.79"/>
<polygon fill="none" stroke="black" points="407.9,-272.26 416.99,-266.81 406.48,-265.41 407.9,-272.26"/>
</g>
<!-- fct_app_activity_walk -->
<g id="node15" class="node">
<title>fct_app_activity_walk</title>
<polygon fill="#b3e2cd" stroke="black" stroke-width="2" stroke-dasharray="5,2" points="333.5,-262 196.75,-262 196.75,-226 333.5,-226 333.5,-262"/>
<text xml:space="preserve" text-anchor="middle" x="265.12" y="-238.95" font-family="Times,serif" font-size="14.00">fct_app_activity_walk</text>
</g>
<!-- fct_app_activity_walk&#45;&gt;dim_user_360_user_accounts -->
<g id="edge16" class="edge">
<title>fct_app_activity_walk&#45;&gt;dim_user_360_user_accounts</title>
<path fill="none" stroke="black" d="M333.77,-256.77C344.68,-260.41 355.49,-265.06 365,-271 385.57,-283.85 380.99,-298.3 401,-312 405.64,-315.18 410.64,-318.08 415.81,-320.73"/>
<polygon fill="none" stroke="black" points="414,-323.75 424.54,-324.86 416.99,-317.42 414,-323.75"/>
</g>
<!-- fct_app_activity_walk&#45;&gt;fct_user_churn_plans -->
<g id="edge17" class="edge">
<title>fct_app_activity_walk&#45;&gt;fct_user_churn_plans</title>
<path fill="none" stroke="black" d="M333.79,-230.01C358.51,-224.9 386.65,-219.08 412.09,-213.82"/>
<polygon fill="none" stroke="black" points="412.63,-217.29 421.71,-211.83 411.21,-210.43 412.63,-217.29"/>
</g>
<!-- fct_app_plans -->
<g id="node16" class="node">
<title>fct_app_plans</title>
<polygon fill="#b3e2cd" stroke="black" stroke-width="2" stroke-dasharray="5,2" points="311,-170 219.25,-170 219.25,-134 311,-134 311,-170"/>
<text xml:space="preserve" text-anchor="middle" x="265.12" y="-146.95" font-family="Times,serif" font-size="14.00">fct_app_plans</text>
</g>
<!-- fct_app_plans&#45;&gt;dim_user_360_user_accounts -->
<g id="edge18" class="edge">
<title>fct_app_plans&#45;&gt;dim_user_360_user_accounts</title>
<path fill="none" stroke="black" d="M311.49,-157.16C330.31,-161.49 350.99,-169.44 365,-184 405.97,-226.59 360.83,-268.66 401,-312 403.4,-314.59 406.03,-316.97 408.82,-319.16"/>
<polygon fill="none" stroke="black" points="406.76,-321.99 417.01,-324.67 410.67,-316.18 406.76,-321.99"/>
</g>
<!-- fct_app_plans&#45;&gt;fct_email_campaign_user_engagement -->
<g id="edge19" class="edge">
<title>fct_app_plans&#45;&gt;fct_email_campaign_user_engagement</title>
<path fill="none" stroke="black" d="M311.01,-137.78C327.96,-132.33 347.4,-125.98 365,-120 420.22,-101.24 430.71,-82.87 488.62,-76"/>
</g>
<!-- fct_app_plans&#45;&gt;fct_email_campaign_user_plans -->
<g id="edge21" class="edge">
<title>fct_app_plans&#45;&gt;fct_email_campaign_user_plans</title>
<path fill="none" stroke="black" d="M490.62,-152C534.06,-152.36 581.57,-157.54 622.68,-163.57"/>
<polygon fill="none" stroke="black" points="621.92,-166.99 632.33,-165.02 622.96,-160.07 621.92,-166.99"/>
</g>
<!-- fct_app_plans&#45;&gt;rpt_email_campaign_impact -->
<g id="edge22" class="edge">
<title>fct_app_plans&#45;&gt;rpt_email_campaign_impact</title>
<path fill="none" stroke="black" d="M311.3,-151.78C356.25,-151.61 427.21,-151.49 488.62,-152"/>
<path fill="none" stroke="black" d="M490.62,-152C537.33,-152.39 588.94,-148.02 632.18,-142.98"/>
<polygon fill="none" stroke="black" points="632.55,-146.46 642.06,-141.8 631.72,-139.51 632.55,-146.46"/>
</g>
<!-- fct_app_plans&#45;&gt;fct_user_churn_plans -->
<g id="edge20" class="edge">
<title>fct_app_plans&#45;&gt;fct_user_churn_plans</title>
<path fill="none" stroke="black" d="M311.42,-161.36C340.3,-167.34 378.46,-175.23 411.98,-182.15"/>
<polygon fill="none" stroke="black" points="411.16,-185.56 421.66,-184.16 412.58,-178.7 411.16,-185.56"/>
</g>
<!-- fct_app_actions -->
<g id="node17" class="node">
<title>fct_app_actions</title>
<polygon fill="#b3e2cd" stroke="black" stroke-width="2" points="115.38,-398 13.88,-398 13.88,-362 115.38,-362 115.38,-398"/>
<text xml:space="preserve" text-anchor="middle" x="64.62" y="-374.95" font-family="Times,serif" font-size="14.00">fct_app_actions</text>
</g>
<!-- fct_app_actions&#45;&gt;dim_user_360_engagement -->
<g id="edge23" class="edge">
<title>fct_app_actions&#45;&gt;dim_user_360_engagement</title>
<path fill="none" stroke="black" d="M110.17,-361.6C139.44,-349.51 177.94,-333.6 209.12,-320.72"/>
<polygon fill="none" stroke="black" points="210.08,-324.11 217.98,-317.06 207.41,-317.64 210.08,-324.11"/>
</g>
<!-- dim_user_360_event_users_latest -->
<g id="node18" class="node">
<title>dim_user_360_event_users_latest</title>
<polygon fill="#cbd5e8" stroke="black" stroke-width="2" points="365,-408 165.25,-408 165.25,-372 365,-372 365,-408"/>
<text xml:space="preserve" text-anchor="middle" x="265.12" y="-384.95" font-family="Times,serif" font-size="14.00">dim_user_360_event_users_latest</text>
</g>
<!-- fct_app_actions&#45;&gt;dim_user_360_event_users_latest -->
<g id="edge24" class="edge">
<title>fct_app_actions&#45;&gt;dim_user_360_event_users_latest</title>
<path fill="none" stroke="black" d="M115.71,-382.52C127.47,-383.12 140.45,-383.77 153.71,-384.44"/>
<polygon fill="none" stroke="black" points="153.21,-387.92 163.37,-384.92 153.56,-380.93 153.21,-387.92"/>
</g>
<!-- dim_user_360_event_users_latest&#45;&gt;rpt_marketing_app_user_demographics -->
<g id="edge25" class="edge">
<title>dim_user_360_event_users_latest&#45;&gt;rpt_marketing_app_user_demographics</title>
<path fill="none" stroke="black" d="M490.62,-534C526.25,-544.44 565.96,-550.89 602.6,-554.85"/>
<polygon fill="none" stroke="black" points="602.06,-558.32 612.36,-555.85 602.77,-551.35 602.06,-558.32"/>
</g>
<!-- dim_user_360_event_users_latest&#45;&gt;rpt_supprt_widget -->
<g id="edge26" class="edge">
<title>dim_user_360_event_users_latest&#45;&gt;rpt_supprt_widget</title>
<path fill="none" stroke="black" d="M490.62,-534C521.59,-543.08 602.33,-531.31 661.35,-520.58"/>
<polygon fill="none" stroke="black" points="661.79,-524.06 670.98,-518.8 660.51,-517.18 661.79,-524.06"/>
<path fill="none" stroke="black" d="M285.56,-408.35C321.94,-441.29 404.29,-509.28 488.62,-534"/>
</g>
<!-- dim_user_360_event_users_latest&#45;&gt;dim_user_360_user_accounts -->
<g id="edge27" class="edge">
<title>dim_user_360_event_users_latest&#45;&gt;dim_user_360_user_accounts</title>
<path fill="none" stroke="black" d="M355.34,-371.56C366.7,-369.21 378.38,-366.79 389.88,-364.41"/>
<polygon fill="none" stroke="black" points="390.27,-367.91 399.35,-362.46 388.85,-361.05 390.27,-367.91"/>
</g>
<!-- fct_app_engagement -->
<g id="node19" class="node">
<title>fct_app_engagement</title>
<polygon fill="#b3e2cd" stroke="black" stroke-width="2" stroke-dasharray="5,2" points="129.25,-335 0,-335 0,-299 129.25,-299 129.25,-335"/>
<text xml:space="preserve" text-anchor="middle" x="64.62" y="-311.95" font-family="Times,serif" font-size="14.00">fct_app_engagement</text>
</g>
<!-- fct_app_engagement&#45;&gt;dim_user_360_engagement -->
<g id="edge28" class="edge">
<title>fct_app_engagement&#45;&gt;dim_user_360_engagement</title>
<path fill="none" stroke="black" d="M129.52,-310.88C142.58,-309.63 156.58,-308.29 170.43,-306.97"/>
<polygon fill="none" stroke="black" points="170.36,-310.49 179.98,-306.05 169.69,-303.52 170.36,-310.49"/>
</g>
<!-- dim_app_users -->
<g id="node20" class="node">
<title>dim_app_users</title>
<polygon fill="#cbd5e8" stroke="black" stroke-width="2" points="113.88,-281 15.37,-281 15.37,-245 113.88,-245 113.88,-281"/>
<text xml:space="preserve" text-anchor="middle" x="64.62" y="-257.95" font-family="Times,serif" font-size="14.00">dim_app_users</text>
</g>
<!-- dim_app_users&#45;&gt;dim_user_360_user_accounts -->
<g id="edge29" class="edge">
<title>dim_app_users&#45;&gt;dim_user_360_user_accounts</title>
<path fill="none" stroke="black" d="M114.21,-281.36C119.43,-283.99 124.55,-286.88 129.25,-290 147.84,-302.35 144.83,-316 165.25,-325 235.67,-356.03 323.2,-359.31 389.43,-355.65"/>
<polygon fill="none" stroke="black" points="389.43,-359.16 399.19,-355.04 388.99,-352.17 389.43,-359.16"/>
</g>
<!-- dim_app_users&#45;&gt;fct_email_campaign_user_engagement -->
<g id="edge30" class="edge">
<title>dim_app_users&#45;&gt;fct_email_campaign_user_engagement</title>
<path fill="none" stroke="black" d="M266.12,-106C359.14,-69.87 389.54,-87.75 488.62,-76"/>
<path fill="none" stroke="black" d="M490.62,-76C527.26,-71.66 567.27,-70.21 603.89,-70.18"/>
<polygon fill="none" stroke="black" points="603.61,-73.68 613.62,-70.21 603.63,-66.68 603.61,-73.68"/>
<path fill="none" stroke="black" d="M73.28,-244.8C86.98,-214.65 118.66,-154.71 165.25,-125 202.98,-100.94 222.41,-122.2 264.12,-106"/>
</g>
<!-- dim_app_users&#45;&gt;rpt_email_campaign_impact -->
<g id="edge33" class="edge">
<title>dim_app_users&#45;&gt;rpt_email_campaign_impact</title>
<path fill="none" stroke="black" d="M266.12,-106C330.83,-81.89 516.76,-100.42 632.41,-115.27"/>
<polygon fill="none" stroke="black" points="631.85,-118.73 642.22,-116.54 632.75,-111.78 631.85,-118.73"/>
</g>
<!-- dim_app_users&#45;&gt;fct_user_churn_plans -->
<g id="edge31" class="edge">
<title>dim_app_users&#45;&gt;fct_user_churn_plans</title>
<path fill="none" stroke="black" d="M266.12,-198C314.37,-193.31 368.79,-193.22 411.73,-194.34"/>
<polygon fill="none" stroke="black" points="411.62,-197.84 421.72,-194.64 411.83,-190.84 411.62,-197.84"/>
<path fill="none" stroke="black" d="M99.83,-244.69C118.69,-235.25 142.76,-224.23 165.25,-217 207.85,-203.3 219.59,-202.33 264.12,-198"/>
</g>
<!-- dim_app_users&#45;&gt;dim_user_360_engagement -->
<g id="edge32" class="edge">
<title>dim_app_users&#45;&gt;dim_user_360_engagement</title>
<path fill="none" stroke="black" d="M114.18,-271.56C131.07,-274.54 150.63,-277.99 169.94,-281.39"/>
<polygon fill="none" stroke="black" points="169.31,-284.84 179.76,-283.13 170.52,-277.94 169.31,-284.84"/>
</g>
<!-- dim_app_users&#45;&gt;fct_user_churn_actions -->
<g id="edge35" class="edge">
<title>dim_app_users&#45;&gt;fct_user_churn_actions</title>
<path fill="none" stroke="black" d="M266.12,-198C310.66,-193.67 321.46,-206.67 365,-217 381.74,-220.97 399.61,-225.72 416.41,-230.43"/>
<polygon fill="none" stroke="black" points="415.24,-233.74 425.82,-233.09 417.15,-227 415.24,-233.74"/>
</g>
<!-- dim_app_users&#45;&gt;dim_user_360_event_users_latest -->
<g id="edge34" class="edge">
<title>dim_app_users&#45;&gt;dim_user_360_event_users_latest</title>
<path fill="none" stroke="black" d="M114.33,-279.43C119.71,-282.44 124.83,-285.94 129.25,-290 154.44,-313.12 139.06,-336.01 165.25,-358 168.73,-360.92 172.47,-363.57 176.41,-365.99"/>
<polygon fill="none" stroke="black" points="174.73,-369.06 185.18,-370.78 178.08,-362.91 174.73,-369.06"/>
</g>
</g>
</svg>
