<?xml version="1.0" encoding="UTF-8" standalone="no"?>
<!DOCTYPE svg PUBLIC "-//W3C//DTD SVG 1.1//EN"
 "http://www.w3.org/Graphics/SVG/1.1/DTD/svg11.dtd">
<!-- Generated by graphviz version 14.1.2 (20260124.0452)
 -->
<!-- Pages: 1 -->
<svg width="827pt" height="756pt"
 viewBox="0.00 0.00 827.00 756.00" xmlns="http://www.w3.org/2000/svg" xmlns:xlink="http://www.w3.org/1999/xlink">
<g id="graph0" class="graph" transform="scale(1 1) rotate(0) translate(4 751.92)">
<polygon fill="white" stroke="none" points="-4,4 -4,-751.92 822.5,-751.92 822.5,4 -4,4"/>
<text xml:space="preserve" text-anchor="middle" x="204.88" y="-171.7" font-family="Times,serif" font-size="14.00"> User 360 Dimensions (Excluding Churn)</text>
<text xml:space="preserve" text-anchor="start" x="8" y="-155.2" font-family="Times,serif" font-size="14.00">(File: mkt1_user_360_impact_no_churn)</text>
<text xml:space="preserve" text-anchor="start" x="8" y="-138.7" font-family="Times,serif" font-size="14.00"> </text>
<text xml:space="preserve" text-anchor="start" x="8" y="-122.2" font-family="Times,serif" font-size="14.00">Target models: </text>
<text xml:space="preserve" text-anchor="start" x="8" y="-105.7" font-family="Times,serif" font-size="14.00"> 	dim_user_360_user_accounts</text>
<text xml:space="preserve" text-anchor="start" x="8" y="-89.2" font-family="Times,serif" font-size="14.00">	dim_user_360_engagement</text>
<text xml:space="preserve" text-anchor="start" x="8" y="-56.7" font-family="Times,serif" font-size="14.00">Parent depth: 1, Child depth: &#160;1</text>
<text xml:space="preserve" text-anchor="start" x="8" y="-40.2" font-family="Times,serif" font-size="14.00">Model filter regex: .*churn.*</text>
<text xml:space="preserve" text-anchor="start" x="8" y="-23.7" font-family="Times,serif" font-size="14.00"># models excluded: 2</text>
<text xml:space="preserve" text-anchor="start" x="8" y="-7.2" font-family="Times,serif" font-size="14.00">Border style: [ solid = table, dashed = incremental table, none = view ] </text>
<!-- rpt_user_email_campaign_results -->
<g id="node1" class="node">
<title>rpt_user_email_campaign_results</title>
<polygon fill="seashell" stroke="black" stroke-width="2" points="802.38,-315.92 602.62,-315.92 602.62,-279.92 802.38,-279.92 802.38,-315.92"/>
<text xml:space="preserve" text-anchor="middle" x="702.5" y="-292.87" font-family="Times,serif" font-size="14.00">rpt_user_email_campaign_results</text>
</g>
<!-- dim_user_360_user_accounts -->
<g id="node2" class="node">
<title>dim_user_360_user_accounts</title>
<polygon fill="#cbd5e8" stroke="black" stroke-width="2" points="550.5,-498.92 373.25,-498.92 373.25,-462.92 550.5,-462.92 550.5,-498.92"/>
<text xml:space="preserve" text-anchor="middle" x="461.88" y="-475.87" font-family="Times,serif" font-size="14.00">dim_user_360_user_accounts</text>
</g>
<!-- dim_user_360_user_accounts&#45;&gt;rpt_user_email_campaign_results -->
<g id="edge1" class="edge">
<title>dim_user_360_user_accounts&#45;&gt;rpt_user_email_campaign_results</title>
<path fill="none" stroke="black" d="M498.77,-462.68C516.38,-452.2 536.71,-437.61 550.5,-419.92 578.27,-384.32 552.54,-354.68 586.5,-324.92 588.44,-323.22 590.47,-321.62 592.58,-320.12"/>
<polygon fill="none" stroke="black" points="594.3,-323.17 600.95,-314.92 590.6,-317.22 594.3,-323.17"/>
</g>
<!-- fct_email_campaign_user_plans -->
<g id="node3" class="node">
<title>fct_email_campaign_user_plans</title>
<polygon fill="#b3e2cd" stroke="black" stroke-width="2" points="798.62,-423.92 606.38,-423.92 606.38,-387.92 798.62,-387.92 798.62,-423.92"/>
<text xml:space="preserve" text-anchor="middle" x="702.5" y="-400.87" font-family="Times,serif" font-size="14.00">fct_email_campaign_user_plans</text>
</g>
<!-- dim_user_360_user_accounts&#45;&gt;fct_email_campaign_user_plans -->
<g id="edge2" class="edge">
<title>dim_user_360_user_accounts&#45;&gt;fct_email_campaign_user_plans</title>
<path fill="none" stroke="black" d="M505.83,-462.54C529.37,-452.9 559.23,-441.37 586.5,-432.92 592.71,-431 599.15,-429.14 605.66,-427.35"/>
<polygon fill="none" stroke="black" points="606.44,-430.77 615.2,-424.81 604.64,-424 606.44,-430.77"/>
</g>
<!-- fct_email_campaign_user_engagement -->
<g id="node4" class="node">
<title>fct_email_campaign_user_engagement</title>
<polygon fill="#b3e2cd" stroke="black" stroke-width="2" points="817.38,-369.92 587.62,-369.92 587.62,-333.92 817.38,-333.92 817.38,-369.92"/>
<text xml:space="preserve" text-anchor="middle" x="702.5" y="-346.87" font-family="Times,serif" font-size="14.00">fct_email_campaign_user_engagement</text>
</g>
<!-- dim_user_360_user_accounts&#45;&gt;fct_email_campaign_user_engagement -->
<g id="edge3" class="edge">
<title>dim_user_360_user_accounts&#45;&gt;fct_email_campaign_user_engagement</title>
<path fill="none" stroke="black" d="M493.01,-462.54C510.56,-451.22 532.67,-435.86 550.5,-419.92 568.58,-403.77 565.71,-391.4 586.5,-378.92 588.68,-377.62 590.92,-376.37 593.2,-375.19"/>
<polygon fill="none" stroke="black" points="594.55,-378.42 602.12,-371.02 591.58,-372.08 594.55,-378.42"/>
</g>
<!-- rpt_supprt_widget -->
<g id="node5" class="node">
<title>rpt_supprt_widget</title>
<polygon fill="seashell" stroke="black" stroke-width="2" points="760,-693.92 645,-693.92 645,-657.92 760,-657.92 760,-693.92"/>
<text xml:space="preserve" text-anchor="middle" x="702.5" y="-670.87" font-family="Times,serif" font-size="14.00">rpt_supprt_widget</text>
</g>
<!-- dim_user_360_user_accounts&#45;&gt;rpt_supprt_widget -->
<g id="edge4" class="edge">
<title>dim_user_360_user_accounts&#45;&gt;rpt_supprt_widget</title>
<path fill="none" stroke="black" d="M470.93,-499.17C487.32,-534.09 528.02,-610.32 586.5,-648.92 600.48,-658.15 617.24,-664.24 633.58,-668.25"/>
<polygon fill="none" stroke="black" points="632.8,-671.66 643.32,-670.39 634.3,-664.82 632.8,-671.66"/>
</g>
<!-- rpt_marketing_app_user_demographics -->
<g id="node6" class="node">
<title>rpt_marketing_app_user_demographics</title>
<polygon fill="seashell" stroke="black" stroke-width="2" points="818.5,-747.92 586.5,-747.92 586.5,-711.92 818.5,-711.92 818.5,-747.92"/>
<text xml:space="preserve" text-anchor="middle" x="702.5" y="-724.87" font-family="Times,serif" font-size="14.00">rpt_marketing_app_user_demographics</text>
</g>
<!-- dim_user_360_user_accounts&#45;&gt;rpt_marketing_app_user_demographics -->
<g id="edge5" class="edge">
<title>dim_user_360_user_accounts&#45;&gt;rpt_marketing_app_user_demographics</title>
<path fill="none" stroke="black" d="M467.56,-499.22C479.52,-542.05 515.38,-649.23 586.5,-702.92 587.83,-703.93 589.19,-704.9 590.58,-705.83"/>
<polygon fill="none" stroke="black" points="588.43,-708.62 598.82,-710.71 592,-702.6 588.43,-708.62"/>
</g>
<!-- dim_user_360_app_errors -->
<g id="node7" class="node">
<title>dim_user_360_app_errors</title>
<polygon fill="#cbd5e8" stroke="black" stroke-width="2" points="781.75,-531.92 623.25,-531.92 623.25,-495.92 781.75,-495.92 781.75,-531.92"/>
<text xml:space="preserve" text-anchor="middle" x="702.5" y="-508.87" font-family="Times,serif" font-size="14.00">dim_user_360_app_errors</text>
</g>
<!-- dim_user_360_user_accounts&#45;&gt;dim_user_360_app_errors -->
<g id="edge6" class="edge">
<title>dim_user_360_user_accounts&#45;&gt;dim_user_360_app_errors</title>
<path fill="none" stroke="black" d="M550.71,-493.07C570.58,-495.82 591.7,-498.74 611.65,-501.5"/>
<polygon fill="none" stroke="black" points="611.03,-504.95 621.42,-502.85 611.99,-498.01 611.03,-504.95"/>
</g>
<!-- fct_user_360_disputes_tag_user -->
<g id="node8" class="node">
<title>fct_user_360_disputes_tag_user</title>
<polygon fill="#b3e2cd" stroke="black" stroke-width="2" points="797.5,-477.92 607.5,-477.92 607.5,-441.92 797.5,-441.92 797.5,-477.92"/>
<text xml:space="preserve" text-anchor="middle" x="702.5" y="-454.87" font-family="Times,serif" font-size="14.00">fct_user_360_disputes_tag_user</text>
</g>
<!-- dim_user_360_user_accounts&#45;&gt;fct_user_360_disputes_tag_user -->
<g id="edge7" class="edge">
<title>dim_user_360_user_accounts&#45;&gt;fct_user_360_disputes_tag_user</title>
<path fill="none" stroke="black" d="M550.71,-473.19C565.33,-471.91 580.62,-470.56 595.62,-469.24"/>
<polygon fill="none" stroke="black" points="595.86,-472.73 605.52,-468.37 595.25,-465.76 595.86,-472.73"/>
</g>
<!-- rpt_email_campaign_impact -->
<g id="node9" class="node">
<title>rpt_email_campaign_impact</title>
<polygon fill="seashell" stroke="black" stroke-width="2" points="788.88,-261.92 616.12,-261.92 616.12,-225.92 788.88,-225.92 788.88,-261.92"/>
<text xml:space="preserve" text-anchor="middle" x="702.5" y="-238.87" font-family="Times,serif" font-size="14.00">rpt_email_campaign_impact</text>
</g>
<!-- dim_user_360_user_accounts&#45;&gt;rpt_email_campaign_impact -->
<g id="edge8" class="edge">
<title>dim_user_360_user_accounts&#45;&gt;rpt_email_campaign_impact</title>
<path fill="none" stroke="black" d="M501.05,-462.6C518.57,-452.35 538.15,-437.98 550.5,-419.92 588.96,-363.69 538.17,-318.94 586.5,-270.92 592.02,-265.44 598.44,-260.98 605.35,-257.38"/>
<polygon fill="none" stroke="black" points="606.74,-260.59 614.43,-253.3 603.87,-254.21 606.74,-260.59"/>
</g>
<!-- fct_email_campaign_user_actions -->
<g id="node10" class="node">
<title>fct_email_campaign_user_actions</title>
<polygon fill="#b3e2cd" stroke="black" stroke-width="2" points="803.5,-639.92 601.5,-639.92 601.5,-603.92 803.5,-603.92 803.5,-639.92"/>
<text xml:space="preserve" text-anchor="middle" x="702.5" y="-616.87" font-family="Times,serif" font-size="14.00">fct_email_campaign_user_actions</text>
</g>
<!-- dim_user_360_user_accounts&#45;&gt;fct_email_campaign_user_actions -->
<g id="edge9" class="edge">
<title>dim_user_360_user_accounts&#45;&gt;fct_email_campaign_user_actions</title>
<path fill="none" stroke="black" d="M477.17,-499.01C498.29,-524.46 540.33,-570.43 586.5,-594.92 589.34,-596.43 592.27,-597.86 595.26,-599.21"/>
<polygon fill="none" stroke="black" points="593.67,-602.33 604.25,-602.91 596.34,-595.86 593.67,-602.33"/>
</g>
<!-- fct_user_360_tickets_tag_user -->
<g id="node11" class="node">
<title>fct_user_360_tickets_tag_user</title>
<polygon fill="#b3e2cd" stroke="black" stroke-width="2" points="793,-585.92 612,-585.92 612,-549.92 793,-549.92 793,-585.92"/>
<text xml:space="preserve" text-anchor="middle" x="702.5" y="-562.87" font-family="Times,serif" font-size="14.00">fct_user_360_tickets_tag_user</text>
</g>
<!-- dim_user_360_user_accounts&#45;&gt;fct_user_360_tickets_tag_user -->
<g id="edge10" class="edge">
<title>dim_user_360_user_accounts&#45;&gt;fct_user_360_tickets_tag_user</title>
<path fill="none" stroke="black" d="M495.85,-499.42C520.27,-512.49 554.69,-529.63 586.5,-540.92 591.8,-542.81 597.28,-544.59 602.85,-546.29"/>
<polygon fill="none" stroke="black" points="601.6,-549.57 612.18,-549 603.56,-542.85 601.6,-549.57"/>
</g>
<!-- dim_app_users -->
<g id="node12" class="node">
<title>dim_app_users</title>
<polygon fill="#cbd5e8" stroke="black" stroke-width="2" points="100,-362.92 1.5,-362.92 1.5,-326.92 100,-326.92 100,-362.92"/>
<text xml:space="preserve" text-anchor="middle" x="50.75" y="-339.87" font-family="Times,serif" font-size="14.00">dim_app_users</text>
</g>
<!-- dim_app_users&#45;&gt;dim_user_360_user_accounts -->
<g id="edge11" class="edge">
<title>dim_app_users&#45;&gt;dim_user_360_user_accounts</title>
<path fill="none" stroke="black" d="M91.03,-363.37C94.79,-365.96 98.36,-368.81 101.5,-371.92 124.95,-395.18 110.25,-418.27 137.5,-436.92 155.87,-449.49 273.49,-463.21 361.62,-471.93"/>
<polygon fill="none" stroke="black" points="361.23,-475.4 371.52,-472.9 361.91,-468.44 361.23,-475.4"/>
</g>
<!-- dim_app_users&#45;&gt;fct_email_campaign_user_engagement -->
<g id="edge12" class="edge">
<title>dim_app_users&#45;&gt;fct_email_campaign_user_engagement</title>
<path fill="none" stroke="black" d="M100.32,-345.45C200.17,-346.52 431.26,-349.01 576.08,-350.57"/>
<polygon fill="none" stroke="black" points="575.67,-354.07 585.71,-350.68 575.74,-347.07 575.67,-354.07"/>
</g>
<!-- dim_app_users&#45;&gt;rpt_email_campaign_impact -->
<g id="edge13" class="edge">
<title>dim_app_users&#45;&gt;rpt_email_campaign_impact</title>
<path fill="none" stroke="black" d="M62.3,-326.64C76.27,-304.46 103.18,-268.18 137.5,-252.92 289.92,-185.18 489.19,-203.6 605.49,-223.51"/>
<polygon fill="none" stroke="black" points="604.89,-226.96 615.34,-225.24 606.1,-220.06 604.89,-226.96"/>
</g>
<!-- dim_user_360_engagement -->
<g id="node13" class="node">
<title>dim_user_360_engagement</title>
<polygon fill="#cbd5e8" stroke="black" stroke-width="2" points="545.25,-297.92 378.5,-297.92 378.5,-261.92 545.25,-261.92 545.25,-297.92"/>
<text xml:space="preserve" text-anchor="middle" x="461.88" y="-274.87" font-family="Times,serif" font-size="14.00">dim_user_360_engagement</text>
</g>
<!-- dim_app_users&#45;&gt;dim_user_360_engagement -->
<g id="edge14" class="edge">
<title>dim_app_users&#45;&gt;dim_user_360_engagement</title>
<path fill="none" stroke="black" d="M100.46,-343.08C137.99,-340.9 190.96,-336.17 236.38,-325.92"/>
<path fill="none" stroke="black" d="M238.38,-325.92C282.03,-316.08 293.42,-315.92 337.25,-306.92 346.87,-304.95 356.89,-302.84 366.89,-300.71"/>
<polygon fill="none" stroke="black" points="367.62,-304.13 376.67,-298.61 366.15,-297.29 367.62,-304.13"/>
</g>
<!-- dim_user_360_event_users_latest -->
<g id="node14" class="node">
<title>dim_user_360_event_users_latest</title>
<polygon fill="#cbd5e8" stroke="black" stroke-width="2" points="337.25,-573.92 137.5,-573.92 137.5,-537.92 337.25,-537.92 337.25,-573.92"/>
<text xml:space="preserve" text-anchor="middle" x="237.38" y="-550.87" font-family="Times,serif" font-size="14.00">dim_user_360_event_users_latest</text>
</g>
<!-- dim_app_users&#45;&gt;dim_user_360_event_users_latest -->
<g id="edge15" class="edge">
<title>dim_app_users&#45;&gt;dim_user_360_event_users_latest</title>
<path fill="none" stroke="black" d="M92.69,-363.09C95.99,-365.7 99,-368.64 101.5,-371.92 144.8,-428.94 87.93,-477.27 137.5,-528.92 137.98,-529.43 138.47,-529.92 138.97,-530.4"/>
<polygon fill="none" stroke="black" points="136.53,-532.93 146.49,-536.53 140.95,-527.5 136.53,-532.93"/>
</g>
<!-- dim_user_360_engagement&#45;&gt;rpt_user_email_campaign_results -->
<g id="edge22" class="edge">
<title>dim_user_360_engagement&#45;&gt;rpt_user_email_campaign_results</title>
<path fill="none" stroke="black" d="M545.66,-286.17C560.4,-287.28 575.95,-288.45 591.3,-289.61"/>
<polygon fill="none" stroke="black" points="590.68,-293.07 600.92,-290.34 591.21,-286.09 590.68,-293.07"/>
</g>
<!-- dim_user_360_engagement&#45;&gt;fct_email_campaign_user_engagement -->
<g id="edge23" class="edge">
<title>dim_user_360_engagement&#45;&gt;fct_email_campaign_user_engagement</title>
<path fill="none" stroke="black" d="M509.4,-298.34C532.39,-307.06 560.67,-317.22 586.5,-324.92 593.08,-326.89 599.9,-328.8 606.79,-330.63"/>
<polygon fill="none" stroke="black" points="605.63,-333.95 616.19,-333.08 607.39,-327.17 605.63,-333.95"/>
</g>
<!-- dim_user_360_engagement&#45;&gt;rpt_email_campaign_impact -->
<g id="edge24" class="edge">
<title>dim_user_360_engagement&#45;&gt;rpt_email_campaign_impact</title>
<path fill="none" stroke="black" d="M545.66,-267.43C564.77,-264.55 585.26,-261.46 604.9,-258.5"/>
<polygon fill="none" stroke="black" points="605.16,-262 614.52,-257.05 604.11,-255.08 605.16,-262"/>
</g>
<!-- dim_user_360_event_users_latest&#45;&gt;dim_user_360_user_accounts -->
<g id="edge27" class="edge">
<title>dim_user_360_event_users_latest&#45;&gt;dim_user_360_user_accounts</title>
<path fill="none" stroke="black" d="M309.39,-537.49C318.81,-534.76 328.29,-531.88 337.25,-528.92 360.07,-521.4 384.83,-512.03 406.16,-503.58"/>
<polygon fill="none" stroke="black" points="407.26,-506.91 415.24,-499.94 404.66,-500.41 407.26,-506.91"/>
</g>
<!-- dim_user_360_event_users_latest&#45;&gt;rpt_supprt_widget -->
<g id="edge28" class="edge">
<title>dim_user_360_event_users_latest&#45;&gt;rpt_supprt_widget</title>
<path fill="none" stroke="black" d="M257.45,-574.39C293.56,-607.9 375.91,-677.58 460.88,-702.92"/>
<path fill="none" stroke="black" d="M462.88,-702.92C493.79,-712.15 574.55,-700.35 633.58,-689.58"/>
<polygon fill="none" stroke="black" points="634.02,-693.05 643.22,-687.79 632.74,-686.17 634.02,-693.05"/>
</g>
<!-- dim_user_360_event_users_latest&#45;&gt;rpt_marketing_app_user_demographics -->
<g id="edge29" class="edge">
<title>dim_user_360_event_users_latest&#45;&gt;rpt_marketing_app_user_demographics</title>
<path fill="none" stroke="black" d="M462.88,-702.92C498.45,-713.53 538.14,-720.03 574.79,-723.99"/>
<polygon fill="none" stroke="black" points="574.25,-727.45 584.55,-724.99 574.96,-720.49 574.25,-727.45"/>
</g>
<!-- fct_app_activity_walk -->
<g id="node15" class="node">
<title>fct_app_activity_walk</title>
<polygon fill="#b3e2cd" stroke="black" stroke-width="2" stroke-dasharray="5,2" points="305.75,-519.92 169,-519.92 169,-483.92 305.75,-483.92 305.75,-519.92"/>
<text xml:space="preserve" text-anchor="middle" x="237.38" y="-496.87" font-family="Times,serif" font-size="14.00">fct_app_activity_walk</text>
</g>
<!-- fct_app_activity_walk&#45;&gt;dim_user_360_user_accounts -->
<g id="edge16" class="edge">
<title>fct_app_activity_walk&#45;&gt;dim_user_360_user_accounts</title>
<path fill="none" stroke="black" d="M306.04,-495.54C323.59,-493.88 342.86,-492.06 361.67,-490.29"/>
<polygon fill="none" stroke="black" points="361.85,-493.79 371.48,-489.36 361.19,-486.82 361.85,-493.79"/>
</g>
<!-- fct_app_engagement -->
<g id="node16" class="node">
<title>fct_app_engagement</title>
<polygon fill="#b3e2cd" stroke="black" stroke-width="2" stroke-dasharray="5,2" points="302,-297.92 172.75,-297.92 172.75,-261.92 302,-261.92 302,-297.92"/>
<text xml:space="preserve" text-anchor="middle" x="237.38" y="-274.87" font-family="Times,serif" font-size="14.00">fct_app_engagement</text>
</g>
<!-- fct_app_engagement&#45;&gt;dim_user_360_engagement -->
<g id="edge17" class="edge">
<title>fct_app_engagement&#45;&gt;dim_user_360_engagement</title>
<path fill="none" stroke="black" d="M302.43,-279.92C322.55,-279.92 345.19,-279.92 366.93,-279.92"/>
<polygon fill="none" stroke="black" points="366.68,-283.42 376.68,-279.92 366.68,-276.42 366.68,-283.42"/>
</g>
<!-- fct_app_plans -->
<g id="node17" class="node">
<title>fct_app_plans</title>
<polygon fill="#b3e2cd" stroke="black" stroke-width="2" stroke-dasharray="5,2" points="283.25,-427.92 191.5,-427.92 191.5,-391.92 283.25,-391.92 283.25,-427.92"/>
<text xml:space="preserve" text-anchor="middle" x="237.38" y="-404.87" font-family="Times,serif" font-size="14.00">fct_app_plans</text>
</g>
<!-- fct_app_plans&#45;&gt;dim_user_360_user_accounts -->
<g id="edge18" class="edge">
<title>fct_app_plans&#45;&gt;dim_user_360_user_accounts</title>
<path fill="none" stroke="black" d="M283.67,-424.38C314.87,-434.34 356.92,-447.75 392.22,-459.02"/>
<polygon fill="none" stroke="black" points="390.91,-462.27 401.5,-461.98 393.03,-455.6 390.91,-462.27"/>
</g>
<!-- fct_app_plans&#45;&gt;fct_email_campaign_user_plans -->
<g id="edge19" class="edge">
<title>fct_app_plans&#45;&gt;fct_email_campaign_user_plans</title>
<path fill="none" stroke="black" d="M462.88,-405.92C505.86,-403.14 553.29,-402.61 594.47,-402.97"/>
<polygon fill="none" stroke="black" points="594.35,-406.47 604.39,-403.08 594.43,-399.47 594.35,-406.47"/>
</g>
<!-- fct_app_plans&#45;&gt;fct_email_campaign_user_engagement -->
<g id="edge20" class="edge">
<title>fct_app_plans&#45;&gt;fct_email_campaign_user_engagement</title>
<path fill="none" stroke="black" d="M462.88,-405.92C470.61,-405.42 547.19,-387.92 611.54,-372.97"/>
<polygon fill="none" stroke="black" points="612.15,-376.42 621.1,-370.75 610.56,-369.61 612.15,-376.42"/>
<path fill="none" stroke="black" d="M283.6,-410.35C328.59,-410.48 399.57,-409.9 460.88,-405.92"/>
</g>
<!-- fct_app_plans&#45;&gt;rpt_email_campaign_impact -->
<g id="edge21" class="edge">
<title>fct_app_plans&#45;&gt;rpt_email_campaign_impact</title>
<path fill="none" stroke="black" d="M283.56,-401.9C346.9,-389.18 464.02,-360.19 550.5,-306.92 569.77,-295.06 566.73,-281.93 586.5,-270.92 592.44,-267.62 598.77,-264.72 605.28,-262.17"/>
<polygon fill="none" stroke="black" points="606,-265.63 614.23,-258.96 603.63,-259.04 606,-265.63"/>
</g>
<!-- fct_app_actions -->
<g id="node18" class="node">
<title>fct_app_actions</title>
<polygon fill="#b3e2cd" stroke="black" stroke-width="2" points="101.5,-416.92 0,-416.92 0,-380.92 101.5,-380.92 101.5,-416.92"/>
<text xml:space="preserve" text-anchor="middle" x="50.75" y="-393.87" font-family="Times,serif" font-size="14.00">fct_app_actions</text>
</g>
<!-- fct_app_actions&#45;&gt;dim_user_360_engagement -->
<g id="edge25" class="edge">
<title>fct_app_actions&#45;&gt;dim_user_360_engagement</title>
<path fill="none" stroke="black" d="M88.5,-380.45C125.01,-363.07 183.08,-337.95 236.38,-325.92"/>
</g>
<!-- fct_app_actions&#45;&gt;dim_user_360_event_users_latest -->
<g id="edge26" class="edge">
<title>fct_app_actions&#45;&gt;dim_user_360_event_users_latest</title>
<path fill="none" stroke="black" d="M58.72,-417.06C70.54,-445.34 97.22,-499.73 137.5,-528.92 139.04,-530.04 140.61,-531.1 142.23,-532.13"/>
<polygon fill="none" stroke="black" points="140.09,-534.94 150.53,-536.78 143.52,-528.84 140.09,-534.94"/>
</g>
</g>
</svg>
