<?xml version="1.0" encoding="UTF-8" standalone="no"?>
<!DOCTYPE svg PUBLIC "-//W3C//DTD SVG 1.1//EN"
 "http://www.w3.org/Graphics/SVG/1.1/DTD/svg11.dtd">
<!-- Generated by graphviz version 14.1.2 (20260124.0452)
 -->
<!-- Pages: 1 -->
<svg width="827pt" height="703pt"
 viewBox="0.00 0.00 827.00 703.00" xmlns="http://www.w3.org/2000/svg" xmlns:xlink="http://www.w3.org/1999/xlink">
<g id="graph0" class="graph" transform="scale(1 1) rotate(0) translate(4 698.5)">
<polygon fill="white" stroke="none" points="-4,4 -4,-698.5 822.5,-698.5 822.5,4 -4,4"/>
<text xml:space="preserve" text-anchor="start" x="8" y="-155.2" font-family="Times,serif" font-size="14.00">User 360 Dimensions (Excluding Churn)</text>
<text xml:space="preserve" text-anchor="start" x="8" y="-138.7" font-family="Times,serif" font-size="14.00"> </text>
<text xml:space="preserve" text-anchor="start" x="8" y="-122.2" font-family="Times,serif" font-size="14.00">Target models: </text>
<text xml:space="preserve" text-anchor="start" x="8" y="-105.7" font-family="Times,serif" font-size="14.00"> 	dim_user_360_user_accounts</text>
<text xml:space="preserve" text-anchor="start" x="8" y="-89.2" font-family="Times,serif" font-size="14.00">	dim_user_360_engagement</text>
<text xml:space="preserve" text-anchor="start" x="8" y="-56.7" font-family="Times,serif" font-size="14.00">Parent depth: 1, Child depth: &#160;1</text>
<text xml:space="preserve" text-anchor="start" x="8" y="-40.2" font-family="Times,serif" font-size="14.00">Model filter regex: .*churn.*</text>
<text xml:space="preserve" text-anchor="start" x="8" y="-23.7" font-family="Times,serif" font-size="14.00"># models excluded: 2</text>
<text xml:space="preserve" text-anchor="start" x="8" y="-7.2" font-family="Times,serif" font-size="14.00">Border style: [ solid = table, dashed = incremental table, none = view ] </text>
<!-- rpt_marketing_app_user_demographics -->
<g id="node1" class="node">
<title>rpt_marketing_app_user_demographics</title>
<polygon fill="seashell" stroke="black" stroke-width="2" points="818.5,-640.5 586.5,-640.5 586.5,-604.5 818.5,-604.5 818.5,-640.5"/>
<text xml:space="preserve" text-anchor="middle" x="702.5" y="-617.45" font-family="Times,serif" font-size="14.00">rpt_marketing_app_user_demographics</text>
</g>
<!-- dim_user_360_engagement -->
<g id="node2" class="node">
<title>dim_user_360_engagement</title>
<polygon fill="#cbd5e8" stroke="black" stroke-width="2" points="545.25,-308.5 378.5,-308.5 378.5,-272.5 545.25,-272.5 545.25,-308.5"/>
<text xml:space="preserve" text-anchor="middle" x="461.88" y="-285.45" font-family="Times,serif" font-size="14.00">dim_user_360_engagement</text>
</g>
<!-- fct_email_campaign_user_engagement -->
<g id="node3" class="node">
<title>fct_email_campaign_user_engagement</title>
<polygon fill="#b3e2cd" stroke="black" stroke-width="2" points="817.38,-208.5 587.62,-208.5 587.62,-172.5 817.38,-172.5 817.38,-208.5"/>
<text xml:space="preserve" text-anchor="middle" x="702.5" y="-185.45" font-family="Times,serif" font-size="14.00">fct_email_campaign_user_engagement</text>
</g>
<!-- dim_user_360_engagement&#45;&gt;fct_email_campaign_user_engagement -->
<g id="edge1" class="edge">
<title>dim_user_360_engagement&#45;&gt;fct_email_campaign_user_engagement</title>
<path fill="none" stroke="black" d="M525.59,-272C534.31,-268.19 542.88,-263.71 550.5,-258.5 570.51,-244.8 565.71,-229.98 586.5,-217.5 588.68,-216.19 590.92,-214.95 593.2,-213.76"/>
<polygon fill="none" stroke="black" points="594.55,-217 602.12,-209.59 591.58,-210.66 594.55,-217"/>
</g>
<!-- rpt_user_email_campaign_results -->
<g id="node4" class="node">
<title>rpt_user_email_campaign_results</title>
<polygon fill="seashell" stroke="black" stroke-width="2" points="802.38,-316.5 602.62,-316.5 602.62,-280.5 802.38,-280.5 802.38,-316.5"/>
<text xml:space="preserve" text-anchor="middle" x="702.5" y="-293.45" font-family="Times,serif" font-size="14.00">rpt_user_email_campaign_results</text>
</g>
<!-- dim_user_360_engagement&#45;&gt;rpt_user_email_campaign_results -->
<g id="edge2" class="edge">
<title>dim_user_360_engagement&#45;&gt;rpt_user_email_campaign_results</title>
<path fill="none" stroke="black" d="M545.66,-293.28C560.4,-293.77 575.95,-294.29 591.3,-294.81"/>
<polygon fill="none" stroke="black" points="590.8,-298.29 600.92,-295.13 591.04,-291.29 590.8,-298.29"/>
</g>
<!-- rpt_email_campaign_impact -->
<g id="node5" class="node">
<title>rpt_email_campaign_impact</title>
<polygon fill="seashell" stroke="black" stroke-width="2" points="788.88,-262.5 616.12,-262.5 616.12,-226.5 788.88,-226.5 788.88,-262.5"/>
<text xml:space="preserve" text-anchor="middle" x="702.5" y="-239.45" font-family="Times,serif" font-size="14.00">rpt_email_campaign_impact</text>
</g>
<!-- dim_user_360_engagement&#45;&gt;rpt_email_campaign_impact -->
<g id="edge3" class="edge">
<title>dim_user_360_engagement&#45;&gt;rpt_email_campaign_impact</title>
<path fill="none" stroke="black" d="M545.66,-274.54C564.77,-270.86 585.26,-266.91 604.9,-263.12"/>
<polygon fill="none" stroke="black" points="605.38,-266.59 614.53,-261.26 604.05,-259.72 605.38,-266.59"/>
</g>
<!-- fct_app_engagement -->
<g id="node6" class="node">
<title>fct_app_engagement</title>
<polygon fill="#b3e2cd" stroke="black" stroke-width="2" stroke-dasharray="5,2" points="302,-308.5 172.75,-308.5 172.75,-272.5 302,-272.5 302,-308.5"/>
<text xml:space="preserve" text-anchor="middle" x="237.38" y="-285.45" font-family="Times,serif" font-size="14.00">fct_app_engagement</text>
</g>
<!-- fct_app_engagement&#45;&gt;dim_user_360_engagement -->
<g id="edge4" class="edge">
<title>fct_app_engagement&#45;&gt;dim_user_360_engagement</title>
<path fill="none" stroke="black" d="M302.43,-290.5C322.55,-290.5 345.19,-290.5 366.93,-290.5"/>
<polygon fill="none" stroke="black" points="366.68,-294 376.68,-290.5 366.68,-287 366.68,-294"/>
</g>
<!-- dim_user_360_app_errors -->
<g id="node7" class="node">
<title>dim_user_360_app_errors</title>
<polygon fill="#cbd5e8" stroke="black" stroke-width="2" points="781.75,-532.5 623.25,-532.5 623.25,-496.5 781.75,-496.5 781.75,-532.5"/>
<text xml:space="preserve" text-anchor="middle" x="702.5" y="-509.45" font-family="Times,serif" font-size="14.00">dim_user_360_app_errors</text>
</g>
<!-- rpt_supprt_widget -->
<g id="node8" class="node">
<title>rpt_supprt_widget</title>
<polygon fill="seashell" stroke="black" stroke-width="2" points="760,-694.5 645,-694.5 645,-658.5 760,-658.5 760,-694.5"/>
<text xml:space="preserve" text-anchor="middle" x="702.5" y="-671.45" font-family="Times,serif" font-size="14.00">rpt_supprt_widget</text>
</g>
<!-- fct_app_activity_walk -->
<g id="node9" class="node">
<title>fct_app_activity_walk</title>
<polygon fill="#b3e2cd" stroke="black" stroke-width="2" stroke-dasharray="5,2" points="305.75,-492.5 169,-492.5 169,-456.5 305.75,-456.5 305.75,-492.5"/>
<text xml:space="preserve" text-anchor="middle" x="237.38" y="-469.45" font-family="Times,serif" font-size="14.00">fct_app_activity_walk</text>
</g>
<!-- dim_user_360_user_accounts -->
<g id="node10" class="node">
<title>dim_user_360_user_accounts</title>
<polygon fill="#cbd5e8" stroke="black" stroke-width="2" points="550.5,-462.5 373.25,-462.5 373.25,-426.5 550.5,-426.5 550.5,-462.5"/>
<text xml:space="preserve" text-anchor="middle" x="461.88" y="-439.45" font-family="Times,serif" font-size="14.00">dim_user_360_user_accounts</text>
</g>
<!-- fct_app_activity_walk&#45;&gt;dim_user_360_user_accounts -->
<g id="edge5" class="edge">
<title>fct_app_activity_walk&#45;&gt;dim_user_360_user_accounts</title>
<path fill="none" stroke="black" d="M306.04,-465.38C323.59,-463.01 342.86,-460.41 361.67,-457.88"/>
<polygon fill="none" stroke="black" points="362.04,-461.36 371.49,-456.55 361.11,-454.42 362.04,-461.36"/>
</g>
<!-- dim_user_360_user_accounts&#45;&gt;rpt_marketing_app_user_demographics -->
<g id="edge20" class="edge">
<title>dim_user_360_user_accounts&#45;&gt;rpt_marketing_app_user_demographics</title>
<path fill="none" stroke="black" d="M472.54,-462.9C490.46,-495.11 532.02,-561.52 586.5,-595.5 588.51,-596.75 590.56,-597.94 592.66,-599.08"/>
<polygon fill="none" stroke="black" points="590.9,-602.12 601.42,-603.35 593.97,-595.82 590.9,-602.12"/>
</g>
<!-- dim_user_360_user_accounts&#45;&gt;fct_email_campaign_user_engagement -->
<g id="edge23" class="edge">
<title>dim_user_360_user_accounts&#45;&gt;fct_email_campaign_user_engagement</title>
<path fill="none" stroke="black" d="M488.1,-426.09C507.93,-410.31 534.76,-385.84 550.5,-358.5 582.77,-302.45 540.33,-262.79 586.5,-217.5 587.12,-216.89 587.75,-216.3 588.39,-215.72"/>
<polygon fill="none" stroke="black" points="590.29,-218.67 596.04,-209.78 585.99,-213.15 590.29,-218.67"/>
</g>
<!-- dim_user_360_user_accounts&#45;&gt;rpt_user_email_campaign_results -->
<g id="edge26" class="edge">
<title>dim_user_360_user_accounts&#45;&gt;rpt_user_email_campaign_results</title>
<path fill="none" stroke="black" d="M481.53,-426.04C514.51,-393.47 580.25,-328.9 586.5,-325.5 589.19,-324.03 591.96,-322.65 594.8,-321.33"/>
<polygon fill="none" stroke="black" points="596.03,-324.61 603.88,-317.49 593.3,-318.17 596.03,-324.61"/>
</g>
<!-- dim_user_360_user_accounts&#45;&gt;rpt_email_campaign_impact -->
<g id="edge29" class="edge">
<title>dim_user_360_user_accounts&#45;&gt;rpt_email_campaign_impact</title>
<path fill="none" stroke="black" d="M486.31,-426.11C505.61,-409.97 532.62,-385 550.5,-358.5 573.9,-323.81 554.62,-298.6 586.5,-271.5 592.22,-266.64 598.66,-262.61 605.49,-259.29"/>
<polygon fill="none" stroke="black" points="606.54,-262.64 614.35,-255.49 603.78,-256.21 606.54,-262.64"/>
</g>
<!-- dim_user_360_user_accounts&#45;&gt;dim_user_360_app_errors -->
<g id="edge21" class="edge">
<title>dim_user_360_user_accounts&#45;&gt;dim_user_360_app_errors</title>
<path fill="none" stroke="black" d="M512.12,-462.95C534.63,-471.04 561.73,-480.31 586.5,-487.5 594.74,-489.89 603.36,-492.23 612.01,-494.45"/>
<polygon fill="none" stroke="black" points="610.94,-497.79 621.49,-496.84 612.65,-491 610.94,-497.79"/>
</g>
<!-- dim_user_360_user_accounts&#45;&gt;rpt_supprt_widget -->
<g id="edge22" class="edge">
<title>dim_user_360_user_accounts&#45;&gt;rpt_supprt_widget</title>
<path fill="none" stroke="black" d="M468.49,-462.92C481.84,-503.46 519.47,-600.69 586.5,-649.5 600.3,-659.55 617.29,-665.92 633.94,-669.94"/>
<polygon fill="none" stroke="black" points="632.8,-673.27 643.31,-671.94 634.26,-666.43 632.8,-673.27"/>
</g>
<!-- fct_user_360_disputes_tag_user -->
<g id="node11" class="node">
<title>fct_user_360_disputes_tag_user</title>
<polygon fill="#b3e2cd" stroke="black" stroke-width="2" points="797.5,-478.5 607.5,-478.5 607.5,-442.5 797.5,-442.5 797.5,-478.5"/>
<text xml:space="preserve" text-anchor="middle" x="702.5" y="-455.45" font-family="Times,serif" font-size="14.00">fct_user_360_disputes_tag_user</text>
</g>
<!-- dim_user_360_user_accounts&#45;&gt;fct_user_360_disputes_tag_user -->
<g id="edge24" class="edge">
<title>dim_user_360_user_accounts&#45;&gt;fct_user_360_disputes_tag_user</title>
<path fill="none" stroke="black" d="M550.71,-450.39C565.33,-451.37 580.62,-452.39 595.62,-453.4"/>
<polygon fill="none" stroke="black" points="595.31,-456.89 605.52,-454.06 595.77,-449.9 595.31,-456.89"/>
</g>
<!-- fct_user_360_tickets_tag_user -->
<g id="node12" class="node">
<title>fct_user_360_tickets_tag_user</title>
<polygon fill="#b3e2cd" stroke="black" stroke-width="2" points="793,-424.5 612,-424.5 612,-388.5 793,-388.5 793,-424.5"/>
<text xml:space="preserve" text-anchor="middle" x="702.5" y="-401.45" font-family="Times,serif" font-size="14.00">fct_user_360_tickets_tag_user</text>
</g>
<!-- dim_user_360_user_accounts&#45;&gt;fct_user_360_tickets_tag_user -->
<g id="edge25" class="edge">
<title>dim_user_360_user_accounts&#45;&gt;fct_user_360_tickets_tag_user</title>
<path fill="none" stroke="black" d="M550.71,-430.51C566.91,-427.93 583.94,-425.22 600.49,-422.59"/>
<polygon fill="none" stroke="black" points="601.03,-426.04 610.36,-421.01 599.93,-419.13 601.03,-426.04"/>
</g>
<!-- fct_email_campaign_user_plans -->
<g id="node16" class="node">
<title>fct_email_campaign_user_plans</title>
<polygon fill="#b3e2cd" stroke="black" stroke-width="2" points="798.62,-370.5 606.38,-370.5 606.38,-334.5 798.62,-334.5 798.62,-370.5"/>
<text xml:space="preserve" text-anchor="middle" x="702.5" y="-347.45" font-family="Times,serif" font-size="14.00">fct_email_campaign_user_plans</text>
</g>
<!-- dim_user_360_user_accounts&#45;&gt;fct_email_campaign_user_plans -->
<g id="edge28" class="edge">
<title>dim_user_360_user_accounts&#45;&gt;fct_email_campaign_user_plans</title>
<path fill="none" stroke="black" d="M492.61,-426.11C517.06,-411.68 552.99,-392.01 586.5,-379.5 591.46,-377.65 596.59,-375.89 601.81,-374.24"/>
<polygon fill="none" stroke="black" points="602.6,-377.66 611.16,-371.41 600.57,-370.95 602.6,-377.66"/>
</g>
<!-- fct_email_campaign_user_actions -->
<g id="node18" class="node">
<title>fct_email_campaign_user_actions</title>
<polygon fill="#b3e2cd" stroke="black" stroke-width="2" points="803.5,-586.5 601.5,-586.5 601.5,-550.5 803.5,-550.5 803.5,-586.5"/>
<text xml:space="preserve" text-anchor="middle" x="702.5" y="-563.45" font-family="Times,serif" font-size="14.00">fct_email_campaign_user_actions</text>
</g>
<!-- dim_user_360_user_accounts&#45;&gt;fct_email_campaign_user_actions -->
<g id="edge27" class="edge">
<title>dim_user_360_user_accounts&#45;&gt;fct_email_campaign_user_actions</title>
<path fill="none" stroke="black" d="M480.8,-462.8C503.42,-484.8 544.45,-521.29 586.5,-541.5 589.83,-543.1 593.26,-544.61 596.75,-546.03"/>
<polygon fill="none" stroke="black" points="595.42,-549.26 606.01,-549.5 597.88,-542.71 595.42,-549.26"/>
</g>
<!-- fct_app_actions -->
<g id="node13" class="node">
<title>fct_app_actions</title>
<polygon fill="#b3e2cd" stroke="black" stroke-width="2" points="101.5,-408.5 0,-408.5 0,-372.5 101.5,-372.5 101.5,-408.5"/>
<text xml:space="preserve" text-anchor="middle" x="50.75" y="-385.45" font-family="Times,serif" font-size="14.00">fct_app_actions</text>
</g>
<!-- fct_app_actions&#45;&gt;dim_user_360_engagement -->
<g id="edge6" class="edge">
<title>fct_app_actions&#45;&gt;dim_user_360_engagement</title>
<path fill="none" stroke="black" d="M92.16,-372.09C106.29,-366.17 122.39,-359.99 137.5,-355.5 180.4,-342.76 192.29,-344.2 236.38,-336.5"/>
</g>
<!-- dim_user_360_event_users_latest -->
<g id="node14" class="node">
<title>dim_user_360_event_users_latest</title>
<polygon fill="#cbd5e8" stroke="black" stroke-width="2" points="337.25,-546.5 137.5,-546.5 137.5,-510.5 337.25,-510.5 337.25,-546.5"/>
<text xml:space="preserve" text-anchor="middle" x="237.38" y="-523.45" font-family="Times,serif" font-size="14.00">dim_user_360_event_users_latest</text>
</g>
<!-- fct_app_actions&#45;&gt;dim_user_360_event_users_latest -->
<g id="edge7" class="edge">
<title>fct_app_actions&#45;&gt;dim_user_360_event_users_latest</title>
<path fill="none" stroke="black" d="M60.97,-408.84C74.4,-433.64 101.68,-477.53 137.5,-501.5 139.33,-502.72 141.21,-503.89 143.14,-505.01"/>
<polygon fill="none" stroke="black" points="141.28,-507.99 151.77,-509.47 144.49,-501.77 141.28,-507.99"/>
</g>
<!-- dim_user_360_event_users_latest&#45;&gt;rpt_marketing_app_user_demographics -->
<g id="edge12" class="edge">
<title>dim_user_360_event_users_latest&#45;&gt;rpt_marketing_app_user_demographics</title>
<path fill="none" stroke="black" d="M462.88,-649.5C486.83,-655.55 539.77,-650.2 589.7,-642.72"/>
<polygon fill="none" stroke="black" points="590.12,-646.2 599.47,-641.22 589.06,-639.28 590.12,-646.2"/>
<path fill="none" stroke="black" d="M262.34,-546.9C301.37,-575.56 382.21,-629.65 460.88,-649.5"/>
</g>
<!-- dim_user_360_event_users_latest&#45;&gt;rpt_supprt_widget -->
<g id="edge13" class="edge">
<title>dim_user_360_event_users_latest&#45;&gt;rpt_supprt_widget</title>
<path fill="none" stroke="black" d="M462.88,-649.5C519.39,-663.76 585.34,-670.5 633.56,-673.68"/>
<polygon fill="none" stroke="black" points="633.1,-677.15 643.3,-674.28 633.53,-670.17 633.1,-677.15"/>
</g>
<!-- dim_user_360_event_users_latest&#45;&gt;dim_user_360_user_accounts -->
<g id="edge14" class="edge">
<title>dim_user_360_event_users_latest&#45;&gt;dim_user_360_user_accounts</title>
<path fill="none" stroke="black" d="M311.43,-510.02C320.2,-507.37 328.97,-504.51 337.25,-501.5 363.54,-491.93 391.95,-479.02 414.89,-467.91"/>
<polygon fill="none" stroke="black" points="416.22,-471.15 423.67,-463.61 413.15,-464.87 416.22,-471.15"/>
</g>
<!-- fct_app_plans -->
<g id="node15" class="node">
<title>fct_app_plans</title>
<polygon fill="#b3e2cd" stroke="black" stroke-width="2" stroke-dasharray="5,2" points="283.25,-400.5 191.5,-400.5 191.5,-364.5 283.25,-364.5 283.25,-400.5"/>
<text xml:space="preserve" text-anchor="middle" x="237.38" y="-377.45" font-family="Times,serif" font-size="14.00">fct_app_plans</text>
</g>
<!-- fct_app_plans&#45;&gt;fct_email_campaign_user_engagement -->
<g id="edge8" class="edge">
<title>fct_app_plans&#45;&gt;fct_email_campaign_user_engagement</title>
<path fill="none" stroke="black" d="M283.56,-376.91C328.82,-370.82 400.28,-359.85 460.88,-344.5"/>
<path fill="none" stroke="black" d="M462.88,-344.5C502.38,-334.49 521.02,-345.64 550.5,-317.5 584.67,-284.89 551.24,-248.93 586.5,-217.5 587.29,-216.8 588.09,-216.11 588.9,-215.45"/>
<polygon fill="none" stroke="black" points="590.75,-218.43 596.9,-209.8 586.71,-212.71 590.75,-218.43"/>
</g>
<!-- fct_app_plans&#45;&gt;rpt_email_campaign_impact -->
<g id="edge11" class="edge">
<title>fct_app_plans&#45;&gt;rpt_email_campaign_impact</title>
<path fill="none" stroke="black" d="M462.88,-344.5C502.38,-334.49 516.93,-340.6 550.5,-317.5 571.89,-302.78 564.62,-285.48 586.5,-271.5 592.34,-267.77 598.64,-264.55 605.18,-261.78"/>
<polygon fill="none" stroke="black" points="606.13,-265.16 614.21,-258.31 603.62,-258.63 606.13,-265.16"/>
</g>
<!-- fct_app_plans&#45;&gt;dim_user_360_user_accounts -->
<g id="edge9" class="edge">
<title>fct_app_plans&#45;&gt;dim_user_360_user_accounts</title>
<path fill="none" stroke="black" d="M283.67,-395.12C312.45,-403.14 350.44,-413.73 383.87,-423.04"/>
<polygon fill="none" stroke="black" points="382.51,-426.3 393.08,-425.61 384.39,-419.55 382.51,-426.3"/>
</g>
<!-- fct_app_plans&#45;&gt;fct_email_campaign_user_plans -->
<g id="edge10" class="edge">
<title>fct_app_plans&#45;&gt;fct_email_campaign_user_plans</title>
<path fill="none" stroke="black" d="M462.88,-344.5C505.2,-333.78 553.1,-333.24 594.82,-336.31"/>
<polygon fill="none" stroke="black" points="594.37,-339.78 604.62,-337.12 594.94,-332.81 594.37,-339.78"/>
</g>
<!-- dim_app_users -->
<g id="node17" class="node">
<title>dim_app_users</title>
<polygon fill="#cbd5e8" stroke="black" stroke-width="2" points="100,-354.5 1.5,-354.5 1.5,-318.5 100,-318.5 100,-354.5"/>
<text xml:space="preserve" text-anchor="middle" x="50.75" y="-331.45" font-family="Times,serif" font-size="14.00">dim_app_users</text>
</g>
<!-- dim_app_users&#45;&gt;dim_user_360_engagement -->
<g id="edge15" class="edge">
<title>dim_app_users&#45;&gt;dim_user_360_engagement</title>
<path fill="none" stroke="black" d="M100.35,-341.03C137.81,-343.44 190.75,-344.47 236.38,-336.5"/>
<path fill="none" stroke="black" d="M238.38,-336.5C282.46,-328.8 293.42,-326.5 337.25,-317.5 346.87,-315.53 356.89,-313.42 366.89,-311.29"/>
<polygon fill="none" stroke="black" points="367.62,-314.71 376.67,-309.19 366.15,-307.86 367.62,-314.71"/>
</g>
<!-- dim_app_users&#45;&gt;fct_email_campaign_user_engagement -->
<g id="edge16" class="edge">
<title>dim_app_users&#45;&gt;fct_email_campaign_user_engagement</title>
<path fill="none" stroke="black" d="M462.88,-244.5C470.63,-244.07 547.44,-226.5 611.86,-211.51"/>
<polygon fill="none" stroke="black" points="612.47,-214.96 621.42,-209.29 610.89,-208.15 612.47,-214.96"/>
<path fill="none" stroke="black" d="M66.64,-318.32C82.23,-300.76 108.47,-275.16 137.5,-263.5 271.09,-209.84 317.13,-252.54 460.88,-244.5"/>
</g>
<!-- dim_app_users&#45;&gt;rpt_email_campaign_impact -->
<g id="edge19" class="edge">
<title>dim_app_users&#45;&gt;rpt_email_campaign_impact</title>
<path fill="none" stroke="black" d="M462.88,-244.5C509.39,-241.9 561.08,-241.58 604.43,-242.05"/>
<polygon fill="none" stroke="black" points="604.28,-245.54 614.33,-242.17 604.37,-238.55 604.28,-245.54"/>
</g>
<!-- dim_app_users&#45;&gt;dim_user_360_user_accounts -->
<g id="edge18" class="edge">
<title>dim_app_users&#45;&gt;dim_user_360_user_accounts</title>
<path fill="none" stroke="black" d="M89.78,-354.98C93.9,-357.6 97.9,-360.45 101.5,-363.5 121.32,-380.26 114.81,-396.89 137.5,-409.5 174.86,-430.26 281.11,-438.71 361.71,-442.14"/>
<polygon fill="none" stroke="black" points="361.26,-445.63 371.39,-442.54 361.54,-438.64 361.26,-445.63"/>
</g>
<!-- dim_app_users&#45;&gt;dim_user_360_event_users_latest -->
<g id="edge17" class="edge">
<title>dim_app_users&#45;&gt;dim_user_360_event_users_latest</title>
<path fill="none" stroke="black" d="M92.59,-354.75C95.91,-357.34 98.96,-360.25 101.5,-363.5 140.58,-413.4 92.94,-456.42 137.5,-501.5 138.11,-502.12 138.73,-502.72 139.37,-503.31"/>
<polygon fill="none" stroke="black" points="137.01,-505.91 147.04,-509.31 141.32,-500.39 137.01,-505.91"/>
</g>
</g>
</svg>
